%TF.GenerationSoftware,KiCad,Pcbnew,5.1.9+dfsg1-1~bpo10+1*%
%TF.CreationDate,2021-02-26T10:21:24+00:00*%
%TF.ProjectId,glider,676c6964-6572-42e6-9b69-6361645f7063,rev?*%
%TF.SameCoordinates,Original*%
%TF.FileFunction,Paste,Top*%
%TF.FilePolarity,Positive*%
%FSLAX46Y46*%
G04 Gerber Fmt 4.6, Leading zero omitted, Abs format (unit mm)*
G04 Created by KiCad (PCBNEW 5.1.9+dfsg1-1~bpo10+1) date 2021-02-26 10:21:24*
%MOMM*%
%LPD*%
G01*
G04 APERTURE LIST*
%ADD10R,0.700000X2.000000*%
%ADD11R,1.000000X2.600000*%
%ADD12R,1.500000X2.600000*%
%ADD13R,2.700000X1.400000*%
%ADD14R,1.200000X1.200000*%
%ADD15R,0.600000X1.000000*%
%ADD16R,0.700000X0.420000*%
%ADD17R,1.000000X0.250000*%
%ADD18R,0.250000X1.000000*%
%ADD19R,0.300000X0.580000*%
%ADD20R,0.580000X0.300000*%
%ADD21R,0.550000X0.550000*%
%ADD22R,0.650000X1.050000*%
%ADD23R,0.650000X1.060000*%
%ADD24R,1.060000X0.650000*%
%ADD25R,0.900000X0.800000*%
%ADD26R,1.500000X3.600000*%
%ADD27R,0.400000X1.060000*%
%ADD28C,0.100000*%
%ADD29R,4.300000X3.400000*%
%ADD30R,0.500000X1.270000*%
%ADD31R,1.200000X1.400000*%
%ADD32R,1.000000X1.000000*%
%ADD33R,0.740000X2.400000*%
%ADD34R,0.450000X1.380000*%
%ADD35R,1.475000X2.100000*%
%ADD36R,2.375000X1.900000*%
%ADD37R,1.175000X1.900000*%
%ADD38R,0.900000X1.200000*%
G04 APERTURE END LIST*
D10*
%TO.C,J5*%
X81900000Y-118170000D03*
X80800000Y-118170000D03*
X79700000Y-118170000D03*
X78600000Y-118170000D03*
X77500000Y-118170000D03*
X76400000Y-118170000D03*
X75300000Y-118170000D03*
X74200000Y-118170000D03*
D11*
X84000000Y-118670000D03*
D12*
X70650000Y-118670000D03*
D13*
X75600000Y-130870000D03*
X80500000Y-130870000D03*
D14*
X72550000Y-130970000D03*
%TD*%
%TO.C,D8*%
G36*
G01*
X66256250Y-148400000D02*
X65743750Y-148400000D01*
G75*
G02*
X65525000Y-148181250I0J218750D01*
G01*
X65525000Y-147743750D01*
G75*
G02*
X65743750Y-147525000I218750J0D01*
G01*
X66256250Y-147525000D01*
G75*
G02*
X66475000Y-147743750I0J-218750D01*
G01*
X66475000Y-148181250D01*
G75*
G02*
X66256250Y-148400000I-218750J0D01*
G01*
G37*
G36*
G01*
X66256250Y-149975000D02*
X65743750Y-149975000D01*
G75*
G02*
X65525000Y-149756250I0J218750D01*
G01*
X65525000Y-149318750D01*
G75*
G02*
X65743750Y-149100000I218750J0D01*
G01*
X66256250Y-149100000D01*
G75*
G02*
X66475000Y-149318750I0J-218750D01*
G01*
X66475000Y-149756250D01*
G75*
G02*
X66256250Y-149975000I-218750J0D01*
G01*
G37*
%TD*%
%TO.C,R24*%
G36*
G01*
X65600000Y-140118750D02*
X65600000Y-140631250D01*
G75*
G02*
X65381250Y-140850000I-218750J0D01*
G01*
X64943750Y-140850000D01*
G75*
G02*
X64725000Y-140631250I0J218750D01*
G01*
X64725000Y-140118750D01*
G75*
G02*
X64943750Y-139900000I218750J0D01*
G01*
X65381250Y-139900000D01*
G75*
G02*
X65600000Y-140118750I0J-218750D01*
G01*
G37*
G36*
G01*
X67175000Y-140118750D02*
X67175000Y-140631250D01*
G75*
G02*
X66956250Y-140850000I-218750J0D01*
G01*
X66518750Y-140850000D01*
G75*
G02*
X66300000Y-140631250I0J218750D01*
G01*
X66300000Y-140118750D01*
G75*
G02*
X66518750Y-139900000I218750J0D01*
G01*
X66956250Y-139900000D01*
G75*
G02*
X67175000Y-140118750I0J-218750D01*
G01*
G37*
%TD*%
%TO.C,D3*%
G36*
G01*
X46607750Y-119952000D02*
X47120250Y-119952000D01*
G75*
G02*
X47339000Y-120170750I0J-218750D01*
G01*
X47339000Y-120608250D01*
G75*
G02*
X47120250Y-120827000I-218750J0D01*
G01*
X46607750Y-120827000D01*
G75*
G02*
X46389000Y-120608250I0J218750D01*
G01*
X46389000Y-120170750D01*
G75*
G02*
X46607750Y-119952000I218750J0D01*
G01*
G37*
G36*
G01*
X46607750Y-118377000D02*
X47120250Y-118377000D01*
G75*
G02*
X47339000Y-118595750I0J-218750D01*
G01*
X47339000Y-119033250D01*
G75*
G02*
X47120250Y-119252000I-218750J0D01*
G01*
X46607750Y-119252000D01*
G75*
G02*
X46389000Y-119033250I0J218750D01*
G01*
X46389000Y-118595750D01*
G75*
G02*
X46607750Y-118377000I218750J0D01*
G01*
G37*
%TD*%
%TO.C,D4*%
G36*
G01*
X48227084Y-119952000D02*
X48739584Y-119952000D01*
G75*
G02*
X48958334Y-120170750I0J-218750D01*
G01*
X48958334Y-120608250D01*
G75*
G02*
X48739584Y-120827000I-218750J0D01*
G01*
X48227084Y-120827000D01*
G75*
G02*
X48008334Y-120608250I0J218750D01*
G01*
X48008334Y-120170750D01*
G75*
G02*
X48227084Y-119952000I218750J0D01*
G01*
G37*
G36*
G01*
X48227084Y-118377000D02*
X48739584Y-118377000D01*
G75*
G02*
X48958334Y-118595750I0J-218750D01*
G01*
X48958334Y-119033250D01*
G75*
G02*
X48739584Y-119252000I-218750J0D01*
G01*
X48227084Y-119252000D01*
G75*
G02*
X48008334Y-119033250I0J218750D01*
G01*
X48008334Y-118595750D01*
G75*
G02*
X48227084Y-118377000I218750J0D01*
G01*
G37*
%TD*%
%TO.C,D5*%
G36*
G01*
X49846417Y-119952000D02*
X50358917Y-119952000D01*
G75*
G02*
X50577667Y-120170750I0J-218750D01*
G01*
X50577667Y-120608250D01*
G75*
G02*
X50358917Y-120827000I-218750J0D01*
G01*
X49846417Y-120827000D01*
G75*
G02*
X49627667Y-120608250I0J218750D01*
G01*
X49627667Y-120170750D01*
G75*
G02*
X49846417Y-119952000I218750J0D01*
G01*
G37*
G36*
G01*
X49846417Y-118377000D02*
X50358917Y-118377000D01*
G75*
G02*
X50577667Y-118595750I0J-218750D01*
G01*
X50577667Y-119033250D01*
G75*
G02*
X50358917Y-119252000I-218750J0D01*
G01*
X49846417Y-119252000D01*
G75*
G02*
X49627667Y-119033250I0J218750D01*
G01*
X49627667Y-118595750D01*
G75*
G02*
X49846417Y-118377000I218750J0D01*
G01*
G37*
%TD*%
%TO.C,D6*%
G36*
G01*
X51465750Y-119952000D02*
X51978250Y-119952000D01*
G75*
G02*
X52197000Y-120170750I0J-218750D01*
G01*
X52197000Y-120608250D01*
G75*
G02*
X51978250Y-120827000I-218750J0D01*
G01*
X51465750Y-120827000D01*
G75*
G02*
X51247000Y-120608250I0J218750D01*
G01*
X51247000Y-120170750D01*
G75*
G02*
X51465750Y-119952000I218750J0D01*
G01*
G37*
G36*
G01*
X51465750Y-118377000D02*
X51978250Y-118377000D01*
G75*
G02*
X52197000Y-118595750I0J-218750D01*
G01*
X52197000Y-119033250D01*
G75*
G02*
X51978250Y-119252000I-218750J0D01*
G01*
X51465750Y-119252000D01*
G75*
G02*
X51247000Y-119033250I0J218750D01*
G01*
X51247000Y-118595750D01*
G75*
G02*
X51465750Y-118377000I218750J0D01*
G01*
G37*
%TD*%
%TO.C,C7*%
G36*
G01*
X64337500Y-133080000D02*
X64682500Y-133080000D01*
G75*
G02*
X64830000Y-133227500I0J-147500D01*
G01*
X64830000Y-133522500D01*
G75*
G02*
X64682500Y-133670000I-147500J0D01*
G01*
X64337500Y-133670000D01*
G75*
G02*
X64190000Y-133522500I0J147500D01*
G01*
X64190000Y-133227500D01*
G75*
G02*
X64337500Y-133080000I147500J0D01*
G01*
G37*
G36*
G01*
X64337500Y-132110000D02*
X64682500Y-132110000D01*
G75*
G02*
X64830000Y-132257500I0J-147500D01*
G01*
X64830000Y-132552500D01*
G75*
G02*
X64682500Y-132700000I-147500J0D01*
G01*
X64337500Y-132700000D01*
G75*
G02*
X64190000Y-132552500I0J147500D01*
G01*
X64190000Y-132257500D01*
G75*
G02*
X64337500Y-132110000I147500J0D01*
G01*
G37*
%TD*%
%TO.C,C10*%
G36*
G01*
X70545000Y-154905000D02*
X71795000Y-154905000D01*
G75*
G02*
X72045000Y-155155000I0J-250000D01*
G01*
X72045000Y-155905000D01*
G75*
G02*
X71795000Y-156155000I-250000J0D01*
G01*
X70545000Y-156155000D01*
G75*
G02*
X70295000Y-155905000I0J250000D01*
G01*
X70295000Y-155155000D01*
G75*
G02*
X70545000Y-154905000I250000J0D01*
G01*
G37*
G36*
G01*
X70545000Y-152105000D02*
X71795000Y-152105000D01*
G75*
G02*
X72045000Y-152355000I0J-250000D01*
G01*
X72045000Y-153105000D01*
G75*
G02*
X71795000Y-153355000I-250000J0D01*
G01*
X70545000Y-153355000D01*
G75*
G02*
X70295000Y-153105000I0J250000D01*
G01*
X70295000Y-152355000D01*
G75*
G02*
X70545000Y-152105000I250000J0D01*
G01*
G37*
%TD*%
%TO.C,C1*%
G36*
G01*
X74035000Y-148785000D02*
X72785000Y-148785000D01*
G75*
G02*
X72535000Y-148535000I0J250000D01*
G01*
X72535000Y-147785000D01*
G75*
G02*
X72785000Y-147535000I250000J0D01*
G01*
X74035000Y-147535000D01*
G75*
G02*
X74285000Y-147785000I0J-250000D01*
G01*
X74285000Y-148535000D01*
G75*
G02*
X74035000Y-148785000I-250000J0D01*
G01*
G37*
G36*
G01*
X74035000Y-151585000D02*
X72785000Y-151585000D01*
G75*
G02*
X72535000Y-151335000I0J250000D01*
G01*
X72535000Y-150585000D01*
G75*
G02*
X72785000Y-150335000I250000J0D01*
G01*
X74035000Y-150335000D01*
G75*
G02*
X74285000Y-150585000I0J-250000D01*
G01*
X74285000Y-151335000D01*
G75*
G02*
X74035000Y-151585000I-250000J0D01*
G01*
G37*
%TD*%
%TO.C,C8*%
G36*
G01*
X72785000Y-154905000D02*
X74035000Y-154905000D01*
G75*
G02*
X74285000Y-155155000I0J-250000D01*
G01*
X74285000Y-155905000D01*
G75*
G02*
X74035000Y-156155000I-250000J0D01*
G01*
X72785000Y-156155000D01*
G75*
G02*
X72535000Y-155905000I0J250000D01*
G01*
X72535000Y-155155000D01*
G75*
G02*
X72785000Y-154905000I250000J0D01*
G01*
G37*
G36*
G01*
X72785000Y-152105000D02*
X74035000Y-152105000D01*
G75*
G02*
X74285000Y-152355000I0J-250000D01*
G01*
X74285000Y-153105000D01*
G75*
G02*
X74035000Y-153355000I-250000J0D01*
G01*
X72785000Y-153355000D01*
G75*
G02*
X72535000Y-153105000I0J250000D01*
G01*
X72535000Y-152355000D01*
G75*
G02*
X72785000Y-152105000I250000J0D01*
G01*
G37*
%TD*%
%TO.C,C5*%
G36*
G01*
X71795000Y-148785000D02*
X70545000Y-148785000D01*
G75*
G02*
X70295000Y-148535000I0J250000D01*
G01*
X70295000Y-147785000D01*
G75*
G02*
X70545000Y-147535000I250000J0D01*
G01*
X71795000Y-147535000D01*
G75*
G02*
X72045000Y-147785000I0J-250000D01*
G01*
X72045000Y-148535000D01*
G75*
G02*
X71795000Y-148785000I-250000J0D01*
G01*
G37*
G36*
G01*
X71795000Y-151585000D02*
X70545000Y-151585000D01*
G75*
G02*
X70295000Y-151335000I0J250000D01*
G01*
X70295000Y-150585000D01*
G75*
G02*
X70545000Y-150335000I250000J0D01*
G01*
X71795000Y-150335000D01*
G75*
G02*
X72045000Y-150585000I0J-250000D01*
G01*
X72045000Y-151335000D01*
G75*
G02*
X71795000Y-151585000I-250000J0D01*
G01*
G37*
%TD*%
%TO.C,R1*%
G36*
G01*
X76175000Y-147795000D02*
X76175000Y-149945000D01*
G75*
G02*
X75925000Y-150195000I-250000J0D01*
G01*
X75175000Y-150195000D01*
G75*
G02*
X74925000Y-149945000I0J250000D01*
G01*
X74925000Y-147795000D01*
G75*
G02*
X75175000Y-147545000I250000J0D01*
G01*
X75925000Y-147545000D01*
G75*
G02*
X76175000Y-147795000I0J-250000D01*
G01*
G37*
G36*
G01*
X78975000Y-147795000D02*
X78975000Y-149945000D01*
G75*
G02*
X78725000Y-150195000I-250000J0D01*
G01*
X77975000Y-150195000D01*
G75*
G02*
X77725000Y-149945000I0J250000D01*
G01*
X77725000Y-147795000D01*
G75*
G02*
X77975000Y-147545000I250000J0D01*
G01*
X78725000Y-147545000D01*
G75*
G02*
X78975000Y-147795000I0J-250000D01*
G01*
G37*
%TD*%
D15*
%TO.C,Q1*%
X81440000Y-149755000D03*
X82150000Y-149755000D03*
X82150000Y-148625000D03*
X81440000Y-148625000D03*
D16*
X79920000Y-150165000D03*
X79920000Y-148865000D03*
X79920000Y-149515000D03*
X79920000Y-148215000D03*
X82920000Y-150165000D03*
X82920000Y-149515000D03*
X82920000Y-148865000D03*
X82920000Y-148215000D03*
%TD*%
%TO.C,J1*%
G36*
G01*
X80060000Y-156200000D02*
X80060000Y-152250000D01*
G75*
G02*
X80310000Y-152000000I250000J0D01*
G01*
X83010000Y-152000000D01*
G75*
G02*
X83260000Y-152250000I0J-250000D01*
G01*
X83260000Y-156200000D01*
G75*
G02*
X83010000Y-156450000I-250000J0D01*
G01*
X80310000Y-156450000D01*
G75*
G02*
X80060000Y-156200000I0J250000D01*
G01*
G37*
G36*
G01*
X74860000Y-156200000D02*
X74860000Y-152250000D01*
G75*
G02*
X75110000Y-152000000I250000J0D01*
G01*
X77810000Y-152000000D01*
G75*
G02*
X78060000Y-152250000I0J-250000D01*
G01*
X78060000Y-156200000D01*
G75*
G02*
X77810000Y-156450000I-250000J0D01*
G01*
X75110000Y-156450000D01*
G75*
G02*
X74860000Y-156200000I0J250000D01*
G01*
G37*
%TD*%
%TO.C,R5*%
G36*
G01*
X80715000Y-144376250D02*
X80715000Y-143863750D01*
G75*
G02*
X80933750Y-143645000I218750J0D01*
G01*
X81371250Y-143645000D01*
G75*
G02*
X81590000Y-143863750I0J-218750D01*
G01*
X81590000Y-144376250D01*
G75*
G02*
X81371250Y-144595000I-218750J0D01*
G01*
X80933750Y-144595000D01*
G75*
G02*
X80715000Y-144376250I0J218750D01*
G01*
G37*
G36*
G01*
X82290000Y-144376250D02*
X82290000Y-143863750D01*
G75*
G02*
X82508750Y-143645000I218750J0D01*
G01*
X82946250Y-143645000D01*
G75*
G02*
X83165000Y-143863750I0J-218750D01*
G01*
X83165000Y-144376250D01*
G75*
G02*
X82946250Y-144595000I-218750J0D01*
G01*
X82508750Y-144595000D01*
G75*
G02*
X82290000Y-144376250I0J218750D01*
G01*
G37*
%TD*%
D17*
%TO.C,U1*%
X63250000Y-133000000D03*
X63250000Y-133500000D03*
X63250000Y-134000000D03*
X63250000Y-134500000D03*
X63250000Y-135000000D03*
X63250000Y-135500000D03*
X63250000Y-136000000D03*
X63250000Y-136500000D03*
X63250000Y-137000000D03*
X63250000Y-137500000D03*
X63250000Y-138000000D03*
X63250000Y-138500000D03*
X63250000Y-139000000D03*
X63250000Y-139500000D03*
X63250000Y-140000000D03*
X63250000Y-140500000D03*
D18*
X61300000Y-142450000D03*
X60800000Y-142450000D03*
X60300000Y-142450000D03*
X59800000Y-142450000D03*
X59300000Y-142450000D03*
X58800000Y-142450000D03*
X58300000Y-142450000D03*
X57800000Y-142450000D03*
X57300000Y-142450000D03*
X56800000Y-142450000D03*
X56300000Y-142450000D03*
X55800000Y-142450000D03*
X55300000Y-142450000D03*
X54800000Y-142450000D03*
X54300000Y-142450000D03*
X53800000Y-142450000D03*
D17*
X51850000Y-140500000D03*
X51850000Y-140000000D03*
X51850000Y-139500000D03*
X51850000Y-139000000D03*
X51850000Y-138500000D03*
X51850000Y-138000000D03*
X51850000Y-137500000D03*
X51850000Y-137000000D03*
X51850000Y-136500000D03*
X51850000Y-136000000D03*
X51850000Y-135500000D03*
X51850000Y-135000000D03*
X51850000Y-134500000D03*
X51850000Y-134000000D03*
X51850000Y-133500000D03*
X51850000Y-133000000D03*
D18*
X53800000Y-131050000D03*
X54300000Y-131050000D03*
X54800000Y-131050000D03*
X55300000Y-131050000D03*
X55800000Y-131050000D03*
X56300000Y-131050000D03*
X56800000Y-131050000D03*
X57300000Y-131050000D03*
X57800000Y-131050000D03*
X58300000Y-131050000D03*
X58800000Y-131050000D03*
X59300000Y-131050000D03*
X59800000Y-131050000D03*
X60300000Y-131050000D03*
X60800000Y-131050000D03*
X61300000Y-131050000D03*
%TD*%
D19*
%TO.C,U3*%
X70975000Y-139573000D03*
X71475000Y-139573000D03*
D20*
X70060000Y-139988000D03*
D19*
X70975000Y-142403000D03*
D20*
X72390000Y-141988000D03*
D19*
X71475000Y-142403000D03*
D20*
X70060000Y-140488000D03*
X70060000Y-140988000D03*
X70060000Y-141488000D03*
X70060000Y-141988000D03*
X72390000Y-141488000D03*
X72390000Y-140988000D03*
X72390000Y-140488000D03*
X72390000Y-139988000D03*
D21*
X71225000Y-140625500D03*
X71225000Y-141350500D03*
%TD*%
%TO.C,C29*%
G36*
G01*
X44626250Y-118920000D02*
X43713750Y-118920000D01*
G75*
G02*
X43470000Y-118676250I0J243750D01*
G01*
X43470000Y-118188750D01*
G75*
G02*
X43713750Y-117945000I243750J0D01*
G01*
X44626250Y-117945000D01*
G75*
G02*
X44870000Y-118188750I0J-243750D01*
G01*
X44870000Y-118676250D01*
G75*
G02*
X44626250Y-118920000I-243750J0D01*
G01*
G37*
G36*
G01*
X44626250Y-120795000D02*
X43713750Y-120795000D01*
G75*
G02*
X43470000Y-120551250I0J243750D01*
G01*
X43470000Y-120063750D01*
G75*
G02*
X43713750Y-119820000I243750J0D01*
G01*
X44626250Y-119820000D01*
G75*
G02*
X44870000Y-120063750I0J-243750D01*
G01*
X44870000Y-120551250D01*
G75*
G02*
X44626250Y-120795000I-243750J0D01*
G01*
G37*
%TD*%
%TO.C,C34*%
G36*
G01*
X43023750Y-127020000D02*
X43936250Y-127020000D01*
G75*
G02*
X44180000Y-127263750I0J-243750D01*
G01*
X44180000Y-127751250D01*
G75*
G02*
X43936250Y-127995000I-243750J0D01*
G01*
X43023750Y-127995000D01*
G75*
G02*
X42780000Y-127751250I0J243750D01*
G01*
X42780000Y-127263750D01*
G75*
G02*
X43023750Y-127020000I243750J0D01*
G01*
G37*
G36*
G01*
X43023750Y-125145000D02*
X43936250Y-125145000D01*
G75*
G02*
X44180000Y-125388750I0J-243750D01*
G01*
X44180000Y-125876250D01*
G75*
G02*
X43936250Y-126120000I-243750J0D01*
G01*
X43023750Y-126120000D01*
G75*
G02*
X42780000Y-125876250I0J243750D01*
G01*
X42780000Y-125388750D01*
G75*
G02*
X43023750Y-125145000I243750J0D01*
G01*
G37*
%TD*%
D22*
%TO.C,SW1*%
X55625000Y-117645000D03*
X55625000Y-121795000D03*
X53475000Y-117645000D03*
X53475000Y-121795000D03*
%TD*%
D23*
%TO.C,U9*%
X45160000Y-124080000D03*
X43260000Y-124080000D03*
X43260000Y-121880000D03*
X44210000Y-121880000D03*
X45160000Y-121880000D03*
%TD*%
D24*
%TO.C,U2*%
X80750000Y-135476500D03*
X80750000Y-133576500D03*
X82950000Y-133576500D03*
X82950000Y-134526500D03*
X82950000Y-135476500D03*
%TD*%
D22*
%TO.C,SW2*%
X53475000Y-127540000D03*
X53475000Y-123390000D03*
X55625000Y-127540000D03*
X55625000Y-123390000D03*
%TD*%
%TO.C,R11*%
G36*
G01*
X75682000Y-132831750D02*
X75682000Y-133344250D01*
G75*
G02*
X75463250Y-133563000I-218750J0D01*
G01*
X75025750Y-133563000D01*
G75*
G02*
X74807000Y-133344250I0J218750D01*
G01*
X74807000Y-132831750D01*
G75*
G02*
X75025750Y-132613000I218750J0D01*
G01*
X75463250Y-132613000D01*
G75*
G02*
X75682000Y-132831750I0J-218750D01*
G01*
G37*
G36*
G01*
X77257000Y-132831750D02*
X77257000Y-133344250D01*
G75*
G02*
X77038250Y-133563000I-218750J0D01*
G01*
X76600750Y-133563000D01*
G75*
G02*
X76382000Y-133344250I0J218750D01*
G01*
X76382000Y-132831750D01*
G75*
G02*
X76600750Y-132613000I218750J0D01*
G01*
X77038250Y-132613000D01*
G75*
G02*
X77257000Y-132831750I0J-218750D01*
G01*
G37*
%TD*%
D25*
%TO.C,Q3*%
X75000000Y-135628000D03*
X77000000Y-134678000D03*
X77000000Y-136578000D03*
%TD*%
%TO.C,C28*%
G36*
G01*
X79582500Y-139288000D02*
X79237500Y-139288000D01*
G75*
G02*
X79090000Y-139140500I0J147500D01*
G01*
X79090000Y-138845500D01*
G75*
G02*
X79237500Y-138698000I147500J0D01*
G01*
X79582500Y-138698000D01*
G75*
G02*
X79730000Y-138845500I0J-147500D01*
G01*
X79730000Y-139140500D01*
G75*
G02*
X79582500Y-139288000I-147500J0D01*
G01*
G37*
G36*
G01*
X79582500Y-140258000D02*
X79237500Y-140258000D01*
G75*
G02*
X79090000Y-140110500I0J147500D01*
G01*
X79090000Y-139815500D01*
G75*
G02*
X79237500Y-139668000I147500J0D01*
G01*
X79582500Y-139668000D01*
G75*
G02*
X79730000Y-139815500I0J-147500D01*
G01*
X79730000Y-140110500D01*
G75*
G02*
X79582500Y-140258000I-147500J0D01*
G01*
G37*
%TD*%
%TO.C,C23*%
G36*
G01*
X78590000Y-136775500D02*
X78590000Y-137120500D01*
G75*
G02*
X78442500Y-137268000I-147500J0D01*
G01*
X78147500Y-137268000D01*
G75*
G02*
X78000000Y-137120500I0J147500D01*
G01*
X78000000Y-136775500D01*
G75*
G02*
X78147500Y-136628000I147500J0D01*
G01*
X78442500Y-136628000D01*
G75*
G02*
X78590000Y-136775500I0J-147500D01*
G01*
G37*
G36*
G01*
X79560000Y-136775500D02*
X79560000Y-137120500D01*
G75*
G02*
X79412500Y-137268000I-147500J0D01*
G01*
X79117500Y-137268000D01*
G75*
G02*
X78970000Y-137120500I0J147500D01*
G01*
X78970000Y-136775500D01*
G75*
G02*
X79117500Y-136628000I147500J0D01*
G01*
X79412500Y-136628000D01*
G75*
G02*
X79560000Y-136775500I0J-147500D01*
G01*
G37*
%TD*%
%TO.C,C22*%
G36*
G01*
X79582500Y-141358000D02*
X79237500Y-141358000D01*
G75*
G02*
X79090000Y-141210500I0J147500D01*
G01*
X79090000Y-140915500D01*
G75*
G02*
X79237500Y-140768000I147500J0D01*
G01*
X79582500Y-140768000D01*
G75*
G02*
X79730000Y-140915500I0J-147500D01*
G01*
X79730000Y-141210500D01*
G75*
G02*
X79582500Y-141358000I-147500J0D01*
G01*
G37*
G36*
G01*
X79582500Y-142328000D02*
X79237500Y-142328000D01*
G75*
G02*
X79090000Y-142180500I0J147500D01*
G01*
X79090000Y-141885500D01*
G75*
G02*
X79237500Y-141738000I147500J0D01*
G01*
X79582500Y-141738000D01*
G75*
G02*
X79730000Y-141885500I0J-147500D01*
G01*
X79730000Y-142180500D01*
G75*
G02*
X79582500Y-142328000I-147500J0D01*
G01*
G37*
%TD*%
%TO.C,C21*%
G36*
G01*
X43252500Y-152515000D02*
X43597500Y-152515000D01*
G75*
G02*
X43745000Y-152662500I0J-147500D01*
G01*
X43745000Y-152957500D01*
G75*
G02*
X43597500Y-153105000I-147500J0D01*
G01*
X43252500Y-153105000D01*
G75*
G02*
X43105000Y-152957500I0J147500D01*
G01*
X43105000Y-152662500D01*
G75*
G02*
X43252500Y-152515000I147500J0D01*
G01*
G37*
G36*
G01*
X43252500Y-151545000D02*
X43597500Y-151545000D01*
G75*
G02*
X43745000Y-151692500I0J-147500D01*
G01*
X43745000Y-151987500D01*
G75*
G02*
X43597500Y-152135000I-147500J0D01*
G01*
X43252500Y-152135000D01*
G75*
G02*
X43105000Y-151987500I0J147500D01*
G01*
X43105000Y-151692500D01*
G75*
G02*
X43252500Y-151545000I147500J0D01*
G01*
G37*
%TD*%
%TO.C,C18*%
G36*
G01*
X48777500Y-151390000D02*
X49122500Y-151390000D01*
G75*
G02*
X49270000Y-151537500I0J-147500D01*
G01*
X49270000Y-151832500D01*
G75*
G02*
X49122500Y-151980000I-147500J0D01*
G01*
X48777500Y-151980000D01*
G75*
G02*
X48630000Y-151832500I0J147500D01*
G01*
X48630000Y-151537500D01*
G75*
G02*
X48777500Y-151390000I147500J0D01*
G01*
G37*
G36*
G01*
X48777500Y-150420000D02*
X49122500Y-150420000D01*
G75*
G02*
X49270000Y-150567500I0J-147500D01*
G01*
X49270000Y-150862500D01*
G75*
G02*
X49122500Y-151010000I-147500J0D01*
G01*
X48777500Y-151010000D01*
G75*
G02*
X48630000Y-150862500I0J147500D01*
G01*
X48630000Y-150567500D01*
G75*
G02*
X48777500Y-150420000I147500J0D01*
G01*
G37*
%TD*%
%TO.C,C12*%
G36*
G01*
X82661000Y-138193500D02*
X82661000Y-137848500D01*
G75*
G02*
X82808500Y-137701000I147500J0D01*
G01*
X83103500Y-137701000D01*
G75*
G02*
X83251000Y-137848500I0J-147500D01*
G01*
X83251000Y-138193500D01*
G75*
G02*
X83103500Y-138341000I-147500J0D01*
G01*
X82808500Y-138341000D01*
G75*
G02*
X82661000Y-138193500I0J147500D01*
G01*
G37*
G36*
G01*
X83631000Y-138193500D02*
X83631000Y-137848500D01*
G75*
G02*
X83778500Y-137701000I147500J0D01*
G01*
X84073500Y-137701000D01*
G75*
G02*
X84221000Y-137848500I0J-147500D01*
G01*
X84221000Y-138193500D01*
G75*
G02*
X84073500Y-138341000I-147500J0D01*
G01*
X83778500Y-138341000D01*
G75*
G02*
X83631000Y-138193500I0J147500D01*
G01*
G37*
%TD*%
%TO.C,C11*%
G36*
G01*
X50722500Y-138385000D02*
X50377500Y-138385000D01*
G75*
G02*
X50230000Y-138237500I0J147500D01*
G01*
X50230000Y-137942500D01*
G75*
G02*
X50377500Y-137795000I147500J0D01*
G01*
X50722500Y-137795000D01*
G75*
G02*
X50870000Y-137942500I0J-147500D01*
G01*
X50870000Y-138237500D01*
G75*
G02*
X50722500Y-138385000I-147500J0D01*
G01*
G37*
G36*
G01*
X50722500Y-139355000D02*
X50377500Y-139355000D01*
G75*
G02*
X50230000Y-139207500I0J147500D01*
G01*
X50230000Y-138912500D01*
G75*
G02*
X50377500Y-138765000I147500J0D01*
G01*
X50722500Y-138765000D01*
G75*
G02*
X50870000Y-138912500I0J-147500D01*
G01*
X50870000Y-139207500D01*
G75*
G02*
X50722500Y-139355000I-147500J0D01*
G01*
G37*
%TD*%
%TO.C,C31*%
G36*
G01*
X45985000Y-141527500D02*
X45985000Y-141872500D01*
G75*
G02*
X45837500Y-142020000I-147500J0D01*
G01*
X45542500Y-142020000D01*
G75*
G02*
X45395000Y-141872500I0J147500D01*
G01*
X45395000Y-141527500D01*
G75*
G02*
X45542500Y-141380000I147500J0D01*
G01*
X45837500Y-141380000D01*
G75*
G02*
X45985000Y-141527500I0J-147500D01*
G01*
G37*
G36*
G01*
X46955000Y-141527500D02*
X46955000Y-141872500D01*
G75*
G02*
X46807500Y-142020000I-147500J0D01*
G01*
X46512500Y-142020000D01*
G75*
G02*
X46365000Y-141872500I0J147500D01*
G01*
X46365000Y-141527500D01*
G75*
G02*
X46512500Y-141380000I147500J0D01*
G01*
X46807500Y-141380000D01*
G75*
G02*
X46955000Y-141527500I0J-147500D01*
G01*
G37*
%TD*%
%TO.C,C9*%
G36*
G01*
X62405000Y-143022500D02*
X62405000Y-142677500D01*
G75*
G02*
X62552500Y-142530000I147500J0D01*
G01*
X62847500Y-142530000D01*
G75*
G02*
X62995000Y-142677500I0J-147500D01*
G01*
X62995000Y-143022500D01*
G75*
G02*
X62847500Y-143170000I-147500J0D01*
G01*
X62552500Y-143170000D01*
G75*
G02*
X62405000Y-143022500I0J147500D01*
G01*
G37*
G36*
G01*
X63375000Y-143022500D02*
X63375000Y-142677500D01*
G75*
G02*
X63522500Y-142530000I147500J0D01*
G01*
X63817500Y-142530000D01*
G75*
G02*
X63965000Y-142677500I0J-147500D01*
G01*
X63965000Y-143022500D01*
G75*
G02*
X63817500Y-143170000I-147500J0D01*
G01*
X63522500Y-143170000D01*
G75*
G02*
X63375000Y-143022500I0J147500D01*
G01*
G37*
%TD*%
%TO.C,C6*%
G36*
G01*
X50722500Y-140310000D02*
X50377500Y-140310000D01*
G75*
G02*
X50230000Y-140162500I0J147500D01*
G01*
X50230000Y-139867500D01*
G75*
G02*
X50377500Y-139720000I147500J0D01*
G01*
X50722500Y-139720000D01*
G75*
G02*
X50870000Y-139867500I0J-147500D01*
G01*
X50870000Y-140162500D01*
G75*
G02*
X50722500Y-140310000I-147500J0D01*
G01*
G37*
G36*
G01*
X50722500Y-141280000D02*
X50377500Y-141280000D01*
G75*
G02*
X50230000Y-141132500I0J147500D01*
G01*
X50230000Y-140837500D01*
G75*
G02*
X50377500Y-140690000I147500J0D01*
G01*
X50722500Y-140690000D01*
G75*
G02*
X50870000Y-140837500I0J-147500D01*
G01*
X50870000Y-141132500D01*
G75*
G02*
X50722500Y-141280000I-147500J0D01*
G01*
G37*
%TD*%
%TO.C,C3*%
G36*
G01*
X61782500Y-125155000D02*
X61437500Y-125155000D01*
G75*
G02*
X61290000Y-125007500I0J147500D01*
G01*
X61290000Y-124712500D01*
G75*
G02*
X61437500Y-124565000I147500J0D01*
G01*
X61782500Y-124565000D01*
G75*
G02*
X61930000Y-124712500I0J-147500D01*
G01*
X61930000Y-125007500D01*
G75*
G02*
X61782500Y-125155000I-147500J0D01*
G01*
G37*
G36*
G01*
X61782500Y-126125000D02*
X61437500Y-126125000D01*
G75*
G02*
X61290000Y-125977500I0J147500D01*
G01*
X61290000Y-125682500D01*
G75*
G02*
X61437500Y-125535000I147500J0D01*
G01*
X61782500Y-125535000D01*
G75*
G02*
X61930000Y-125682500I0J-147500D01*
G01*
X61930000Y-125977500D01*
G75*
G02*
X61782500Y-126125000I-147500J0D01*
G01*
G37*
%TD*%
%TO.C,C4*%
G36*
G01*
X57282500Y-125155000D02*
X56937500Y-125155000D01*
G75*
G02*
X56790000Y-125007500I0J147500D01*
G01*
X56790000Y-124712500D01*
G75*
G02*
X56937500Y-124565000I147500J0D01*
G01*
X57282500Y-124565000D01*
G75*
G02*
X57430000Y-124712500I0J-147500D01*
G01*
X57430000Y-125007500D01*
G75*
G02*
X57282500Y-125155000I-147500J0D01*
G01*
G37*
G36*
G01*
X57282500Y-126125000D02*
X56937500Y-126125000D01*
G75*
G02*
X56790000Y-125977500I0J147500D01*
G01*
X56790000Y-125682500D01*
G75*
G02*
X56937500Y-125535000I147500J0D01*
G01*
X57282500Y-125535000D01*
G75*
G02*
X57430000Y-125682500I0J-147500D01*
G01*
X57430000Y-125977500D01*
G75*
G02*
X57282500Y-126125000I-147500J0D01*
G01*
G37*
%TD*%
%TO.C,C2*%
G36*
G01*
X51760000Y-130427500D02*
X51760000Y-130772500D01*
G75*
G02*
X51612500Y-130920000I-147500J0D01*
G01*
X51317500Y-130920000D01*
G75*
G02*
X51170000Y-130772500I0J147500D01*
G01*
X51170000Y-130427500D01*
G75*
G02*
X51317500Y-130280000I147500J0D01*
G01*
X51612500Y-130280000D01*
G75*
G02*
X51760000Y-130427500I0J-147500D01*
G01*
G37*
G36*
G01*
X52730000Y-130427500D02*
X52730000Y-130772500D01*
G75*
G02*
X52582500Y-130920000I-147500J0D01*
G01*
X52287500Y-130920000D01*
G75*
G02*
X52140000Y-130772500I0J147500D01*
G01*
X52140000Y-130427500D01*
G75*
G02*
X52287500Y-130280000I147500J0D01*
G01*
X52582500Y-130280000D01*
G75*
G02*
X52730000Y-130427500I0J-147500D01*
G01*
G37*
%TD*%
%TO.C,C20*%
G36*
G01*
X72370000Y-138810500D02*
X72370000Y-138465500D01*
G75*
G02*
X72517500Y-138318000I147500J0D01*
G01*
X72812500Y-138318000D01*
G75*
G02*
X72960000Y-138465500I0J-147500D01*
G01*
X72960000Y-138810500D01*
G75*
G02*
X72812500Y-138958000I-147500J0D01*
G01*
X72517500Y-138958000D01*
G75*
G02*
X72370000Y-138810500I0J147500D01*
G01*
G37*
G36*
G01*
X71400000Y-138810500D02*
X71400000Y-138465500D01*
G75*
G02*
X71547500Y-138318000I147500J0D01*
G01*
X71842500Y-138318000D01*
G75*
G02*
X71990000Y-138465500I0J-147500D01*
G01*
X71990000Y-138810500D01*
G75*
G02*
X71842500Y-138958000I-147500J0D01*
G01*
X71547500Y-138958000D01*
G75*
G02*
X71400000Y-138810500I0J147500D01*
G01*
G37*
%TD*%
%TO.C,C14*%
G36*
G01*
X70470000Y-138810500D02*
X70470000Y-138465500D01*
G75*
G02*
X70617500Y-138318000I147500J0D01*
G01*
X70912500Y-138318000D01*
G75*
G02*
X71060000Y-138465500I0J-147500D01*
G01*
X71060000Y-138810500D01*
G75*
G02*
X70912500Y-138958000I-147500J0D01*
G01*
X70617500Y-138958000D01*
G75*
G02*
X70470000Y-138810500I0J147500D01*
G01*
G37*
G36*
G01*
X69500000Y-138810500D02*
X69500000Y-138465500D01*
G75*
G02*
X69647500Y-138318000I147500J0D01*
G01*
X69942500Y-138318000D01*
G75*
G02*
X70090000Y-138465500I0J-147500D01*
G01*
X70090000Y-138810500D01*
G75*
G02*
X69942500Y-138958000I-147500J0D01*
G01*
X69647500Y-138958000D01*
G75*
G02*
X69500000Y-138810500I0J147500D01*
G01*
G37*
%TD*%
D26*
%TO.C,L2*%
X41525000Y-153725000D03*
X38475000Y-153725000D03*
%TD*%
%TO.C,D1*%
G36*
G01*
X53743750Y-151050000D02*
X54256250Y-151050000D01*
G75*
G02*
X54475000Y-151268750I0J-218750D01*
G01*
X54475000Y-151706250D01*
G75*
G02*
X54256250Y-151925000I-218750J0D01*
G01*
X53743750Y-151925000D01*
G75*
G02*
X53525000Y-151706250I0J218750D01*
G01*
X53525000Y-151268750D01*
G75*
G02*
X53743750Y-151050000I218750J0D01*
G01*
G37*
G36*
G01*
X53743750Y-149475000D02*
X54256250Y-149475000D01*
G75*
G02*
X54475000Y-149693750I0J-218750D01*
G01*
X54475000Y-150131250D01*
G75*
G02*
X54256250Y-150350000I-218750J0D01*
G01*
X53743750Y-150350000D01*
G75*
G02*
X53525000Y-150131250I0J218750D01*
G01*
X53525000Y-149693750D01*
G75*
G02*
X53743750Y-149475000I218750J0D01*
G01*
G37*
%TD*%
%TO.C,R14*%
G36*
G01*
X52696250Y-147390000D02*
X52183750Y-147390000D01*
G75*
G02*
X51965000Y-147171250I0J218750D01*
G01*
X51965000Y-146733750D01*
G75*
G02*
X52183750Y-146515000I218750J0D01*
G01*
X52696250Y-146515000D01*
G75*
G02*
X52915000Y-146733750I0J-218750D01*
G01*
X52915000Y-147171250D01*
G75*
G02*
X52696250Y-147390000I-218750J0D01*
G01*
G37*
G36*
G01*
X52696250Y-148965000D02*
X52183750Y-148965000D01*
G75*
G02*
X51965000Y-148746250I0J218750D01*
G01*
X51965000Y-148308750D01*
G75*
G02*
X52183750Y-148090000I218750J0D01*
G01*
X52696250Y-148090000D01*
G75*
G02*
X52915000Y-148308750I0J-218750D01*
G01*
X52915000Y-148746250D01*
G75*
G02*
X52696250Y-148965000I-218750J0D01*
G01*
G37*
%TD*%
%TO.C,R13*%
G36*
G01*
X52706250Y-150350000D02*
X52193750Y-150350000D01*
G75*
G02*
X51975000Y-150131250I0J218750D01*
G01*
X51975000Y-149693750D01*
G75*
G02*
X52193750Y-149475000I218750J0D01*
G01*
X52706250Y-149475000D01*
G75*
G02*
X52925000Y-149693750I0J-218750D01*
G01*
X52925000Y-150131250D01*
G75*
G02*
X52706250Y-150350000I-218750J0D01*
G01*
G37*
G36*
G01*
X52706250Y-151925000D02*
X52193750Y-151925000D01*
G75*
G02*
X51975000Y-151706250I0J218750D01*
G01*
X51975000Y-151268750D01*
G75*
G02*
X52193750Y-151050000I218750J0D01*
G01*
X52706250Y-151050000D01*
G75*
G02*
X52925000Y-151268750I0J-218750D01*
G01*
X52925000Y-151706250D01*
G75*
G02*
X52706250Y-151925000I-218750J0D01*
G01*
G37*
%TD*%
%TO.C,C42*%
G36*
G01*
X38806250Y-118920000D02*
X37893750Y-118920000D01*
G75*
G02*
X37650000Y-118676250I0J243750D01*
G01*
X37650000Y-118188750D01*
G75*
G02*
X37893750Y-117945000I243750J0D01*
G01*
X38806250Y-117945000D01*
G75*
G02*
X39050000Y-118188750I0J-243750D01*
G01*
X39050000Y-118676250D01*
G75*
G02*
X38806250Y-118920000I-243750J0D01*
G01*
G37*
G36*
G01*
X38806250Y-120795000D02*
X37893750Y-120795000D01*
G75*
G02*
X37650000Y-120551250I0J243750D01*
G01*
X37650000Y-120063750D01*
G75*
G02*
X37893750Y-119820000I243750J0D01*
G01*
X38806250Y-119820000D01*
G75*
G02*
X39050000Y-120063750I0J-243750D01*
G01*
X39050000Y-120551250D01*
G75*
G02*
X38806250Y-120795000I-243750J0D01*
G01*
G37*
%TD*%
%TO.C,C41*%
G36*
G01*
X40706250Y-118920000D02*
X39793750Y-118920000D01*
G75*
G02*
X39550000Y-118676250I0J243750D01*
G01*
X39550000Y-118188750D01*
G75*
G02*
X39793750Y-117945000I243750J0D01*
G01*
X40706250Y-117945000D01*
G75*
G02*
X40950000Y-118188750I0J-243750D01*
G01*
X40950000Y-118676250D01*
G75*
G02*
X40706250Y-118920000I-243750J0D01*
G01*
G37*
G36*
G01*
X40706250Y-120795000D02*
X39793750Y-120795000D01*
G75*
G02*
X39550000Y-120551250I0J243750D01*
G01*
X39550000Y-120063750D01*
G75*
G02*
X39793750Y-119820000I243750J0D01*
G01*
X40706250Y-119820000D01*
G75*
G02*
X40950000Y-120063750I0J-243750D01*
G01*
X40950000Y-120551250D01*
G75*
G02*
X40706250Y-120795000I-243750J0D01*
G01*
G37*
%TD*%
%TO.C,C13*%
G36*
G01*
X85286250Y-134076500D02*
X84373750Y-134076500D01*
G75*
G02*
X84130000Y-133832750I0J243750D01*
G01*
X84130000Y-133345250D01*
G75*
G02*
X84373750Y-133101500I243750J0D01*
G01*
X85286250Y-133101500D01*
G75*
G02*
X85530000Y-133345250I0J-243750D01*
G01*
X85530000Y-133832750D01*
G75*
G02*
X85286250Y-134076500I-243750J0D01*
G01*
G37*
G36*
G01*
X85286250Y-135951500D02*
X84373750Y-135951500D01*
G75*
G02*
X84130000Y-135707750I0J243750D01*
G01*
X84130000Y-135220250D01*
G75*
G02*
X84373750Y-134976500I243750J0D01*
G01*
X85286250Y-134976500D01*
G75*
G02*
X85530000Y-135220250I0J-243750D01*
G01*
X85530000Y-135707750D01*
G75*
G02*
X85286250Y-135951500I-243750J0D01*
G01*
G37*
%TD*%
%TO.C,C40*%
G36*
G01*
X41000000Y-125456250D02*
X41000000Y-124543750D01*
G75*
G02*
X41243750Y-124300000I243750J0D01*
G01*
X41731250Y-124300000D01*
G75*
G02*
X41975000Y-124543750I0J-243750D01*
G01*
X41975000Y-125456250D01*
G75*
G02*
X41731250Y-125700000I-243750J0D01*
G01*
X41243750Y-125700000D01*
G75*
G02*
X41000000Y-125456250I0J243750D01*
G01*
G37*
G36*
G01*
X39125000Y-125456250D02*
X39125000Y-124543750D01*
G75*
G02*
X39368750Y-124300000I243750J0D01*
G01*
X39856250Y-124300000D01*
G75*
G02*
X40100000Y-124543750I0J-243750D01*
G01*
X40100000Y-125456250D01*
G75*
G02*
X39856250Y-125700000I-243750J0D01*
G01*
X39368750Y-125700000D01*
G75*
G02*
X39125000Y-125456250I0J243750D01*
G01*
G37*
%TD*%
%TO.C,C39*%
G36*
G01*
X41000000Y-123506250D02*
X41000000Y-122593750D01*
G75*
G02*
X41243750Y-122350000I243750J0D01*
G01*
X41731250Y-122350000D01*
G75*
G02*
X41975000Y-122593750I0J-243750D01*
G01*
X41975000Y-123506250D01*
G75*
G02*
X41731250Y-123750000I-243750J0D01*
G01*
X41243750Y-123750000D01*
G75*
G02*
X41000000Y-123506250I0J243750D01*
G01*
G37*
G36*
G01*
X39125000Y-123506250D02*
X39125000Y-122593750D01*
G75*
G02*
X39368750Y-122350000I243750J0D01*
G01*
X39856250Y-122350000D01*
G75*
G02*
X40100000Y-122593750I0J-243750D01*
G01*
X40100000Y-123506250D01*
G75*
G02*
X39856250Y-123750000I-243750J0D01*
G01*
X39368750Y-123750000D01*
G75*
G02*
X39125000Y-123506250I0J243750D01*
G01*
G37*
%TD*%
%TO.C,C38*%
G36*
G01*
X36675000Y-122593750D02*
X36675000Y-123506250D01*
G75*
G02*
X36431250Y-123750000I-243750J0D01*
G01*
X35943750Y-123750000D01*
G75*
G02*
X35700000Y-123506250I0J243750D01*
G01*
X35700000Y-122593750D01*
G75*
G02*
X35943750Y-122350000I243750J0D01*
G01*
X36431250Y-122350000D01*
G75*
G02*
X36675000Y-122593750I0J-243750D01*
G01*
G37*
G36*
G01*
X38550000Y-122593750D02*
X38550000Y-123506250D01*
G75*
G02*
X38306250Y-123750000I-243750J0D01*
G01*
X37818750Y-123750000D01*
G75*
G02*
X37575000Y-123506250I0J243750D01*
G01*
X37575000Y-122593750D01*
G75*
G02*
X37818750Y-122350000I243750J0D01*
G01*
X38306250Y-122350000D01*
G75*
G02*
X38550000Y-122593750I0J-243750D01*
G01*
G37*
%TD*%
%TO.C,C37*%
G36*
G01*
X36675000Y-124548750D02*
X36675000Y-125461250D01*
G75*
G02*
X36431250Y-125705000I-243750J0D01*
G01*
X35943750Y-125705000D01*
G75*
G02*
X35700000Y-125461250I0J243750D01*
G01*
X35700000Y-124548750D01*
G75*
G02*
X35943750Y-124305000I243750J0D01*
G01*
X36431250Y-124305000D01*
G75*
G02*
X36675000Y-124548750I0J-243750D01*
G01*
G37*
G36*
G01*
X38550000Y-124548750D02*
X38550000Y-125461250D01*
G75*
G02*
X38306250Y-125705000I-243750J0D01*
G01*
X37818750Y-125705000D01*
G75*
G02*
X37575000Y-125461250I0J243750D01*
G01*
X37575000Y-124548750D01*
G75*
G02*
X37818750Y-124305000I243750J0D01*
G01*
X38306250Y-124305000D01*
G75*
G02*
X38550000Y-124548750I0J-243750D01*
G01*
G37*
%TD*%
%TO.C,C36*%
G36*
G01*
X36675000Y-149943750D02*
X36675000Y-150856250D01*
G75*
G02*
X36431250Y-151100000I-243750J0D01*
G01*
X35943750Y-151100000D01*
G75*
G02*
X35700000Y-150856250I0J243750D01*
G01*
X35700000Y-149943750D01*
G75*
G02*
X35943750Y-149700000I243750J0D01*
G01*
X36431250Y-149700000D01*
G75*
G02*
X36675000Y-149943750I0J-243750D01*
G01*
G37*
G36*
G01*
X38550000Y-149943750D02*
X38550000Y-150856250D01*
G75*
G02*
X38306250Y-151100000I-243750J0D01*
G01*
X37818750Y-151100000D01*
G75*
G02*
X37575000Y-150856250I0J243750D01*
G01*
X37575000Y-149943750D01*
G75*
G02*
X37818750Y-149700000I243750J0D01*
G01*
X38306250Y-149700000D01*
G75*
G02*
X38550000Y-149943750I0J-243750D01*
G01*
G37*
%TD*%
%TO.C,C35*%
G36*
G01*
X41000000Y-150856250D02*
X41000000Y-149943750D01*
G75*
G02*
X41243750Y-149700000I243750J0D01*
G01*
X41731250Y-149700000D01*
G75*
G02*
X41975000Y-149943750I0J-243750D01*
G01*
X41975000Y-150856250D01*
G75*
G02*
X41731250Y-151100000I-243750J0D01*
G01*
X41243750Y-151100000D01*
G75*
G02*
X41000000Y-150856250I0J243750D01*
G01*
G37*
G36*
G01*
X39125000Y-150856250D02*
X39125000Y-149943750D01*
G75*
G02*
X39368750Y-149700000I243750J0D01*
G01*
X39856250Y-149700000D01*
G75*
G02*
X40100000Y-149943750I0J-243750D01*
G01*
X40100000Y-150856250D01*
G75*
G02*
X39856250Y-151100000I-243750J0D01*
G01*
X39368750Y-151100000D01*
G75*
G02*
X39125000Y-150856250I0J243750D01*
G01*
G37*
%TD*%
%TO.C,R3*%
G36*
G01*
X44750000Y-149556250D02*
X44750000Y-149043750D01*
G75*
G02*
X44968750Y-148825000I218750J0D01*
G01*
X45406250Y-148825000D01*
G75*
G02*
X45625000Y-149043750I0J-218750D01*
G01*
X45625000Y-149556250D01*
G75*
G02*
X45406250Y-149775000I-218750J0D01*
G01*
X44968750Y-149775000D01*
G75*
G02*
X44750000Y-149556250I0J218750D01*
G01*
G37*
G36*
G01*
X43175000Y-149556250D02*
X43175000Y-149043750D01*
G75*
G02*
X43393750Y-148825000I218750J0D01*
G01*
X43831250Y-148825000D01*
G75*
G02*
X44050000Y-149043750I0J-218750D01*
G01*
X44050000Y-149556250D01*
G75*
G02*
X43831250Y-149775000I-218750J0D01*
G01*
X43393750Y-149775000D01*
G75*
G02*
X43175000Y-149556250I0J218750D01*
G01*
G37*
%TD*%
D27*
%TO.C,U5*%
X45395000Y-151175000D03*
X46045000Y-151175000D03*
X46705000Y-151175000D03*
X47355000Y-151175000D03*
X47355000Y-153375000D03*
X46705000Y-153375000D03*
X46045000Y-153375000D03*
X45395000Y-153375000D03*
%TD*%
%TO.C,R17*%
G36*
G01*
X57700000Y-144581250D02*
X57700000Y-144068750D01*
G75*
G02*
X57918750Y-143850000I218750J0D01*
G01*
X58356250Y-143850000D01*
G75*
G02*
X58575000Y-144068750I0J-218750D01*
G01*
X58575000Y-144581250D01*
G75*
G02*
X58356250Y-144800000I-218750J0D01*
G01*
X57918750Y-144800000D01*
G75*
G02*
X57700000Y-144581250I0J218750D01*
G01*
G37*
G36*
G01*
X56125000Y-144581250D02*
X56125000Y-144068750D01*
G75*
G02*
X56343750Y-143850000I218750J0D01*
G01*
X56781250Y-143850000D01*
G75*
G02*
X57000000Y-144068750I0J-218750D01*
G01*
X57000000Y-144581250D01*
G75*
G02*
X56781250Y-144800000I-218750J0D01*
G01*
X56343750Y-144800000D01*
G75*
G02*
X56125000Y-144581250I0J218750D01*
G01*
G37*
%TD*%
%TO.C,R10*%
G36*
G01*
X47100000Y-149043750D02*
X47100000Y-149556250D01*
G75*
G02*
X46881250Y-149775000I-218750J0D01*
G01*
X46443750Y-149775000D01*
G75*
G02*
X46225000Y-149556250I0J218750D01*
G01*
X46225000Y-149043750D01*
G75*
G02*
X46443750Y-148825000I218750J0D01*
G01*
X46881250Y-148825000D01*
G75*
G02*
X47100000Y-149043750I0J-218750D01*
G01*
G37*
G36*
G01*
X48675000Y-149043750D02*
X48675000Y-149556250D01*
G75*
G02*
X48456250Y-149775000I-218750J0D01*
G01*
X48018750Y-149775000D01*
G75*
G02*
X47800000Y-149556250I0J218750D01*
G01*
X47800000Y-149043750D01*
G75*
G02*
X48018750Y-148825000I218750J0D01*
G01*
X48456250Y-148825000D01*
G75*
G02*
X48675000Y-149043750I0J-218750D01*
G01*
G37*
%TD*%
%TO.C,R9*%
G36*
G01*
X45520000Y-147523750D02*
X45520000Y-148036250D01*
G75*
G02*
X45301250Y-148255000I-218750J0D01*
G01*
X44863750Y-148255000D01*
G75*
G02*
X44645000Y-148036250I0J218750D01*
G01*
X44645000Y-147523750D01*
G75*
G02*
X44863750Y-147305000I218750J0D01*
G01*
X45301250Y-147305000D01*
G75*
G02*
X45520000Y-147523750I0J-218750D01*
G01*
G37*
G36*
G01*
X47095000Y-147523750D02*
X47095000Y-148036250D01*
G75*
G02*
X46876250Y-148255000I-218750J0D01*
G01*
X46438750Y-148255000D01*
G75*
G02*
X46220000Y-148036250I0J218750D01*
G01*
X46220000Y-147523750D01*
G75*
G02*
X46438750Y-147305000I218750J0D01*
G01*
X46876250Y-147305000D01*
G75*
G02*
X47095000Y-147523750I0J-218750D01*
G01*
G37*
%TD*%
%TO.C,C27*%
G36*
G01*
X41000000Y-148906250D02*
X41000000Y-147993750D01*
G75*
G02*
X41243750Y-147750000I243750J0D01*
G01*
X41731250Y-147750000D01*
G75*
G02*
X41975000Y-147993750I0J-243750D01*
G01*
X41975000Y-148906250D01*
G75*
G02*
X41731250Y-149150000I-243750J0D01*
G01*
X41243750Y-149150000D01*
G75*
G02*
X41000000Y-148906250I0J243750D01*
G01*
G37*
G36*
G01*
X39125000Y-148906250D02*
X39125000Y-147993750D01*
G75*
G02*
X39368750Y-147750000I243750J0D01*
G01*
X39856250Y-147750000D01*
G75*
G02*
X40100000Y-147993750I0J-243750D01*
G01*
X40100000Y-148906250D01*
G75*
G02*
X39856250Y-149150000I-243750J0D01*
G01*
X39368750Y-149150000D01*
G75*
G02*
X39125000Y-148906250I0J243750D01*
G01*
G37*
%TD*%
%TO.C,C25*%
G36*
G01*
X36675000Y-147993750D02*
X36675000Y-148906250D01*
G75*
G02*
X36431250Y-149150000I-243750J0D01*
G01*
X35943750Y-149150000D01*
G75*
G02*
X35700000Y-148906250I0J243750D01*
G01*
X35700000Y-147993750D01*
G75*
G02*
X35943750Y-147750000I243750J0D01*
G01*
X36431250Y-147750000D01*
G75*
G02*
X36675000Y-147993750I0J-243750D01*
G01*
G37*
G36*
G01*
X38550000Y-147993750D02*
X38550000Y-148906250D01*
G75*
G02*
X38306250Y-149150000I-243750J0D01*
G01*
X37818750Y-149150000D01*
G75*
G02*
X37575000Y-148906250I0J243750D01*
G01*
X37575000Y-147993750D01*
G75*
G02*
X37818750Y-147750000I243750J0D01*
G01*
X38306250Y-147750000D01*
G75*
G02*
X38550000Y-147993750I0J-243750D01*
G01*
G37*
%TD*%
%TO.C,C19*%
G36*
G01*
X79326250Y-134076500D02*
X78413750Y-134076500D01*
G75*
G02*
X78170000Y-133832750I0J243750D01*
G01*
X78170000Y-133345250D01*
G75*
G02*
X78413750Y-133101500I243750J0D01*
G01*
X79326250Y-133101500D01*
G75*
G02*
X79570000Y-133345250I0J-243750D01*
G01*
X79570000Y-133832750D01*
G75*
G02*
X79326250Y-134076500I-243750J0D01*
G01*
G37*
G36*
G01*
X79326250Y-135951500D02*
X78413750Y-135951500D01*
G75*
G02*
X78170000Y-135707750I0J243750D01*
G01*
X78170000Y-135220250D01*
G75*
G02*
X78413750Y-134976500I243750J0D01*
G01*
X79326250Y-134976500D01*
G75*
G02*
X79570000Y-135220250I0J-243750D01*
G01*
X79570000Y-135707750D01*
G75*
G02*
X79326250Y-135951500I-243750J0D01*
G01*
G37*
%TD*%
%TO.C,C15*%
G36*
G01*
X49706250Y-153600000D02*
X48793750Y-153600000D01*
G75*
G02*
X48550000Y-153356250I0J243750D01*
G01*
X48550000Y-152868750D01*
G75*
G02*
X48793750Y-152625000I243750J0D01*
G01*
X49706250Y-152625000D01*
G75*
G02*
X49950000Y-152868750I0J-243750D01*
G01*
X49950000Y-153356250D01*
G75*
G02*
X49706250Y-153600000I-243750J0D01*
G01*
G37*
G36*
G01*
X49706250Y-155475000D02*
X48793750Y-155475000D01*
G75*
G02*
X48550000Y-155231250I0J243750D01*
G01*
X48550000Y-154743750D01*
G75*
G02*
X48793750Y-154500000I243750J0D01*
G01*
X49706250Y-154500000D01*
G75*
G02*
X49950000Y-154743750I0J-243750D01*
G01*
X49950000Y-155231250D01*
G75*
G02*
X49706250Y-155475000I-243750J0D01*
G01*
G37*
%TD*%
D28*
%TO.C,U7*%
G36*
X75385000Y-141238000D02*
G01*
X75385000Y-141318000D01*
X75265000Y-141438000D01*
X74635000Y-141438000D01*
X74635000Y-141238000D01*
X75385000Y-141238000D01*
G37*
G36*
G01*
X75335000Y-141038000D02*
X74685000Y-141038000D01*
G75*
G02*
X74635000Y-140988000I0J50000D01*
G01*
X74635000Y-140888000D01*
G75*
G02*
X74685000Y-140838000I50000J0D01*
G01*
X75335000Y-140838000D01*
G75*
G02*
X75385000Y-140888000I0J-50000D01*
G01*
X75385000Y-140988000D01*
G75*
G02*
X75335000Y-141038000I-50000J0D01*
G01*
G37*
G36*
G01*
X75335000Y-140638000D02*
X74685000Y-140638000D01*
G75*
G02*
X74635000Y-140588000I0J50000D01*
G01*
X74635000Y-140488000D01*
G75*
G02*
X74685000Y-140438000I50000J0D01*
G01*
X75335000Y-140438000D01*
G75*
G02*
X75385000Y-140488000I0J-50000D01*
G01*
X75385000Y-140588000D01*
G75*
G02*
X75335000Y-140638000I-50000J0D01*
G01*
G37*
G36*
G01*
X75335000Y-140238000D02*
X74685000Y-140238000D01*
G75*
G02*
X74635000Y-140188000I0J50000D01*
G01*
X74635000Y-140088000D01*
G75*
G02*
X74685000Y-140038000I50000J0D01*
G01*
X75335000Y-140038000D01*
G75*
G02*
X75385000Y-140088000I0J-50000D01*
G01*
X75385000Y-140188000D01*
G75*
G02*
X75335000Y-140238000I-50000J0D01*
G01*
G37*
G36*
G01*
X75335000Y-139838000D02*
X74685000Y-139838000D01*
G75*
G02*
X74635000Y-139788000I0J50000D01*
G01*
X74635000Y-139688000D01*
G75*
G02*
X74685000Y-139638000I50000J0D01*
G01*
X75335000Y-139638000D01*
G75*
G02*
X75385000Y-139688000I0J-50000D01*
G01*
X75385000Y-139788000D01*
G75*
G02*
X75335000Y-139838000I-50000J0D01*
G01*
G37*
G36*
X75265000Y-139238000D02*
G01*
X75385000Y-139358000D01*
X75385000Y-139438000D01*
X74635000Y-139438000D01*
X74635000Y-139238000D01*
X75265000Y-139238000D01*
G37*
G36*
X75610000Y-138463000D02*
G01*
X75610000Y-139213000D01*
X75530000Y-139213000D01*
X75410000Y-139093000D01*
X75410000Y-138463000D01*
X75610000Y-138463000D01*
G37*
G36*
G01*
X75960000Y-139213000D02*
X75860000Y-139213000D01*
G75*
G02*
X75810000Y-139163000I0J50000D01*
G01*
X75810000Y-138513000D01*
G75*
G02*
X75860000Y-138463000I50000J0D01*
G01*
X75960000Y-138463000D01*
G75*
G02*
X76010000Y-138513000I0J-50000D01*
G01*
X76010000Y-139163000D01*
G75*
G02*
X75960000Y-139213000I-50000J0D01*
G01*
G37*
G36*
G01*
X76360000Y-139213000D02*
X76260000Y-139213000D01*
G75*
G02*
X76210000Y-139163000I0J50000D01*
G01*
X76210000Y-138513000D01*
G75*
G02*
X76260000Y-138463000I50000J0D01*
G01*
X76360000Y-138463000D01*
G75*
G02*
X76410000Y-138513000I0J-50000D01*
G01*
X76410000Y-139163000D01*
G75*
G02*
X76360000Y-139213000I-50000J0D01*
G01*
G37*
G36*
G01*
X76760000Y-139213000D02*
X76660000Y-139213000D01*
G75*
G02*
X76610000Y-139163000I0J50000D01*
G01*
X76610000Y-138513000D01*
G75*
G02*
X76660000Y-138463000I50000J0D01*
G01*
X76760000Y-138463000D01*
G75*
G02*
X76810000Y-138513000I0J-50000D01*
G01*
X76810000Y-139163000D01*
G75*
G02*
X76760000Y-139213000I-50000J0D01*
G01*
G37*
G36*
G01*
X77160000Y-139213000D02*
X77060000Y-139213000D01*
G75*
G02*
X77010000Y-139163000I0J50000D01*
G01*
X77010000Y-138513000D01*
G75*
G02*
X77060000Y-138463000I50000J0D01*
G01*
X77160000Y-138463000D01*
G75*
G02*
X77210000Y-138513000I0J-50000D01*
G01*
X77210000Y-139163000D01*
G75*
G02*
X77160000Y-139213000I-50000J0D01*
G01*
G37*
G36*
X77610000Y-138463000D02*
G01*
X77610000Y-139093000D01*
X77490000Y-139213000D01*
X77410000Y-139213000D01*
X77410000Y-138463000D01*
X77610000Y-138463000D01*
G37*
G36*
X77755000Y-139238000D02*
G01*
X78385000Y-139238000D01*
X78385000Y-139438000D01*
X77635000Y-139438000D01*
X77635000Y-139358000D01*
X77755000Y-139238000D01*
G37*
G36*
G01*
X78335000Y-139838000D02*
X77685000Y-139838000D01*
G75*
G02*
X77635000Y-139788000I0J50000D01*
G01*
X77635000Y-139688000D01*
G75*
G02*
X77685000Y-139638000I50000J0D01*
G01*
X78335000Y-139638000D01*
G75*
G02*
X78385000Y-139688000I0J-50000D01*
G01*
X78385000Y-139788000D01*
G75*
G02*
X78335000Y-139838000I-50000J0D01*
G01*
G37*
G36*
G01*
X78335000Y-140238000D02*
X77685000Y-140238000D01*
G75*
G02*
X77635000Y-140188000I0J50000D01*
G01*
X77635000Y-140088000D01*
G75*
G02*
X77685000Y-140038000I50000J0D01*
G01*
X78335000Y-140038000D01*
G75*
G02*
X78385000Y-140088000I0J-50000D01*
G01*
X78385000Y-140188000D01*
G75*
G02*
X78335000Y-140238000I-50000J0D01*
G01*
G37*
G36*
G01*
X78335000Y-140638000D02*
X77685000Y-140638000D01*
G75*
G02*
X77635000Y-140588000I0J50000D01*
G01*
X77635000Y-140488000D01*
G75*
G02*
X77685000Y-140438000I50000J0D01*
G01*
X78335000Y-140438000D01*
G75*
G02*
X78385000Y-140488000I0J-50000D01*
G01*
X78385000Y-140588000D01*
G75*
G02*
X78335000Y-140638000I-50000J0D01*
G01*
G37*
G36*
G01*
X78335000Y-141038000D02*
X77685000Y-141038000D01*
G75*
G02*
X77635000Y-140988000I0J50000D01*
G01*
X77635000Y-140888000D01*
G75*
G02*
X77685000Y-140838000I50000J0D01*
G01*
X78335000Y-140838000D01*
G75*
G02*
X78385000Y-140888000I0J-50000D01*
G01*
X78385000Y-140988000D01*
G75*
G02*
X78335000Y-141038000I-50000J0D01*
G01*
G37*
G36*
X78385000Y-141238000D02*
G01*
X78385000Y-141438000D01*
X77755000Y-141438000D01*
X77635000Y-141318000D01*
X77635000Y-141238000D01*
X78385000Y-141238000D01*
G37*
G36*
X77490000Y-141463000D02*
G01*
X77610000Y-141583000D01*
X77610000Y-142213000D01*
X77410000Y-142213000D01*
X77410000Y-141463000D01*
X77490000Y-141463000D01*
G37*
G36*
G01*
X77160000Y-142213000D02*
X77060000Y-142213000D01*
G75*
G02*
X77010000Y-142163000I0J50000D01*
G01*
X77010000Y-141513000D01*
G75*
G02*
X77060000Y-141463000I50000J0D01*
G01*
X77160000Y-141463000D01*
G75*
G02*
X77210000Y-141513000I0J-50000D01*
G01*
X77210000Y-142163000D01*
G75*
G02*
X77160000Y-142213000I-50000J0D01*
G01*
G37*
G36*
G01*
X76760000Y-142213000D02*
X76660000Y-142213000D01*
G75*
G02*
X76610000Y-142163000I0J50000D01*
G01*
X76610000Y-141513000D01*
G75*
G02*
X76660000Y-141463000I50000J0D01*
G01*
X76760000Y-141463000D01*
G75*
G02*
X76810000Y-141513000I0J-50000D01*
G01*
X76810000Y-142163000D01*
G75*
G02*
X76760000Y-142213000I-50000J0D01*
G01*
G37*
G36*
G01*
X76360000Y-142213000D02*
X76260000Y-142213000D01*
G75*
G02*
X76210000Y-142163000I0J50000D01*
G01*
X76210000Y-141513000D01*
G75*
G02*
X76260000Y-141463000I50000J0D01*
G01*
X76360000Y-141463000D01*
G75*
G02*
X76410000Y-141513000I0J-50000D01*
G01*
X76410000Y-142163000D01*
G75*
G02*
X76360000Y-142213000I-50000J0D01*
G01*
G37*
G36*
G01*
X75960000Y-142213000D02*
X75860000Y-142213000D01*
G75*
G02*
X75810000Y-142163000I0J50000D01*
G01*
X75810000Y-141513000D01*
G75*
G02*
X75860000Y-141463000I50000J0D01*
G01*
X75960000Y-141463000D01*
G75*
G02*
X76010000Y-141513000I0J-50000D01*
G01*
X76010000Y-142163000D01*
G75*
G02*
X75960000Y-142213000I-50000J0D01*
G01*
G37*
G36*
X75530000Y-141463000D02*
G01*
X75610000Y-141463000D01*
X75610000Y-142213000D01*
X75410000Y-142213000D01*
X75410000Y-141583000D01*
X75530000Y-141463000D01*
G37*
G36*
G01*
X77070000Y-140253000D02*
X76750000Y-140253000D01*
G75*
G02*
X76590000Y-140093000I0J160000D01*
G01*
X76590000Y-139703000D01*
G75*
G02*
X76750000Y-139543000I160000J0D01*
G01*
X77070000Y-139543000D01*
G75*
G02*
X77230000Y-139703000I0J-160000D01*
G01*
X77230000Y-140093000D01*
G75*
G02*
X77070000Y-140253000I-160000J0D01*
G01*
G37*
G36*
G01*
X76270000Y-140253000D02*
X75950000Y-140253000D01*
G75*
G02*
X75790000Y-140093000I0J160000D01*
G01*
X75790000Y-139703000D01*
G75*
G02*
X75950000Y-139543000I160000J0D01*
G01*
X76270000Y-139543000D01*
G75*
G02*
X76430000Y-139703000I0J-160000D01*
G01*
X76430000Y-140093000D01*
G75*
G02*
X76270000Y-140253000I-160000J0D01*
G01*
G37*
G36*
G01*
X77070000Y-141133000D02*
X76750000Y-141133000D01*
G75*
G02*
X76590000Y-140973000I0J160000D01*
G01*
X76590000Y-140583000D01*
G75*
G02*
X76750000Y-140423000I160000J0D01*
G01*
X77070000Y-140423000D01*
G75*
G02*
X77230000Y-140583000I0J-160000D01*
G01*
X77230000Y-140973000D01*
G75*
G02*
X77070000Y-141133000I-160000J0D01*
G01*
G37*
G36*
G01*
X76270000Y-141133000D02*
X75950000Y-141133000D01*
G75*
G02*
X75790000Y-140973000I0J160000D01*
G01*
X75790000Y-140583000D01*
G75*
G02*
X75950000Y-140423000I160000J0D01*
G01*
X76270000Y-140423000D01*
G75*
G02*
X76430000Y-140583000I0J-160000D01*
G01*
X76430000Y-140973000D01*
G75*
G02*
X76270000Y-141133000I-160000J0D01*
G01*
G37*
%TD*%
D29*
%TO.C,U10*%
X44740000Y-136750000D03*
D30*
X46645000Y-140450000D03*
X46645000Y-133050000D03*
X45375000Y-140450000D03*
X45375000Y-133050000D03*
X44105000Y-140450000D03*
X44105000Y-133050000D03*
X42835000Y-140450000D03*
X42835000Y-133050000D03*
%TD*%
D31*
%TO.C,Y1*%
X58560000Y-127545000D03*
X58560000Y-125345000D03*
X60160000Y-125345000D03*
X60160000Y-127545000D03*
%TD*%
D32*
%TO.C,U4*%
X82351000Y-139961000D03*
X82351000Y-142161000D03*
X84551000Y-142161000D03*
X84551000Y-139961000D03*
%TD*%
D23*
%TO.C,U6*%
X55750000Y-146910000D03*
X57650000Y-146910000D03*
X57650000Y-149110000D03*
X56700000Y-149110000D03*
X55750000Y-149110000D03*
%TD*%
%TO.C,R23*%
G36*
G01*
X51978250Y-122334000D02*
X51465750Y-122334000D01*
G75*
G02*
X51247000Y-122115250I0J218750D01*
G01*
X51247000Y-121677750D01*
G75*
G02*
X51465750Y-121459000I218750J0D01*
G01*
X51978250Y-121459000D01*
G75*
G02*
X52197000Y-121677750I0J-218750D01*
G01*
X52197000Y-122115250D01*
G75*
G02*
X51978250Y-122334000I-218750J0D01*
G01*
G37*
G36*
G01*
X51978250Y-123909000D02*
X51465750Y-123909000D01*
G75*
G02*
X51247000Y-123690250I0J218750D01*
G01*
X51247000Y-123252750D01*
G75*
G02*
X51465750Y-123034000I218750J0D01*
G01*
X51978250Y-123034000D01*
G75*
G02*
X52197000Y-123252750I0J-218750D01*
G01*
X52197000Y-123690250D01*
G75*
G02*
X51978250Y-123909000I-218750J0D01*
G01*
G37*
%TD*%
%TO.C,R22*%
G36*
G01*
X50358917Y-122334000D02*
X49846417Y-122334000D01*
G75*
G02*
X49627667Y-122115250I0J218750D01*
G01*
X49627667Y-121677750D01*
G75*
G02*
X49846417Y-121459000I218750J0D01*
G01*
X50358917Y-121459000D01*
G75*
G02*
X50577667Y-121677750I0J-218750D01*
G01*
X50577667Y-122115250D01*
G75*
G02*
X50358917Y-122334000I-218750J0D01*
G01*
G37*
G36*
G01*
X50358917Y-123909000D02*
X49846417Y-123909000D01*
G75*
G02*
X49627667Y-123690250I0J218750D01*
G01*
X49627667Y-123252750D01*
G75*
G02*
X49846417Y-123034000I218750J0D01*
G01*
X50358917Y-123034000D01*
G75*
G02*
X50577667Y-123252750I0J-218750D01*
G01*
X50577667Y-123690250D01*
G75*
G02*
X50358917Y-123909000I-218750J0D01*
G01*
G37*
%TD*%
%TO.C,R21*%
G36*
G01*
X48739584Y-122334000D02*
X48227084Y-122334000D01*
G75*
G02*
X48008334Y-122115250I0J218750D01*
G01*
X48008334Y-121677750D01*
G75*
G02*
X48227084Y-121459000I218750J0D01*
G01*
X48739584Y-121459000D01*
G75*
G02*
X48958334Y-121677750I0J-218750D01*
G01*
X48958334Y-122115250D01*
G75*
G02*
X48739584Y-122334000I-218750J0D01*
G01*
G37*
G36*
G01*
X48739584Y-123909000D02*
X48227084Y-123909000D01*
G75*
G02*
X48008334Y-123690250I0J218750D01*
G01*
X48008334Y-123252750D01*
G75*
G02*
X48227084Y-123034000I218750J0D01*
G01*
X48739584Y-123034000D01*
G75*
G02*
X48958334Y-123252750I0J-218750D01*
G01*
X48958334Y-123690250D01*
G75*
G02*
X48739584Y-123909000I-218750J0D01*
G01*
G37*
%TD*%
%TO.C,R6*%
G36*
G01*
X86215000Y-143863750D02*
X86215000Y-144376250D01*
G75*
G02*
X85996250Y-144595000I-218750J0D01*
G01*
X85558750Y-144595000D01*
G75*
G02*
X85340000Y-144376250I0J218750D01*
G01*
X85340000Y-143863750D01*
G75*
G02*
X85558750Y-143645000I218750J0D01*
G01*
X85996250Y-143645000D01*
G75*
G02*
X86215000Y-143863750I0J-218750D01*
G01*
G37*
G36*
G01*
X84640000Y-143863750D02*
X84640000Y-144376250D01*
G75*
G02*
X84421250Y-144595000I-218750J0D01*
G01*
X83983750Y-144595000D01*
G75*
G02*
X83765000Y-144376250I0J218750D01*
G01*
X83765000Y-143863750D01*
G75*
G02*
X83983750Y-143645000I218750J0D01*
G01*
X84421250Y-143645000D01*
G75*
G02*
X84640000Y-143863750I0J-218750D01*
G01*
G37*
%TD*%
%TO.C,R19*%
G36*
G01*
X47120250Y-122334000D02*
X46607750Y-122334000D01*
G75*
G02*
X46389000Y-122115250I0J218750D01*
G01*
X46389000Y-121677750D01*
G75*
G02*
X46607750Y-121459000I218750J0D01*
G01*
X47120250Y-121459000D01*
G75*
G02*
X47339000Y-121677750I0J-218750D01*
G01*
X47339000Y-122115250D01*
G75*
G02*
X47120250Y-122334000I-218750J0D01*
G01*
G37*
G36*
G01*
X47120250Y-123909000D02*
X46607750Y-123909000D01*
G75*
G02*
X46389000Y-123690250I0J218750D01*
G01*
X46389000Y-123252750D01*
G75*
G02*
X46607750Y-123034000I218750J0D01*
G01*
X47120250Y-123034000D01*
G75*
G02*
X47339000Y-123252750I0J-218750D01*
G01*
X47339000Y-123690250D01*
G75*
G02*
X47120250Y-123909000I-218750J0D01*
G01*
G37*
%TD*%
%TO.C,R16*%
G36*
G01*
X54625000Y-144581250D02*
X54625000Y-144068750D01*
G75*
G02*
X54843750Y-143850000I218750J0D01*
G01*
X55281250Y-143850000D01*
G75*
G02*
X55500000Y-144068750I0J-218750D01*
G01*
X55500000Y-144581250D01*
G75*
G02*
X55281250Y-144800000I-218750J0D01*
G01*
X54843750Y-144800000D01*
G75*
G02*
X54625000Y-144581250I0J218750D01*
G01*
G37*
G36*
G01*
X53050000Y-144581250D02*
X53050000Y-144068750D01*
G75*
G02*
X53268750Y-143850000I218750J0D01*
G01*
X53706250Y-143850000D01*
G75*
G02*
X53925000Y-144068750I0J-218750D01*
G01*
X53925000Y-144581250D01*
G75*
G02*
X53706250Y-144800000I-218750J0D01*
G01*
X53268750Y-144800000D01*
G75*
G02*
X53050000Y-144581250I0J218750D01*
G01*
G37*
%TD*%
%TO.C,R18*%
G36*
G01*
X50640000Y-124883750D02*
X50640000Y-125396250D01*
G75*
G02*
X50421250Y-125615000I-218750J0D01*
G01*
X49983750Y-125615000D01*
G75*
G02*
X49765000Y-125396250I0J218750D01*
G01*
X49765000Y-124883750D01*
G75*
G02*
X49983750Y-124665000I218750J0D01*
G01*
X50421250Y-124665000D01*
G75*
G02*
X50640000Y-124883750I0J-218750D01*
G01*
G37*
G36*
G01*
X52215000Y-124883750D02*
X52215000Y-125396250D01*
G75*
G02*
X51996250Y-125615000I-218750J0D01*
G01*
X51558750Y-125615000D01*
G75*
G02*
X51340000Y-125396250I0J218750D01*
G01*
X51340000Y-124883750D01*
G75*
G02*
X51558750Y-124665000I218750J0D01*
G01*
X51996250Y-124665000D01*
G75*
G02*
X52215000Y-124883750I0J-218750D01*
G01*
G37*
%TD*%
%TO.C,R20*%
G36*
G01*
X51337500Y-126966250D02*
X51337500Y-126453750D01*
G75*
G02*
X51556250Y-126235000I218750J0D01*
G01*
X51993750Y-126235000D01*
G75*
G02*
X52212500Y-126453750I0J-218750D01*
G01*
X52212500Y-126966250D01*
G75*
G02*
X51993750Y-127185000I-218750J0D01*
G01*
X51556250Y-127185000D01*
G75*
G02*
X51337500Y-126966250I0J218750D01*
G01*
G37*
G36*
G01*
X49762500Y-126966250D02*
X49762500Y-126453750D01*
G75*
G02*
X49981250Y-126235000I218750J0D01*
G01*
X50418750Y-126235000D01*
G75*
G02*
X50637500Y-126453750I0J-218750D01*
G01*
X50637500Y-126966250D01*
G75*
G02*
X50418750Y-127185000I-218750J0D01*
G01*
X49981250Y-127185000D01*
G75*
G02*
X49762500Y-126966250I0J218750D01*
G01*
G37*
%TD*%
%TO.C,R8*%
G36*
G01*
X50506250Y-151275000D02*
X49993750Y-151275000D01*
G75*
G02*
X49775000Y-151056250I0J218750D01*
G01*
X49775000Y-150618750D01*
G75*
G02*
X49993750Y-150400000I218750J0D01*
G01*
X50506250Y-150400000D01*
G75*
G02*
X50725000Y-150618750I0J-218750D01*
G01*
X50725000Y-151056250D01*
G75*
G02*
X50506250Y-151275000I-218750J0D01*
G01*
G37*
G36*
G01*
X50506250Y-149700000D02*
X49993750Y-149700000D01*
G75*
G02*
X49775000Y-149481250I0J218750D01*
G01*
X49775000Y-149043750D01*
G75*
G02*
X49993750Y-148825000I218750J0D01*
G01*
X50506250Y-148825000D01*
G75*
G02*
X50725000Y-149043750I0J-218750D01*
G01*
X50725000Y-149481250D01*
G75*
G02*
X50506250Y-149700000I-218750J0D01*
G01*
G37*
%TD*%
%TO.C,R4*%
G36*
G01*
X54256250Y-147300000D02*
X53743750Y-147300000D01*
G75*
G02*
X53525000Y-147081250I0J218750D01*
G01*
X53525000Y-146643750D01*
G75*
G02*
X53743750Y-146425000I218750J0D01*
G01*
X54256250Y-146425000D01*
G75*
G02*
X54475000Y-146643750I0J-218750D01*
G01*
X54475000Y-147081250D01*
G75*
G02*
X54256250Y-147300000I-218750J0D01*
G01*
G37*
G36*
G01*
X54256250Y-148875000D02*
X53743750Y-148875000D01*
G75*
G02*
X53525000Y-148656250I0J218750D01*
G01*
X53525000Y-148218750D01*
G75*
G02*
X53743750Y-148000000I218750J0D01*
G01*
X54256250Y-148000000D01*
G75*
G02*
X54475000Y-148218750I0J-218750D01*
G01*
X54475000Y-148656250D01*
G75*
G02*
X54256250Y-148875000I-218750J0D01*
G01*
G37*
%TD*%
D25*
%TO.C,Q2*%
X50490000Y-146740000D03*
X48490000Y-147690000D03*
X48490000Y-145790000D03*
%TD*%
%TO.C,L1*%
G36*
G01*
X49377500Y-140690000D02*
X49722500Y-140690000D01*
G75*
G02*
X49870000Y-140837500I0J-147500D01*
G01*
X49870000Y-141132500D01*
G75*
G02*
X49722500Y-141280000I-147500J0D01*
G01*
X49377500Y-141280000D01*
G75*
G02*
X49230000Y-141132500I0J147500D01*
G01*
X49230000Y-140837500D01*
G75*
G02*
X49377500Y-140690000I147500J0D01*
G01*
G37*
G36*
G01*
X49377500Y-139720000D02*
X49722500Y-139720000D01*
G75*
G02*
X49870000Y-139867500I0J-147500D01*
G01*
X49870000Y-140162500D01*
G75*
G02*
X49722500Y-140310000I-147500J0D01*
G01*
X49377500Y-140310000D01*
G75*
G02*
X49230000Y-140162500I0J147500D01*
G01*
X49230000Y-139867500D01*
G75*
G02*
X49377500Y-139720000I147500J0D01*
G01*
G37*
%TD*%
D33*
%TO.C,J2*%
X63250000Y-127840000D03*
X63250000Y-123940000D03*
X64520000Y-127840000D03*
X64520000Y-123940000D03*
X65790000Y-127840000D03*
X65790000Y-123940000D03*
X67060000Y-127840000D03*
X67060000Y-123940000D03*
X68330000Y-127840000D03*
X68330000Y-123940000D03*
%TD*%
D34*
%TO.C,J4*%
X62800000Y-152640000D03*
X63450000Y-152640000D03*
X64100000Y-152640000D03*
X64750000Y-152640000D03*
X65400000Y-152640000D03*
D35*
X61637500Y-153000000D03*
X66562500Y-153000000D03*
D36*
X61190000Y-155300000D03*
X67010000Y-155300000D03*
D37*
X63260000Y-155300000D03*
X64940000Y-155300000D03*
%TD*%
D38*
%TO.C,D2*%
X46648000Y-145076000D03*
X43348000Y-145076000D03*
%TD*%
%TO.C,C24*%
G36*
G01*
X56237500Y-150453750D02*
X56237500Y-151366250D01*
G75*
G02*
X55993750Y-151610000I-243750J0D01*
G01*
X55506250Y-151610000D01*
G75*
G02*
X55262500Y-151366250I0J243750D01*
G01*
X55262500Y-150453750D01*
G75*
G02*
X55506250Y-150210000I243750J0D01*
G01*
X55993750Y-150210000D01*
G75*
G02*
X56237500Y-150453750I0J-243750D01*
G01*
G37*
G36*
G01*
X58112500Y-150453750D02*
X58112500Y-151366250D01*
G75*
G02*
X57868750Y-151610000I-243750J0D01*
G01*
X57381250Y-151610000D01*
G75*
G02*
X57137500Y-151366250I0J243750D01*
G01*
X57137500Y-150453750D01*
G75*
G02*
X57381250Y-150210000I243750J0D01*
G01*
X57868750Y-150210000D01*
G75*
G02*
X58112500Y-150453750I0J-243750D01*
G01*
G37*
%TD*%
%TO.C,C17*%
G36*
G01*
X60993750Y-148280000D02*
X61906250Y-148280000D01*
G75*
G02*
X62150000Y-148523750I0J-243750D01*
G01*
X62150000Y-149011250D01*
G75*
G02*
X61906250Y-149255000I-243750J0D01*
G01*
X60993750Y-149255000D01*
G75*
G02*
X60750000Y-149011250I0J243750D01*
G01*
X60750000Y-148523750D01*
G75*
G02*
X60993750Y-148280000I243750J0D01*
G01*
G37*
G36*
G01*
X60993750Y-146405000D02*
X61906250Y-146405000D01*
G75*
G02*
X62150000Y-146648750I0J-243750D01*
G01*
X62150000Y-147136250D01*
G75*
G02*
X61906250Y-147380000I-243750J0D01*
G01*
X60993750Y-147380000D01*
G75*
G02*
X60750000Y-147136250I0J243750D01*
G01*
X60750000Y-146648750D01*
G75*
G02*
X60993750Y-146405000I243750J0D01*
G01*
G37*
%TD*%
%TO.C,C33*%
G36*
G01*
X47013750Y-127020000D02*
X47926250Y-127020000D01*
G75*
G02*
X48170000Y-127263750I0J-243750D01*
G01*
X48170000Y-127751250D01*
G75*
G02*
X47926250Y-127995000I-243750J0D01*
G01*
X47013750Y-127995000D01*
G75*
G02*
X46770000Y-127751250I0J243750D01*
G01*
X46770000Y-127263750D01*
G75*
G02*
X47013750Y-127020000I243750J0D01*
G01*
G37*
G36*
G01*
X47013750Y-125145000D02*
X47926250Y-125145000D01*
G75*
G02*
X48170000Y-125388750I0J-243750D01*
G01*
X48170000Y-125876250D01*
G75*
G02*
X47926250Y-126120000I-243750J0D01*
G01*
X47013750Y-126120000D01*
G75*
G02*
X46770000Y-125876250I0J243750D01*
G01*
X46770000Y-125388750D01*
G75*
G02*
X47013750Y-125145000I243750J0D01*
G01*
G37*
%TD*%
%TO.C,C32*%
G36*
G01*
X45013750Y-127020000D02*
X45926250Y-127020000D01*
G75*
G02*
X46170000Y-127263750I0J-243750D01*
G01*
X46170000Y-127751250D01*
G75*
G02*
X45926250Y-127995000I-243750J0D01*
G01*
X45013750Y-127995000D01*
G75*
G02*
X44770000Y-127751250I0J243750D01*
G01*
X44770000Y-127263750D01*
G75*
G02*
X45013750Y-127020000I243750J0D01*
G01*
G37*
G36*
G01*
X45013750Y-125145000D02*
X45926250Y-125145000D01*
G75*
G02*
X46170000Y-125388750I0J-243750D01*
G01*
X46170000Y-125876250D01*
G75*
G02*
X45926250Y-126120000I-243750J0D01*
G01*
X45013750Y-126120000D01*
G75*
G02*
X44770000Y-125876250I0J243750D01*
G01*
X44770000Y-125388750D01*
G75*
G02*
X45013750Y-125145000I243750J0D01*
G01*
G37*
%TD*%
%TO.C,C30*%
G36*
G01*
X42666250Y-118920000D02*
X41753750Y-118920000D01*
G75*
G02*
X41510000Y-118676250I0J243750D01*
G01*
X41510000Y-118188750D01*
G75*
G02*
X41753750Y-117945000I243750J0D01*
G01*
X42666250Y-117945000D01*
G75*
G02*
X42910000Y-118188750I0J-243750D01*
G01*
X42910000Y-118676250D01*
G75*
G02*
X42666250Y-118920000I-243750J0D01*
G01*
G37*
G36*
G01*
X42666250Y-120795000D02*
X41753750Y-120795000D01*
G75*
G02*
X41510000Y-120551250I0J243750D01*
G01*
X41510000Y-120063750D01*
G75*
G02*
X41753750Y-119820000I243750J0D01*
G01*
X42666250Y-119820000D01*
G75*
G02*
X42910000Y-120063750I0J-243750D01*
G01*
X42910000Y-120551250D01*
G75*
G02*
X42666250Y-120795000I-243750J0D01*
G01*
G37*
%TD*%
%TO.C,C16*%
G36*
G01*
X59043750Y-148280000D02*
X59956250Y-148280000D01*
G75*
G02*
X60200000Y-148523750I0J-243750D01*
G01*
X60200000Y-149011250D01*
G75*
G02*
X59956250Y-149255000I-243750J0D01*
G01*
X59043750Y-149255000D01*
G75*
G02*
X58800000Y-149011250I0J243750D01*
G01*
X58800000Y-148523750D01*
G75*
G02*
X59043750Y-148280000I243750J0D01*
G01*
G37*
G36*
G01*
X59043750Y-146405000D02*
X59956250Y-146405000D01*
G75*
G02*
X60200000Y-146648750I0J-243750D01*
G01*
X60200000Y-147136250D01*
G75*
G02*
X59956250Y-147380000I-243750J0D01*
G01*
X59043750Y-147380000D01*
G75*
G02*
X58800000Y-147136250I0J243750D01*
G01*
X58800000Y-146648750D01*
G75*
G02*
X59043750Y-146405000I243750J0D01*
G01*
G37*
%TD*%
M02*
