M48
; DRILL file {KiCad 5.1.8+dfsg1-1~bpo10+1} date Fri Feb 19 12:52:03 2021
; FORMAT={-:-/ absolute / inch / decimal}
; #@! TF.CreationDate,2021-02-19T12:52:03+00:00
; #@! TF.GenerationSoftware,Kicad,Pcbnew,5.1.8+dfsg1-1~bpo10+1
; #@! TF.FileFunction,Plated,1,4,PTH
FMAT,2
INCH
T1C0.0098
T2C0.0157
T3C0.0197
T4C0.0256
T5C0.0394
T6C0.0492
T7C0.0984
%
G90
G05
T1
X1.5943Y-5.3616
X1.5945Y-5.69
X1.598Y-3.6692
X1.5981Y-4.5816
X1.5984Y-4.874
X1.5985Y-3.7558
X1.5987Y-6.013
X1.5988Y-4.2994
X1.5991Y-6.2773
X1.6012Y-6.3774
X1.6014Y-5.9161
X1.6014Y-4.3971
X1.6016Y-4.21
X1.6019Y-4.6669
X1.6019Y-5.8213
X1.6031Y-5.7413
X1.6032Y-4.028
X1.6046Y-4.1236
X1.6057Y-3.8448
X1.6065Y-6.1904
X1.6072Y-4.483
X1.6072Y-6.465
X1.6078Y-6.1012
X1.608Y-3.9392
X1.6181Y-5.3848
X1.6378Y-4.873
X1.6388Y-4.8445
X1.6439Y-3.9842
X1.6441Y-6.0523
X1.6447Y-5.3616
X1.6447Y-3.6053
X1.645Y-4.4457
X1.6451Y-5.687
X1.6455Y-4.2615
X1.6464Y-4.6227
X1.6468Y-5.8703
X1.6472Y-4.5373
X1.6479Y-4.1634
X1.6495Y-4.0781
X1.6505Y-3.8939
X1.6514Y-3.7141
X1.6528Y-4.35
X1.653Y-3.8024
X1.6545Y-6.4222
X1.6673Y-5.3848
X1.6678Y-5.9856
X1.6683Y-5.9203
X1.686Y-5.6703
X1.688Y-5.3612
X1.6912Y-4.2169
X1.6914Y-4.3966
X1.6919Y-6.3278
X1.6929Y-5.874
X1.6936Y-4.0318
X1.6936Y-3.6412
X1.6957Y-3.7556
X1.697Y-3.8458
X1.6971Y-4.488
X1.698Y-4.5774
X1.6984Y-4.125
X1.6986Y-4.3034
X1.6995Y-3.937
X1.7123Y-5.708
X1.7137Y-6.0961
X1.7148Y-3.5825
X1.7215Y-4.7953
X1.7224Y-5.8907
X1.7283Y-5.6732
X1.7303Y-4.7766
X1.7311Y-4.65
X1.7347Y-4.4429
X1.7363Y-4.0799
X1.7363Y-4.1727
X1.7383Y-4.349
X1.7386Y-4.5305
X1.7398Y-4.2649
X1.7411Y-3.8991
X1.742Y-6.4379
X1.7433Y-3.9819
X1.7439Y-3.8054
X1.7441Y-4.7618
X1.7441Y-5.5787
X1.7451Y-6.1687
X1.7452Y-3.6958
X1.752Y-5.4291
X1.752Y-5.6299
X1.7575Y-3.6232
X1.7609Y-4.6904
X1.7618Y-4.753
X1.7619Y-4.5962
X1.7667Y-4.8051
X1.7826Y-6.0496
X1.7832Y-3.9409
X1.7833Y-4.2157
X1.7835Y-4.7362
X1.7837Y-3.7332
X1.7837Y-4.4817
X1.7844Y-5.7413
X1.7848Y-4.0341
X1.7855Y-4.3078
X1.7872Y-3.8465
X1.7876Y-6.6703
X1.7885Y-6.3069
X1.7901Y-4.3952
X1.7907Y-4.1202
X1.7907Y-4.982
X1.7972Y-4.7116
X1.7972Y-4.7748
X1.8031Y-5.2383
X1.8037Y-4.5548
X1.804Y-3.6662
X1.8048Y-3.5799
X1.8056Y-5.0556
X1.8071Y-5.3701
X1.8088Y-6.1454
X1.8118Y-4.6428
X1.8136Y-5.1416
X1.8248Y-5.6447
X1.8252Y-4.3459
X1.8254Y-3.7835
X1.8258Y-4.8704
X1.8287Y-6.6191
X1.8289Y-4.4459
X1.8291Y-6.5335
X1.8298Y-6.4403
X1.8301Y-3.9812
X1.8331Y-4.2576
X1.8346Y-4.1654
X1.8357Y-4.0727
X1.8361Y-3.8917
X1.8386Y-4.9882
X1.8396Y-5.1024
X1.8414Y-4.7583
X1.8415Y-4.7913
X1.8465Y-5.2402
X1.8508Y-3.6188
X1.8514Y-4.8701
X1.8518Y-5.1907
X1.8528Y-3.7106
X1.8534Y-4.6049
X1.855Y-4.5064
X1.8555Y-6.0281
X1.8588Y-5.8471
X1.86Y-4.2156
X1.8622Y-5.7343
X1.8712Y-6.2992
X1.872Y-4.3041
X1.872Y-4.3957
X1.8722Y-4.0279
X1.873Y-5.9222
X1.8731Y-4.6724
X1.874Y-3.8284
X1.874Y-4.7579
X1.874Y-4.7913
X1.8748Y-4.1232
X1.8758Y-3.9378
X1.876Y-4.8701
X1.8799Y-6.1696
X1.8805Y-6.5726
X1.881Y-6.6686
X1.8945Y-5.6178
X1.8954Y-4.4651
X1.8957Y-5.3839
X1.8958Y-3.6645
X1.8972Y-5.2445
X1.8974Y-4.5539
X1.8998Y-3.7585
X1.9012Y-5.5231
X1.9045Y-3.5747
X1.91Y-4.23
X1.91Y-4.42
X1.916Y-5.738
X1.9183Y-5.2539
X1.9192Y-4.6223
X1.9204Y-6.4456
X1.9206Y-4.0779
X1.9213Y-5.4567
X1.9232Y-5.1122
X1.9237Y-4.8259
X1.9244Y-6.6269
X1.9244Y-6.0522
X1.9255Y-4.2589
X1.9266Y-6.5321
X1.9392Y-3.7178
X1.9395Y-5.644
X1.94Y-5.7844
X1.9409Y-4.8622
X1.9409Y-5.2402
X1.9409Y-5.9213
X1.9415Y-4.5134
X1.942Y-6.33
X1.9431Y-4.324
X1.9433Y-3.6234
X1.9439Y-3.8268
X1.9439Y-4.0069
X1.9439Y-6.2342
X1.9463Y-4.4163
X1.9492Y-4.982
X1.9528Y-5.1772
X1.9547Y-6.1696
X1.9567Y-5.3622
X1.9626Y-5.7205
X1.9676Y-5.784
X1.9677Y-4.5733
X1.9688Y-6.0053
X1.9815Y-5.1374
X1.9823Y-5.6929
X1.9841Y-4.3727
X1.9862Y-4.1927
X1.9868Y-4.7238
X1.9872Y-4.8104
X1.9872Y-5.0959
X1.9875Y-3.5763
X1.9884Y-4.7606
X1.9892Y-3.674
X1.9893Y-6.2767
X1.9907Y-4.6947
X1.9915Y-4.84
X1.9916Y-4.4644
X1.9961Y-5.3622
X1.9961Y-5.9528
X1.9961Y-5.9843
X2.0Y-6.063
X2.003Y-4.872
X2.0109Y-6.3454
X2.0143Y-3.8702
X2.0148Y-4.0089
X2.0157Y-5.2445
X2.0168Y-4.6254
X2.0178Y-4.5279
X2.018Y-3.7327
X2.0211Y-4.6902
X2.0211Y-4.8451
X2.0236Y-6.2402
X2.0329Y-4.3219
X2.0354Y-6.3031
X2.0374Y-5.4235
X2.0394Y-6.2106
X2.04Y-4.16
X2.0402Y-5.637
X2.0402Y-3.6257
X2.0406Y-5.0402
X2.0409Y-5.0933
X2.0528Y-5.137
X2.0533Y-5.4413
X2.0544Y-4.4858
X2.0547Y-4.9854
X2.0551Y-5.0138
X2.0559Y-4.8051
X2.0565Y-4.7161
X2.0603Y-3.6882
X2.0612Y-4.5735
X2.0614Y-6.5764
X2.0618Y-6.2307
X2.0669Y-4.8622
X2.074Y-5.2382
X2.0748Y-5.5217
X2.0755Y-4.2193
X2.0756Y-5.3622
X2.0766Y-4.6453
X2.0804Y-6.3004
X2.0827Y-6.4783
X2.0829Y-4.368
X2.0866Y-5.7264
X2.0945Y-4.9858
X2.0972Y-5.8252
X2.0994Y-5.5177
X2.0994Y-5.7057
X2.0995Y-4.5303
X2.1Y-4.32
X2.1016Y-4.7585
X2.1059Y-4.4416
X2.1059Y-5.4646
X2.1063Y-5.4882
X2.1118Y-6.3756
X2.1206Y-5.81
X2.1236Y-4.1425
X2.126Y-5.8681
X2.1284Y-4.6055
X2.1378Y-4.8937
X2.1378Y-4.9961
X2.1422Y-5.3706
X2.1435Y-4.4817
X2.1468Y-4.9415
X2.1474Y-5.3978
X2.1481Y-4.8525
X2.1487Y-4.3282
X2.151Y-4.6647
X2.1528Y-6.0402
X2.1606Y-6.5764
X2.1677Y-4.5518
X2.1683Y-4.4002
X2.17Y-4.16
X2.1706Y-6.1847
X2.1727Y-5.5093
X2.1738Y-6.2767
X2.178Y-6.4787
X2.1811Y-5.6585
X2.1811Y-5.9606
X2.189Y-5.5571
X2.1893Y-5.3781
X2.19Y-4.14
X2.1901Y-5.6187
X2.1959Y-5.0689
X2.1962Y-4.7112
X2.1978Y-4.8317
X2.1985Y-4.6204
X2.2Y-5.0
X2.2008Y-3.9075
X2.2008Y-3.9547
X2.2008Y-4.002
X2.2018Y-4.5709
X2.2018Y-4.6781
X2.2143Y-5.7588
X2.2151Y-3.7633
X2.22Y-6.3244
X2.2208Y-3.8451
X2.221Y-4.4438
X2.2211Y-4.3016
X2.23Y-4.18
X2.2311Y-5.8196
X2.2311Y-5.3768
X2.2323Y-5.4488
X2.2377Y-4.528
X2.2382Y-6.0266
X2.2421Y-4.3771
X2.2435Y-6.2633
X2.244Y-5.5349
X2.2449Y-4.8553
X2.2539Y-5.9051
X2.2578Y-6.1848
X2.2596Y-3.8047
X2.2622Y-6.5768
X2.2623Y-4.62
X2.2628Y-4.5896
X2.2628Y-4.6781
X2.2638Y-3.8909
X2.2673Y-5.8146
X2.2677Y-4.8937
X2.2736Y-5.4488
X2.2736Y-5.5157
X2.274Y-6.3787
X2.2819Y-6.4787
X2.2835Y-4.8189
X2.2841Y-4.3286
X2.2867Y-5.642
X2.2874Y-5.1722
X2.2874Y-5.1939
X2.2892Y-6.3038
X2.2902Y-4.1992
X2.2992Y-5.0394
X2.3039Y-6.0287
X2.3056Y-3.7544
X2.3102Y-5.5534
X2.3123Y-3.8556
X2.313Y-5.75
X2.313Y-5.8967
X2.315Y-4.8189
X2.3209Y-5.8091
X2.3228Y-5.313
X2.3282Y-3.9133
X2.3297Y-5.2156
X2.3297Y-5.3701
X2.3326Y-6.2533
X2.3329Y-5.3444
X2.3374Y-4.1972
X2.3378Y-4.2697
X2.3423Y-5.8939
X2.3465Y-4.752
X2.3465Y-4.7874
X2.3465Y-4.8189
X2.3482Y-3.8012
X2.3495Y-5.6029
X2.3533Y-5.2091
X2.3554Y-5.5228
X2.3558Y-4.981
X2.361Y-6.5752
X2.3626Y-5.3449
X2.3706Y-4.7344
X2.3728Y-4.8899
X2.374Y-5.0197
X2.3749Y-5.7812
X2.3756Y-3.8713
X2.378Y-5.4636
X2.378Y-6.3504
X2.3797Y-6.305
X2.3799Y-5.3612
X2.3858Y-4.1781
X2.3925Y-5.8935
X2.3925Y-6.4791
X2.3983Y-3.7604
X2.3995Y-5.9359
X2.3998Y-5.5421
X2.4165Y-5.3236
X2.42Y-4.8511
X2.4204Y-5.3718
X2.4213Y-4.7862
X2.4228Y-5.1811
X2.423Y-3.8326
X2.4258Y-6.263
X2.4266Y-5.0319
X2.4267Y-4.942
X2.4283Y-5.9346
X2.4301Y-5.4557
X2.4331Y-4.1781
X2.442Y-4.7173
X2.4464Y-3.8976
X2.4472Y-4.5751
X2.4496Y-6.3302
X2.4504Y-6.3831
X2.4547Y-6.1969
X2.46Y-5.2928
X2.4606Y-6.5744
X2.4634Y-5.0792
X2.465Y-5.3272
X2.4697Y-5.8099
X2.4719Y-3.7867
X2.4803Y-4.1772
X2.4849Y-6.0035
X2.4851Y-6.2757
X2.489Y-4.2705
X2.4891Y-4.965
X2.49Y-4.75
X2.49Y-4.81
X2.4902Y-5.8268
X2.4912Y-3.8487
X2.4925Y-5.1439
X2.4941Y-5.9114
X2.4961Y-5.2559
X2.4986Y-5.7783
X2.499Y-5.8045
X2.4998Y-5.7554
X2.5Y-4.78
X2.5059Y-5.5679
X2.51Y-3.96
X2.5118Y-5.7096
X2.5125Y-5.0345
X2.513Y-5.3708
X2.5132Y-4.0322
X2.5157Y-5.6516
X2.5232Y-5.289
X2.53Y-6.04
X2.5308Y-6.3244
X2.5318Y-5.6692
X2.5333Y-4.1437
X2.534Y-5.102
X2.5362Y-6.4791
X2.5371Y-5.7042
X2.5385Y-4.8898
X2.5492Y-5.6841
X2.5531Y-5.5215
X2.5539Y-4.2194
X2.5547Y-6.1473
X2.5571Y-5.873
X2.5571Y-4.3096
X2.5579Y-5.9508
X2.5591Y-6.2835
X2.5599Y-6.2304
X2.5605Y-4.7832
X2.5614Y-6.574
X2.5622Y-5.1862
X2.5623Y-4.9809
X2.5728Y-5.0713
X2.5738Y-5.9783
X2.5779Y-4.8545
X2.5992Y-4.5317
X2.5999Y-4.9224
X2.6018Y-4.436
X2.6034Y-4.2557
X2.6046Y-4.1658
X2.606Y-4.3531
X2.6102Y-5.4646
X2.6236Y-6.3669
X2.6243Y-5.5746
X2.6358Y-6.4791
X2.6433Y-3.5806
X2.6449Y-4.4866
X2.6453Y-4.2996
X2.6461Y-4.4009
X2.6469Y-4.12
X2.6493Y-4.5825
X2.6496Y-5.0127
X2.6503Y-4.031
X2.6508Y-4.2169
X2.6565Y-3.6467
X2.6575Y-3.9787
X2.6579Y-3.9335
X2.661Y-6.5689
X2.6624Y-5.877
X2.6624Y-5.9675
X2.6626Y-3.8854
X2.6671Y-6.1035
X2.6693Y-3.8382
X2.6722Y-5.6073
X2.6732Y-5.0559
X2.6732Y-5.1053
X2.6736Y-5.1673
X2.6756Y-3.7909
X2.6761Y-4.8249
X2.6908Y-3.7137
X2.6909Y-3.6278
X2.6918Y-4.6259
X2.6931Y-4.4413
X2.6935Y-4.3503
X2.6976Y-4.2597
X2.6979Y-4.1707
X2.6987Y-4.9348
X2.7176Y-4.9219
X2.7343Y-4.9057
X2.7346Y-4.401
X2.736Y-4.5747
X2.7362Y-5.8701
X2.7376Y-3.5819
X2.7376Y-4.6682
X2.7421Y-4.3035
X2.7429Y-3.6666
X2.7431Y-4.2152
X2.7432Y-4.4847
X2.7509Y-4.8869
X2.759Y-6.4875
X2.7598Y-6.2441
X2.7598Y-6.3071
X2.7616Y-3.8268
X2.7645Y-6.1728
X2.7653Y-3.92
X2.7665Y-4.0101
X2.7667Y-4.8593
X2.7668Y-3.7416
X2.7797Y-4.1741
X2.78Y-6.0
X2.7803Y-6.6444
X2.7828Y-4.2553
X2.7834Y-4.3461
X2.7835Y-6.5516
X2.7848Y-3.6244
X2.7856Y-4.4369
X2.7864Y-4.7151
X2.7865Y-4.8406
X2.7871Y-4.6185
X2.7892Y-4.0761
X2.8027Y-6.4364
X2.8028Y-3.6956
X2.8033Y-6.2127
X2.8041Y-4.8708
X2.8053Y-3.8766
X2.8076Y-4.9606
X2.8084Y-4.5581
X2.8092Y-3.7789
X2.8094Y-3.9585
X2.8169Y-4.7628
X2.8251Y-4.6633
X2.8258Y-3.5826
X2.8266Y-4.3968
X2.8268Y-5.8504
X2.8276Y-5.9917
X2.8276Y-4.1268
X2.8281Y-4.4876
X2.8293Y-4.0369
X2.83Y-4.2118
X2.8304Y-5.4895
X2.832Y-5.4213
X2.8326Y-6.5939
X2.8338Y-4.3039
X2.8492Y-6.6698
X2.8505Y-6.5349
X2.8516Y-3.8248
X2.8545Y-3.7381
X2.8545Y-3.9243
X2.8569Y-3.6408
X2.8587Y-4.6004
X2.8713Y-4.1633
X2.874Y-4.5312
X2.875Y-3.983
X2.8802Y-4.351
X2.8808Y-4.2578
X2.881Y-4.4448
X2.881Y-4.0752
X2.8814Y-5.1238
X2.8898Y-6.1614
X2.8937Y-6.6181
X2.8951Y-6.4408
X2.8965Y-4.873
X2.8973Y-3.6913
X2.898Y-3.6038
X2.8991Y-3.8724
X2.8993Y-4.7788
X2.9001Y-3.7777
X2.9003Y-5.194
X2.9016Y-6.5394
X2.9019Y-4.6478
X2.9159Y-6.2157
X2.917Y-4.4887
X2.9183Y-5.4448
X2.9192Y-4.308
X2.9201Y-4.214
X2.9203Y-4.5797
X2.9203Y-4.3978
X2.9222Y-3.9411
X2.9244Y-4.0347
X2.9248Y-4.7174
X2.9249Y-4.123
X2.9263Y-5.0718
X2.937Y-6.3181
X2.9391Y-3.6509
X2.9396Y-6.668
X2.9399Y-6.4903
X2.9409Y-3.8331
X2.9438Y-3.7389
X2.9439Y-5.5394
X2.9478Y-4.8303
X2.9485Y-5.1443
X2.9613Y-3.8971
X2.9622Y-3.5762
X2.9633Y-5.0278
X2.9642Y-4.3511
X2.965Y-3.9816
X2.966Y-4.6239
X2.9662Y-6.1433
X2.9666Y-4.0752
X2.9671Y-4.7622
X2.9671Y-5.392
X2.9674Y-5.93
X2.9682Y-4.4403
X2.9684Y-4.5356
X2.9708Y-4.1697
X2.9711Y-4.2578
X2.9861Y-6.4406
X2.9864Y-5.4632
X2.9872Y-4.9754
X2.9883Y-3.7777
X2.9933Y-3.6967
X2.9942Y-4.6873
X2.9961Y-4.8327
X3.0012Y-5.6736
X3.0067Y-3.8475
X3.0094Y-3.9422
X3.011Y-4.5737
X3.0111Y-4.2127
X3.0116Y-4.1246
X3.0124Y-4.3961
X3.0134Y-4.0298
X3.0153Y-4.4877
X3.0162Y-4.8085
X3.0163Y-6.0139
X3.0165Y-4.9844
X3.0172Y-4.307
X3.0176Y-3.6225
X3.0276Y-5.4163
X3.0276Y-6.3268
X3.0276Y-6.4409
X3.0303Y-5.0531
X3.0329Y-5.3712
X3.0333Y-4.6512
X3.0348Y-5.1625
X3.0373Y-5.2562
X3.0377Y-3.7348
X3.0383Y-6.173
X3.05Y-4.92
X3.0528Y-4.172
X3.0531Y-3.6743
X3.0541Y-3.5792
X3.0548Y-3.9851
X3.0553Y-3.8051
X3.0575Y-3.9005
X3.0578Y-4.3508
X3.058Y-4.2566
X3.0591Y-4.7894
X3.0593Y-4.4398
X3.0594Y-4.7524
X3.0597Y-4.5279
X3.06Y-4.86
X3.0612Y-4.0733
X3.0757Y-4.6053
X3.0758Y-6.445
X3.0807Y-5.6742
X3.0833Y-6.327
X3.0979Y-4.1176
X3.0984Y-6.1457
X3.0984Y-6.1929
X3.0985Y-4.2152
X3.0991Y-3.8537
X3.1003Y-3.6288
X3.1018Y-3.7098
X3.102Y-4.0278
X3.1024Y-6.0748
X3.1025Y-3.9362
X3.1039Y-5.0342
X3.1062Y-5.396
X3.108Y-4.3951
X3.1083Y-4.4817
X3.1083Y-4.3087
X3.122Y-6.4724
T2
X1.8366Y-6.207
X1.9173Y-6.207
X1.9961Y-6.207
X2.3228Y-6.3661
X3.0643Y-6.0495
T3
X2.2884Y-4.4547
X2.31Y-4.4025
X2.31Y-4.5069
X2.3622Y-4.3809
X2.3622Y-4.5285
X2.4144Y-4.4025
X2.4144Y-4.5069
X2.436Y-4.4547
X2.9577Y-6.5768
X2.9793Y-6.5246
X2.9793Y-6.629
X3.0315Y-6.503
X3.0315Y-6.6506
X3.0837Y-6.5246
X3.0837Y-6.629
X3.1053Y-6.5768
X1.6191Y-6.5748
X1.6407Y-6.5226
X1.6407Y-6.627
X1.6929Y-6.501
X1.6929Y-6.6486
X1.7451Y-6.5226
X1.7451Y-6.627
X1.7667Y-6.5748
T4
X2.2175Y-5.1864
X2.2175Y-5.2364
X2.2175Y-5.2864
X2.2126Y-4.2441
X2.2626Y-4.2441
X2.3126Y-4.2441
X2.3626Y-4.2441
X2.4126Y-4.2441
X2.4626Y-4.2441
X2.5126Y-4.2441
X2.7126Y-3.7974
X2.7126Y-3.8474
X2.7126Y-3.8974
X2.7126Y-3.9474
X2.7126Y-3.9974
X2.7126Y-4.0474
X2.7126Y-4.0974
X2.6102Y-5.0315
X2.6102Y-5.0815
X2.6102Y-5.1315
X2.6102Y-5.1815
X2.6102Y-5.2315
X2.6102Y-5.2815
X2.2051Y-4.7638
X2.2551Y-4.7638
X2.3051Y-4.7638
X2.122Y-6.0181
X2.122Y-6.0681
X2.122Y-6.1181
T5
X2.1117Y-6.4284
X2.1117Y-6.5284
X2.1117Y-6.6284
X2.5117Y-6.4284
X2.5117Y-6.5284
X2.5117Y-6.6284
X2.3117Y-6.4284
X2.3117Y-6.5284
X2.3117Y-6.6284
X2.7117Y-6.4284
X2.7117Y-6.5284
X2.7117Y-6.6284
X2.2117Y-6.4284
X2.2117Y-6.5284
X2.2117Y-6.6284
X2.0122Y-6.4284
X2.0122Y-6.5284
X2.0122Y-6.6284
X2.6117Y-6.4284
X2.6117Y-6.5284
X2.6117Y-6.6284
X2.4117Y-6.4284
X2.4117Y-6.5284
X2.4117Y-6.6284
T6
X3.0512Y-5.7465
X3.0512Y-5.8465
T7
X2.3622Y-4.4547
X3.0315Y-6.5768
X1.6929Y-6.5748
T0
M30
