%TF.GenerationSoftware,KiCad,Pcbnew,5.1.9+dfsg1-1~bpo10+1*%
%TF.CreationDate,2021-02-26T10:21:24+00:00*%
%TF.ProjectId,glider,676c6964-6572-42e6-9b69-6361645f7063,rev?*%
%TF.SameCoordinates,Original*%
%TF.FileFunction,Soldermask,Bot*%
%TF.FilePolarity,Negative*%
%FSLAX46Y46*%
G04 Gerber Fmt 4.6, Leading zero omitted, Abs format (unit mm)*
G04 Created by KiCad (PCBNEW 5.1.9+dfsg1-1~bpo10+1) date 2021-02-26 10:21:24*
%MOMM*%
%LPD*%
G01*
G04 APERTURE LIST*
%ADD10C,0.100000*%
%ADD11C,1.100000*%
%ADD12O,1.100000X1.100000*%
%ADD13O,1.800000X1.800000*%
%ADD14C,0.900000*%
%ADD15C,5.100000*%
%ADD16O,2.250000X0.800000*%
%ADD17O,0.800000X2.250000*%
G04 APERTURE END LIST*
D10*
%TO.C,JP1*%
G36*
X64884755Y-154950961D02*
G01*
X64894134Y-154953806D01*
X64902779Y-154958427D01*
X64910355Y-154964645D01*
X64916603Y-154972265D01*
X65416603Y-155722265D01*
X65421214Y-155730914D01*
X65424049Y-155740297D01*
X65425000Y-155750052D01*
X65424029Y-155759806D01*
X65421174Y-155769182D01*
X65416603Y-155777735D01*
X64916603Y-156527735D01*
X64910392Y-156535318D01*
X64902822Y-156541544D01*
X64894182Y-156546174D01*
X64884806Y-156549029D01*
X64875000Y-156550000D01*
X63875000Y-156550000D01*
X63865245Y-156549039D01*
X63855866Y-156546194D01*
X63847221Y-156541573D01*
X63839645Y-156535355D01*
X63833427Y-156527779D01*
X63828806Y-156519134D01*
X63825961Y-156509755D01*
X63825000Y-156500000D01*
X63825000Y-155000000D01*
X63825961Y-154990245D01*
X63828806Y-154980866D01*
X63833427Y-154972221D01*
X63839645Y-154964645D01*
X63847221Y-154958427D01*
X63855866Y-154953806D01*
X63865245Y-154950961D01*
X63875000Y-154950000D01*
X64875000Y-154950000D01*
X64884755Y-154950961D01*
G37*
G36*
X66334755Y-154950961D02*
G01*
X66344134Y-154953806D01*
X66352779Y-154958427D01*
X66360355Y-154964645D01*
X66366573Y-154972221D01*
X66371194Y-154980866D01*
X66374039Y-154990245D01*
X66375000Y-155000000D01*
X66375000Y-156500000D01*
X66374039Y-156509755D01*
X66371194Y-156519134D01*
X66366573Y-156527779D01*
X66360355Y-156535355D01*
X66352779Y-156541573D01*
X66344134Y-156546194D01*
X66334755Y-156549039D01*
X66325000Y-156550000D01*
X65175000Y-156550000D01*
X65165245Y-156549039D01*
X65155866Y-156546194D01*
X65147221Y-156541573D01*
X65139645Y-156535355D01*
X65133427Y-156527779D01*
X65128806Y-156519134D01*
X65125961Y-156509755D01*
X65125000Y-156500000D01*
X65125961Y-156490245D01*
X65128806Y-156480866D01*
X65133397Y-156472265D01*
X65614907Y-155750000D01*
X65133397Y-155027735D01*
X65128786Y-155019086D01*
X65125951Y-155009703D01*
X65125000Y-154999948D01*
X65125971Y-154990194D01*
X65128826Y-154980818D01*
X65133456Y-154972178D01*
X65139682Y-154964608D01*
X65147265Y-154958397D01*
X65155914Y-154953786D01*
X65165297Y-154950951D01*
X65175000Y-154950000D01*
X66325000Y-154950000D01*
X66334755Y-154950961D01*
G37*
%TD*%
%TO.C,JP2*%
G36*
X64884755Y-153450961D02*
G01*
X64894134Y-153453806D01*
X64902779Y-153458427D01*
X64910355Y-153464645D01*
X64916603Y-153472265D01*
X65416603Y-154222265D01*
X65421214Y-154230914D01*
X65424049Y-154240297D01*
X65425000Y-154250052D01*
X65424029Y-154259806D01*
X65421174Y-154269182D01*
X65416603Y-154277735D01*
X64916603Y-155027735D01*
X64910392Y-155035318D01*
X64902822Y-155041544D01*
X64894182Y-155046174D01*
X64884806Y-155049029D01*
X64875000Y-155050000D01*
X63875000Y-155050000D01*
X63865245Y-155049039D01*
X63855866Y-155046194D01*
X63847221Y-155041573D01*
X63839645Y-155035355D01*
X63833427Y-155027779D01*
X63828806Y-155019134D01*
X63825961Y-155009755D01*
X63825000Y-155000000D01*
X63825000Y-153500000D01*
X63825961Y-153490245D01*
X63828806Y-153480866D01*
X63833427Y-153472221D01*
X63839645Y-153464645D01*
X63847221Y-153458427D01*
X63855866Y-153453806D01*
X63865245Y-153450961D01*
X63875000Y-153450000D01*
X64875000Y-153450000D01*
X64884755Y-153450961D01*
G37*
G36*
X66334755Y-153450961D02*
G01*
X66344134Y-153453806D01*
X66352779Y-153458427D01*
X66360355Y-153464645D01*
X66366573Y-153472221D01*
X66371194Y-153480866D01*
X66374039Y-153490245D01*
X66375000Y-153500000D01*
X66375000Y-155000000D01*
X66374039Y-155009755D01*
X66371194Y-155019134D01*
X66366573Y-155027779D01*
X66360355Y-155035355D01*
X66352779Y-155041573D01*
X66344134Y-155046194D01*
X66334755Y-155049039D01*
X66325000Y-155050000D01*
X65175000Y-155050000D01*
X65165245Y-155049039D01*
X65155866Y-155046194D01*
X65147221Y-155041573D01*
X65139645Y-155035355D01*
X65133427Y-155027779D01*
X65128806Y-155019134D01*
X65125961Y-155009755D01*
X65125000Y-155000000D01*
X65125961Y-154990245D01*
X65128806Y-154980866D01*
X65133397Y-154972265D01*
X65614907Y-154250000D01*
X65133397Y-153527735D01*
X65128786Y-153519086D01*
X65125951Y-153509703D01*
X65125000Y-153499948D01*
X65125971Y-153490194D01*
X65128826Y-153480818D01*
X65133456Y-153472178D01*
X65139682Y-153464608D01*
X65147265Y-153458397D01*
X65155914Y-153453786D01*
X65165297Y-153450951D01*
X65175000Y-153450000D01*
X66325000Y-153450000D01*
X66334755Y-153450961D01*
G37*
%TD*%
%TO.C,R25*%
G36*
G01*
X62925000Y-147856250D02*
X62925000Y-147293750D01*
G75*
G02*
X63168750Y-147050000I243750J0D01*
G01*
X63656250Y-147050000D01*
G75*
G02*
X63900000Y-147293750I0J-243750D01*
G01*
X63900000Y-147856250D01*
G75*
G02*
X63656250Y-148100000I-243750J0D01*
G01*
X63168750Y-148100000D01*
G75*
G02*
X62925000Y-147856250I0J243750D01*
G01*
G37*
G36*
G01*
X61350000Y-147856250D02*
X61350000Y-147293750D01*
G75*
G02*
X61593750Y-147050000I243750J0D01*
G01*
X62081250Y-147050000D01*
G75*
G02*
X62325000Y-147293750I0J-243750D01*
G01*
X62325000Y-147856250D01*
G75*
G02*
X62081250Y-148100000I-243750J0D01*
G01*
X61593750Y-148100000D01*
G75*
G02*
X61350000Y-147856250I0J243750D01*
G01*
G37*
%TD*%
D11*
%TO.C,TP4*%
X74050000Y-137700000D03*
%TD*%
%TO.C,TP3*%
X32950000Y-123575000D03*
%TD*%
%TO.C,TP2*%
X32950000Y-125650000D03*
%TD*%
%TO.C,TP1*%
X54090000Y-138270000D03*
%TD*%
%TO.C,J3*%
G36*
G01*
X52095000Y-153650000D02*
X53145000Y-153650000D01*
G75*
G02*
X53670000Y-154175000I0J-525000D01*
G01*
X53670000Y-156025000D01*
G75*
G02*
X53145000Y-156550000I-525000J0D01*
G01*
X52095000Y-156550000D01*
G75*
G02*
X51570000Y-156025000I0J525000D01*
G01*
X51570000Y-154175000D01*
G75*
G02*
X52095000Y-153650000I525000J0D01*
G01*
G37*
G36*
G01*
X54635000Y-153650000D02*
X55685000Y-153650000D01*
G75*
G02*
X56210000Y-154175000I0J-525000D01*
G01*
X56210000Y-156025000D01*
G75*
G02*
X55685000Y-156550000I-525000J0D01*
G01*
X54635000Y-156550000D01*
G75*
G02*
X54110000Y-156025000I0J525000D01*
G01*
X54110000Y-154175000D01*
G75*
G02*
X54635000Y-153650000I525000J0D01*
G01*
G37*
G36*
G01*
X57175000Y-153650000D02*
X58225000Y-153650000D01*
G75*
G02*
X58750000Y-154175000I0J-525000D01*
G01*
X58750000Y-156025000D01*
G75*
G02*
X58225000Y-156550000I-525000J0D01*
G01*
X57175000Y-156550000D01*
G75*
G02*
X56650000Y-156025000I0J525000D01*
G01*
X56650000Y-154175000D01*
G75*
G02*
X57175000Y-153650000I525000J0D01*
G01*
G37*
%TD*%
%TO.C,D7*%
G36*
G01*
X76950000Y-154290000D02*
X76950000Y-153090000D01*
G75*
G02*
X77000000Y-153040000I50000J0D01*
G01*
X77900000Y-153040000D01*
G75*
G02*
X77950000Y-153090000I0J-50000D01*
G01*
X77950000Y-154290000D01*
G75*
G02*
X77900000Y-154340000I-50000J0D01*
G01*
X77000000Y-154340000D01*
G75*
G02*
X76950000Y-154290000I0J50000D01*
G01*
G37*
G36*
G01*
X80250000Y-154290000D02*
X80250000Y-153090000D01*
G75*
G02*
X80300000Y-153040000I50000J0D01*
G01*
X81200000Y-153040000D01*
G75*
G02*
X81250000Y-153090000I0J-50000D01*
G01*
X81250000Y-154290000D01*
G75*
G02*
X81200000Y-154340000I-50000J0D01*
G01*
X80300000Y-154340000D01*
G75*
G02*
X80250000Y-154290000I0J50000D01*
G01*
G37*
%TD*%
D12*
%TO.C,J15*%
X47435000Y-130650000D03*
X46165000Y-130650000D03*
X44895000Y-130650000D03*
G36*
G01*
X44125000Y-131200000D02*
X43125000Y-131200000D01*
G75*
G02*
X43075000Y-131150000I0J50000D01*
G01*
X43075000Y-130150000D01*
G75*
G02*
X43125000Y-130100000I50000J0D01*
G01*
X44125000Y-130100000D01*
G75*
G02*
X44175000Y-130150000I0J-50000D01*
G01*
X44175000Y-131150000D01*
G75*
G02*
X44125000Y-131200000I-50000J0D01*
G01*
G37*
%TD*%
%TO.C,J14*%
G36*
G01*
X89460000Y-148275000D02*
X89460000Y-149975000D01*
G75*
G02*
X89410000Y-150025000I-50000J0D01*
G01*
X87710000Y-150025000D01*
G75*
G02*
X87660000Y-149975000I0J50000D01*
G01*
X87660000Y-148275000D01*
G75*
G02*
X87710000Y-148225000I50000J0D01*
G01*
X89410000Y-148225000D01*
G75*
G02*
X89460000Y-148275000I0J-50000D01*
G01*
G37*
D13*
X88560000Y-146585000D03*
X88560000Y-144045000D03*
X88560000Y-141505000D03*
X88560000Y-138965000D03*
%TD*%
%TO.C,J17*%
X88560000Y-134650000D03*
X88560000Y-132110000D03*
X88560000Y-129570000D03*
X88560000Y-127030000D03*
G36*
G01*
X87660000Y-125340000D02*
X87660000Y-123640000D01*
G75*
G02*
X87710000Y-123590000I50000J0D01*
G01*
X89410000Y-123590000D01*
G75*
G02*
X89460000Y-123640000I0J-50000D01*
G01*
X89460000Y-125340000D01*
G75*
G02*
X89410000Y-125390000I-50000J0D01*
G01*
X87710000Y-125390000D01*
G75*
G02*
X87660000Y-125340000I0J50000D01*
G01*
G37*
%TD*%
D14*
%TO.C,H4*%
X89025825Y-155075825D03*
X89575000Y-153750000D03*
X89025825Y-152424175D03*
X87700000Y-151875000D03*
X86374175Y-152424175D03*
X85825000Y-153750000D03*
X86374175Y-155075825D03*
X87700000Y-155625000D03*
D15*
X87700000Y-153750000D03*
%TD*%
%TO.C,LS1*%
G36*
G01*
X38550000Y-152050000D02*
X38550000Y-148050000D01*
G75*
G02*
X38600000Y-148000000I50000J0D01*
G01*
X39800000Y-148000000D01*
G75*
G02*
X39850000Y-148050000I0J-50000D01*
G01*
X39850000Y-152050000D01*
G75*
G02*
X39800000Y-152100000I-50000J0D01*
G01*
X38600000Y-152100000D01*
G75*
G02*
X38550000Y-152050000I0J50000D01*
G01*
G37*
G36*
G01*
X49750000Y-152050000D02*
X49750000Y-148050000D01*
G75*
G02*
X49800000Y-148000000I50000J0D01*
G01*
X51000000Y-148000000D01*
G75*
G02*
X51050000Y-148050000I0J-50000D01*
G01*
X51050000Y-152050000D01*
G75*
G02*
X51000000Y-152100000I-50000J0D01*
G01*
X49800000Y-152100000D01*
G75*
G02*
X49750000Y-152050000I0J50000D01*
G01*
G37*
%TD*%
%TO.C,R15*%
G36*
G01*
X44500000Y-142818750D02*
X44500000Y-143381250D01*
G75*
G02*
X44256250Y-143625000I-243750J0D01*
G01*
X43768750Y-143625000D01*
G75*
G02*
X43525000Y-143381250I0J243750D01*
G01*
X43525000Y-142818750D01*
G75*
G02*
X43768750Y-142575000I243750J0D01*
G01*
X44256250Y-142575000D01*
G75*
G02*
X44500000Y-142818750I0J-243750D01*
G01*
G37*
G36*
G01*
X46075000Y-142818750D02*
X46075000Y-143381250D01*
G75*
G02*
X45831250Y-143625000I-243750J0D01*
G01*
X45343750Y-143625000D01*
G75*
G02*
X45100000Y-143381250I0J243750D01*
G01*
X45100000Y-142818750D01*
G75*
G02*
X45343750Y-142575000I243750J0D01*
G01*
X45831250Y-142575000D01*
G75*
G02*
X46075000Y-142818750I0J-243750D01*
G01*
G37*
%TD*%
%TO.C,Q4*%
G36*
G01*
X47750000Y-141650000D02*
X47750000Y-142450000D01*
G75*
G02*
X47700000Y-142500000I-50000J0D01*
G01*
X46800000Y-142500000D01*
G75*
G02*
X46750000Y-142450000I0J50000D01*
G01*
X46750000Y-141650000D01*
G75*
G02*
X46800000Y-141600000I50000J0D01*
G01*
X47700000Y-141600000D01*
G75*
G02*
X47750000Y-141650000I0J-50000D01*
G01*
G37*
G36*
G01*
X49750000Y-142600000D02*
X49750000Y-143400000D01*
G75*
G02*
X49700000Y-143450000I-50000J0D01*
G01*
X48800000Y-143450000D01*
G75*
G02*
X48750000Y-143400000I0J50000D01*
G01*
X48750000Y-142600000D01*
G75*
G02*
X48800000Y-142550000I50000J0D01*
G01*
X49700000Y-142550000D01*
G75*
G02*
X49750000Y-142600000I0J-50000D01*
G01*
G37*
G36*
G01*
X49750000Y-140700000D02*
X49750000Y-141500000D01*
G75*
G02*
X49700000Y-141550000I-50000J0D01*
G01*
X48800000Y-141550000D01*
G75*
G02*
X48750000Y-141500000I0J50000D01*
G01*
X48750000Y-140700000D01*
G75*
G02*
X48800000Y-140650000I50000J0D01*
G01*
X49700000Y-140650000D01*
G75*
G02*
X49750000Y-140700000I0J-50000D01*
G01*
G37*
%TD*%
%TO.C,C26*%
G36*
G01*
X54322500Y-121310000D02*
X53927500Y-121310000D01*
G75*
G02*
X53755000Y-121137500I0J172500D01*
G01*
X53755000Y-120792500D01*
G75*
G02*
X53927500Y-120620000I172500J0D01*
G01*
X54322500Y-120620000D01*
G75*
G02*
X54495000Y-120792500I0J-172500D01*
G01*
X54495000Y-121137500D01*
G75*
G02*
X54322500Y-121310000I-172500J0D01*
G01*
G37*
G36*
G01*
X54322500Y-122280000D02*
X53927500Y-122280000D01*
G75*
G02*
X53755000Y-122107500I0J172500D01*
G01*
X53755000Y-121762500D01*
G75*
G02*
X53927500Y-121590000I172500J0D01*
G01*
X54322500Y-121590000D01*
G75*
G02*
X54495000Y-121762500I0J-172500D01*
G01*
X54495000Y-122107500D01*
G75*
G02*
X54322500Y-122280000I-172500J0D01*
G01*
G37*
%TD*%
%TO.C,F1*%
G36*
G01*
X60595000Y-151975000D02*
X62805000Y-151975000D01*
G75*
G02*
X63075000Y-152245000I0J-270000D01*
G01*
X63075000Y-153055000D01*
G75*
G02*
X62805000Y-153325000I-270000J0D01*
G01*
X60595000Y-153325000D01*
G75*
G02*
X60325000Y-153055000I0J270000D01*
G01*
X60325000Y-152245000D01*
G75*
G02*
X60595000Y-151975000I270000J0D01*
G01*
G37*
G36*
G01*
X60595000Y-149175000D02*
X62805000Y-149175000D01*
G75*
G02*
X63075000Y-149445000I0J-270000D01*
G01*
X63075000Y-150255000D01*
G75*
G02*
X62805000Y-150525000I-270000J0D01*
G01*
X60595000Y-150525000D01*
G75*
G02*
X60325000Y-150255000I0J270000D01*
G01*
X60325000Y-149445000D01*
G75*
G02*
X60595000Y-149175000I270000J0D01*
G01*
G37*
%TD*%
D14*
%TO.C,H3*%
X89025825Y-121100825D03*
X89575000Y-119775000D03*
X89025825Y-118449175D03*
X87700000Y-117900000D03*
X86374175Y-118449175D03*
X85825000Y-119775000D03*
X86374175Y-121100825D03*
X87700000Y-121650000D03*
D15*
X87700000Y-119775000D03*
%TD*%
%TO.C,R12*%
G36*
G01*
X67372500Y-120310000D02*
X66977500Y-120310000D01*
G75*
G02*
X66805000Y-120137500I0J172500D01*
G01*
X66805000Y-119792500D01*
G75*
G02*
X66977500Y-119620000I172500J0D01*
G01*
X67372500Y-119620000D01*
G75*
G02*
X67545000Y-119792500I0J-172500D01*
G01*
X67545000Y-120137500D01*
G75*
G02*
X67372500Y-120310000I-172500J0D01*
G01*
G37*
G36*
G01*
X67372500Y-121280000D02*
X66977500Y-121280000D01*
G75*
G02*
X66805000Y-121107500I0J172500D01*
G01*
X66805000Y-120762500D01*
G75*
G02*
X66977500Y-120590000I172500J0D01*
G01*
X67372500Y-120590000D01*
G75*
G02*
X67545000Y-120762500I0J-172500D01*
G01*
X67545000Y-121107500D01*
G75*
G02*
X67372500Y-121280000I-172500J0D01*
G01*
G37*
%TD*%
%TO.C,J18*%
G36*
G01*
X66400000Y-135500000D02*
X65400000Y-135500000D01*
G75*
G02*
X65350000Y-135450000I0J50000D01*
G01*
X65350000Y-134450000D01*
G75*
G02*
X65400000Y-134400000I50000J0D01*
G01*
X66400000Y-134400000D01*
G75*
G02*
X66450000Y-134450000I0J-50000D01*
G01*
X66450000Y-135450000D01*
G75*
G02*
X66400000Y-135500000I-50000J0D01*
G01*
G37*
D12*
X67170000Y-134950000D03*
X68440000Y-134950000D03*
X69710000Y-134950000D03*
X70980000Y-134950000D03*
X72250000Y-134950000D03*
%TD*%
D13*
%TO.C,J13*%
X37419000Y-127860000D03*
X34879000Y-127860000D03*
G36*
G01*
X33189000Y-128760000D02*
X31489000Y-128760000D01*
G75*
G02*
X31439000Y-128710000I0J50000D01*
G01*
X31439000Y-127010000D01*
G75*
G02*
X31489000Y-126960000I50000J0D01*
G01*
X33189000Y-126960000D01*
G75*
G02*
X33239000Y-127010000I0J-50000D01*
G01*
X33239000Y-128710000D01*
G75*
G02*
X33189000Y-128760000I-50000J0D01*
G01*
G37*
%TD*%
D14*
%TO.C,H2*%
X34975825Y-155075825D03*
X35525000Y-153750000D03*
X34975825Y-152424175D03*
X33650000Y-151875000D03*
X32324175Y-152424175D03*
X31775000Y-153750000D03*
X32324175Y-155075825D03*
X33650000Y-155625000D03*
D15*
X33650000Y-153750000D03*
%TD*%
D14*
%TO.C,H1*%
X35025825Y-121075825D03*
X35575000Y-119750000D03*
X35025825Y-118424175D03*
X33700000Y-117875000D03*
X32374175Y-118424175D03*
X31825000Y-119750000D03*
X32374175Y-121075825D03*
X33700000Y-121625000D03*
D15*
X33700000Y-119750000D03*
%TD*%
D12*
%TO.C,J16*%
X65920000Y-131840000D03*
X67190000Y-131840000D03*
G36*
G01*
X67960000Y-131290000D02*
X68960000Y-131290000D01*
G75*
G02*
X69010000Y-131340000I0J-50000D01*
G01*
X69010000Y-132340000D01*
G75*
G02*
X68960000Y-132390000I-50000J0D01*
G01*
X67960000Y-132390000D01*
G75*
G02*
X67910000Y-132340000I0J50000D01*
G01*
X67910000Y-131340000D01*
G75*
G02*
X67960000Y-131290000I50000J0D01*
G01*
G37*
%TD*%
D16*
%TO.C,U8*%
X55900000Y-129950000D03*
X65500000Y-129950000D03*
X55900000Y-117800000D03*
X55900000Y-118950000D03*
X55900000Y-119950000D03*
X55900000Y-120950000D03*
X55900000Y-121950000D03*
X55900000Y-122950000D03*
X55900000Y-123950000D03*
X55900000Y-124950000D03*
X55900000Y-125950000D03*
X55900000Y-126950000D03*
X55900000Y-127950000D03*
X55900000Y-128950000D03*
D17*
X58700000Y-130700000D03*
X59700000Y-130700000D03*
X60700000Y-130700000D03*
X61700000Y-130700000D03*
X62700000Y-130700000D03*
D16*
X65500000Y-128950000D03*
X65500000Y-127950000D03*
X65500000Y-126950000D03*
X65500000Y-125950000D03*
X65500000Y-124950000D03*
X65500000Y-123950000D03*
X65500000Y-122950000D03*
X65500000Y-121950000D03*
X65500000Y-120950000D03*
X65500000Y-119950000D03*
X65500000Y-118950000D03*
X65500000Y-117800000D03*
%TD*%
%TO.C,R2*%
G36*
G01*
X54005000Y-150500000D02*
X51795000Y-150500000D01*
G75*
G02*
X51525000Y-150230000I0J270000D01*
G01*
X51525000Y-149420000D01*
G75*
G02*
X51795000Y-149150000I270000J0D01*
G01*
X54005000Y-149150000D01*
G75*
G02*
X54275000Y-149420000I0J-270000D01*
G01*
X54275000Y-150230000D01*
G75*
G02*
X54005000Y-150500000I-270000J0D01*
G01*
G37*
G36*
G01*
X54005000Y-153300000D02*
X51795000Y-153300000D01*
G75*
G02*
X51525000Y-153030000I0J270000D01*
G01*
X51525000Y-152220000D01*
G75*
G02*
X51795000Y-151950000I270000J0D01*
G01*
X54005000Y-151950000D01*
G75*
G02*
X54275000Y-152220000I0J-270000D01*
G01*
X54275000Y-153030000D01*
G75*
G02*
X54005000Y-153300000I-270000J0D01*
G01*
G37*
%TD*%
%TO.C,R7*%
G36*
G01*
X58881250Y-151875000D02*
X58318750Y-151875000D01*
G75*
G02*
X58075000Y-151631250I0J243750D01*
G01*
X58075000Y-151143750D01*
G75*
G02*
X58318750Y-150900000I243750J0D01*
G01*
X58881250Y-150900000D01*
G75*
G02*
X59125000Y-151143750I0J-243750D01*
G01*
X59125000Y-151631250D01*
G75*
G02*
X58881250Y-151875000I-243750J0D01*
G01*
G37*
G36*
G01*
X58881250Y-150300000D02*
X58318750Y-150300000D01*
G75*
G02*
X58075000Y-150056250I0J243750D01*
G01*
X58075000Y-149568750D01*
G75*
G02*
X58318750Y-149325000I243750J0D01*
G01*
X58881250Y-149325000D01*
G75*
G02*
X59125000Y-149568750I0J-243750D01*
G01*
X59125000Y-150056250D01*
G75*
G02*
X58881250Y-150300000I-243750J0D01*
G01*
G37*
%TD*%
D13*
%TO.C,J12*%
X37419000Y-130388000D03*
X34879000Y-130388000D03*
G36*
G01*
X33189000Y-131288000D02*
X31489000Y-131288000D01*
G75*
G02*
X31439000Y-131238000I0J50000D01*
G01*
X31439000Y-129538000D01*
G75*
G02*
X31489000Y-129488000I50000J0D01*
G01*
X33189000Y-129488000D01*
G75*
G02*
X33239000Y-129538000I0J-50000D01*
G01*
X33239000Y-131238000D01*
G75*
G02*
X33189000Y-131288000I-50000J0D01*
G01*
G37*
%TD*%
%TO.C,J11*%
X37419000Y-132928000D03*
X34879000Y-132928000D03*
G36*
G01*
X33189000Y-133828000D02*
X31489000Y-133828000D01*
G75*
G02*
X31439000Y-133778000I0J50000D01*
G01*
X31439000Y-132078000D01*
G75*
G02*
X31489000Y-132028000I50000J0D01*
G01*
X33189000Y-132028000D01*
G75*
G02*
X33239000Y-132078000I0J-50000D01*
G01*
X33239000Y-133778000D01*
G75*
G02*
X33189000Y-133828000I-50000J0D01*
G01*
G37*
%TD*%
%TO.C,J10*%
X37419000Y-135468000D03*
X34879000Y-135468000D03*
G36*
G01*
X33189000Y-136368000D02*
X31489000Y-136368000D01*
G75*
G02*
X31439000Y-136318000I0J50000D01*
G01*
X31439000Y-134618000D01*
G75*
G02*
X31489000Y-134568000I50000J0D01*
G01*
X33189000Y-134568000D01*
G75*
G02*
X33239000Y-134618000I0J-50000D01*
G01*
X33239000Y-136318000D01*
G75*
G02*
X33189000Y-136368000I-50000J0D01*
G01*
G37*
%TD*%
%TO.C,J9*%
X37419000Y-138008000D03*
X34879000Y-138008000D03*
G36*
G01*
X33189000Y-138908000D02*
X31489000Y-138908000D01*
G75*
G02*
X31439000Y-138858000I0J50000D01*
G01*
X31439000Y-137158000D01*
G75*
G02*
X31489000Y-137108000I50000J0D01*
G01*
X33189000Y-137108000D01*
G75*
G02*
X33239000Y-137158000I0J-50000D01*
G01*
X33239000Y-138858000D01*
G75*
G02*
X33189000Y-138908000I-50000J0D01*
G01*
G37*
%TD*%
%TO.C,J8*%
X37419000Y-140548000D03*
X34879000Y-140548000D03*
G36*
G01*
X33189000Y-141448000D02*
X31489000Y-141448000D01*
G75*
G02*
X31439000Y-141398000I0J50000D01*
G01*
X31439000Y-139698000D01*
G75*
G02*
X31489000Y-139648000I50000J0D01*
G01*
X33189000Y-139648000D01*
G75*
G02*
X33239000Y-139698000I0J-50000D01*
G01*
X33239000Y-141398000D01*
G75*
G02*
X33189000Y-141448000I-50000J0D01*
G01*
G37*
%TD*%
%TO.C,J7*%
X37419000Y-143088000D03*
X34879000Y-143088000D03*
G36*
G01*
X33189000Y-143988000D02*
X31489000Y-143988000D01*
G75*
G02*
X31439000Y-143938000I0J50000D01*
G01*
X31439000Y-142238000D01*
G75*
G02*
X31489000Y-142188000I50000J0D01*
G01*
X33189000Y-142188000D01*
G75*
G02*
X33239000Y-142238000I0J-50000D01*
G01*
X33239000Y-143938000D01*
G75*
G02*
X33189000Y-143988000I-50000J0D01*
G01*
G37*
%TD*%
%TO.C,J6*%
X37419000Y-145628000D03*
X34879000Y-145628000D03*
G36*
G01*
X33189000Y-146528000D02*
X31489000Y-146528000D01*
G75*
G02*
X31439000Y-146478000I0J50000D01*
G01*
X31439000Y-144778000D01*
G75*
G02*
X31489000Y-144728000I50000J0D01*
G01*
X33189000Y-144728000D01*
G75*
G02*
X33239000Y-144778000I0J-50000D01*
G01*
X33239000Y-146478000D01*
G75*
G02*
X33189000Y-146528000I-50000J0D01*
G01*
G37*
%TD*%
M02*
