%TF.GenerationSoftware,KiCad,Pcbnew,5.1.8+dfsg1-1~bpo10+1*%
%TF.CreationDate,2021-02-19T12:52:01+00:00*%
%TF.ProjectId,glider,676c6964-6572-42e6-9b69-6361645f7063,rev?*%
%TF.SameCoordinates,Original*%
%TF.FileFunction,Paste,Bot*%
%TF.FilePolarity,Positive*%
%FSLAX46Y46*%
G04 Gerber Fmt 4.6, Leading zero omitted, Abs format (unit mm)*
G04 Created by KiCad (PCBNEW 5.1.8+dfsg1-1~bpo10+1) date 2021-02-19 12:52:01*
%MOMM*%
%LPD*%
G01*
G04 APERTURE LIST*
%ADD10R,0.900000X0.800000*%
%ADD11R,3.400000X1.300000*%
%ADD12R,2.400000X0.740000*%
%ADD13O,0.700000X2.150000*%
%ADD14O,2.150000X0.700000*%
%ADD15R,2.200000X1.050000*%
%ADD16R,1.050000X1.000000*%
G04 APERTURE END LIST*
%TO.C,R31*%
G36*
G01*
X70600000Y-150293750D02*
X70600000Y-150806250D01*
G75*
G02*
X70381250Y-151025000I-218750J0D01*
G01*
X69943750Y-151025000D01*
G75*
G02*
X69725000Y-150806250I0J218750D01*
G01*
X69725000Y-150293750D01*
G75*
G02*
X69943750Y-150075000I218750J0D01*
G01*
X70381250Y-150075000D01*
G75*
G02*
X70600000Y-150293750I0J-218750D01*
G01*
G37*
G36*
G01*
X72175000Y-150293750D02*
X72175000Y-150806250D01*
G75*
G02*
X71956250Y-151025000I-218750J0D01*
G01*
X71518750Y-151025000D01*
G75*
G02*
X71300000Y-150806250I0J218750D01*
G01*
X71300000Y-150293750D01*
G75*
G02*
X71518750Y-150075000I218750J0D01*
G01*
X71956250Y-150075000D01*
G75*
G02*
X72175000Y-150293750I0J-218750D01*
G01*
G37*
%TD*%
D10*
%TO.C,Q3*%
X68675000Y-151550000D03*
X66675000Y-150600000D03*
X66675000Y-152500000D03*
%TD*%
D11*
%TO.C,LS1*%
X74500000Y-151800000D03*
X74500000Y-160500000D03*
%TD*%
%TO.C,C23*%
G36*
G01*
X44520000Y-136427500D02*
X44520000Y-136772500D01*
G75*
G02*
X44372500Y-136920000I-147500J0D01*
G01*
X44077500Y-136920000D01*
G75*
G02*
X43930000Y-136772500I0J147500D01*
G01*
X43930000Y-136427500D01*
G75*
G02*
X44077500Y-136280000I147500J0D01*
G01*
X44372500Y-136280000D01*
G75*
G02*
X44520000Y-136427500I0J-147500D01*
G01*
G37*
G36*
G01*
X45490000Y-136427500D02*
X45490000Y-136772500D01*
G75*
G02*
X45342500Y-136920000I-147500J0D01*
G01*
X45047500Y-136920000D01*
G75*
G02*
X44900000Y-136772500I0J147500D01*
G01*
X44900000Y-136427500D01*
G75*
G02*
X45047500Y-136280000I147500J0D01*
G01*
X45342500Y-136280000D01*
G75*
G02*
X45490000Y-136427500I0J-147500D01*
G01*
G37*
%TD*%
%TO.C,R21*%
G36*
G01*
X44362500Y-122655000D02*
X44017500Y-122655000D01*
G75*
G02*
X43870000Y-122507500I0J147500D01*
G01*
X43870000Y-122212500D01*
G75*
G02*
X44017500Y-122065000I147500J0D01*
G01*
X44362500Y-122065000D01*
G75*
G02*
X44510000Y-122212500I0J-147500D01*
G01*
X44510000Y-122507500D01*
G75*
G02*
X44362500Y-122655000I-147500J0D01*
G01*
G37*
G36*
G01*
X44362500Y-123625000D02*
X44017500Y-123625000D01*
G75*
G02*
X43870000Y-123477500I0J147500D01*
G01*
X43870000Y-123182500D01*
G75*
G02*
X44017500Y-123035000I147500J0D01*
G01*
X44362500Y-123035000D01*
G75*
G02*
X44510000Y-123182500I0J-147500D01*
G01*
X44510000Y-123477500D01*
G75*
G02*
X44362500Y-123625000I-147500J0D01*
G01*
G37*
%TD*%
%TO.C,R18*%
G36*
G01*
X43510000Y-123157500D02*
X43510000Y-123502500D01*
G75*
G02*
X43362500Y-123650000I-147500J0D01*
G01*
X43067500Y-123650000D01*
G75*
G02*
X42920000Y-123502500I0J147500D01*
G01*
X42920000Y-123157500D01*
G75*
G02*
X43067500Y-123010000I147500J0D01*
G01*
X43362500Y-123010000D01*
G75*
G02*
X43510000Y-123157500I0J-147500D01*
G01*
G37*
G36*
G01*
X44480000Y-123157500D02*
X44480000Y-123502500D01*
G75*
G02*
X44332500Y-123650000I-147500J0D01*
G01*
X44037500Y-123650000D01*
G75*
G02*
X43890000Y-123502500I0J147500D01*
G01*
X43890000Y-123157500D01*
G75*
G02*
X44037500Y-123010000I147500J0D01*
G01*
X44332500Y-123010000D01*
G75*
G02*
X44480000Y-123157500I0J-147500D01*
G01*
G37*
%TD*%
D12*
%TO.C,J5*%
X58050000Y-105640000D03*
X61950000Y-105640000D03*
X58050000Y-104370000D03*
X61950000Y-104370000D03*
X58050000Y-103100000D03*
X61950000Y-103100000D03*
X58050000Y-101830000D03*
X61950000Y-101830000D03*
X58050000Y-100560000D03*
X61950000Y-100560000D03*
%TD*%
%TO.C,R28*%
G36*
G01*
X77467750Y-142590000D02*
X77980250Y-142590000D01*
G75*
G02*
X78199000Y-142808750I0J-218750D01*
G01*
X78199000Y-143246250D01*
G75*
G02*
X77980250Y-143465000I-218750J0D01*
G01*
X77467750Y-143465000D01*
G75*
G02*
X77249000Y-143246250I0J218750D01*
G01*
X77249000Y-142808750D01*
G75*
G02*
X77467750Y-142590000I218750J0D01*
G01*
G37*
G36*
G01*
X77467750Y-141015000D02*
X77980250Y-141015000D01*
G75*
G02*
X78199000Y-141233750I0J-218750D01*
G01*
X78199000Y-141671250D01*
G75*
G02*
X77980250Y-141890000I-218750J0D01*
G01*
X77467750Y-141890000D01*
G75*
G02*
X77249000Y-141671250I0J218750D01*
G01*
X77249000Y-141233750D01*
G75*
G02*
X77467750Y-141015000I218750J0D01*
G01*
G37*
%TD*%
D13*
%TO.C,U8*%
X53200000Y-134800000D03*
X53200000Y-125200000D03*
X41050000Y-134800000D03*
X42200000Y-134800000D03*
X43200000Y-134800000D03*
X44200000Y-134800000D03*
X45200000Y-134800000D03*
X46200000Y-134800000D03*
X47200000Y-134800000D03*
X48200000Y-134800000D03*
X49200000Y-134800000D03*
X50200000Y-134800000D03*
X51200000Y-134800000D03*
X52200000Y-134800000D03*
D14*
X53950000Y-132000000D03*
X53950000Y-131000000D03*
X53950000Y-130000000D03*
X53950000Y-129000000D03*
X53950000Y-128000000D03*
D13*
X52200000Y-125200000D03*
X51200000Y-125200000D03*
X50200000Y-125200000D03*
X49200000Y-125200000D03*
X48200000Y-125200000D03*
X47200000Y-125200000D03*
X46200000Y-125200000D03*
X45200000Y-125200000D03*
X44200000Y-125200000D03*
X43200000Y-125200000D03*
X42200000Y-125200000D03*
X41050000Y-125200000D03*
%TD*%
%TO.C,R7*%
G36*
G01*
X77467750Y-139542000D02*
X77980250Y-139542000D01*
G75*
G02*
X78199000Y-139760750I0J-218750D01*
G01*
X78199000Y-140198250D01*
G75*
G02*
X77980250Y-140417000I-218750J0D01*
G01*
X77467750Y-140417000D01*
G75*
G02*
X77249000Y-140198250I0J218750D01*
G01*
X77249000Y-139760750D01*
G75*
G02*
X77467750Y-139542000I218750J0D01*
G01*
G37*
G36*
G01*
X77467750Y-137967000D02*
X77980250Y-137967000D01*
G75*
G02*
X78199000Y-138185750I0J-218750D01*
G01*
X78199000Y-138623250D01*
G75*
G02*
X77980250Y-138842000I-218750J0D01*
G01*
X77467750Y-138842000D01*
G75*
G02*
X77249000Y-138623250I0J218750D01*
G01*
X77249000Y-138185750D01*
G75*
G02*
X77467750Y-137967000I218750J0D01*
G01*
G37*
%TD*%
%TO.C,R4*%
G36*
G01*
X72650000Y-144925000D02*
X72650000Y-147075000D01*
G75*
G02*
X72400000Y-147325000I-250000J0D01*
G01*
X71650000Y-147325000D01*
G75*
G02*
X71400000Y-147075000I0J250000D01*
G01*
X71400000Y-144925000D01*
G75*
G02*
X71650000Y-144675000I250000J0D01*
G01*
X72400000Y-144675000D01*
G75*
G02*
X72650000Y-144925000I0J-250000D01*
G01*
G37*
G36*
G01*
X75450000Y-144925000D02*
X75450000Y-147075000D01*
G75*
G02*
X75200000Y-147325000I-250000J0D01*
G01*
X74450000Y-147325000D01*
G75*
G02*
X74200000Y-147075000I0J250000D01*
G01*
X74200000Y-144925000D01*
G75*
G02*
X74450000Y-144675000I250000J0D01*
G01*
X75200000Y-144675000D01*
G75*
G02*
X75450000Y-144925000I0J-250000D01*
G01*
G37*
%TD*%
D15*
%TO.C,AE1*%
X47175000Y-122755000D03*
D16*
X45650000Y-121280000D03*
D15*
X47175000Y-119805000D03*
%TD*%
M02*
