%TF.GenerationSoftware,KiCad,Pcbnew,5.1.8+dfsg1-1~bpo10+1*%
%TF.CreationDate,2021-02-19T12:52:01+00:00*%
%TF.ProjectId,glider,676c6964-6572-42e6-9b69-6361645f7063,rev?*%
%TF.SameCoordinates,Original*%
%TF.FileFunction,Legend,Top*%
%TF.FilePolarity,Positive*%
%FSLAX46Y46*%
G04 Gerber Fmt 4.6, Leading zero omitted, Abs format (unit mm)*
G04 Created by KiCad (PCBNEW 5.1.8+dfsg1-1~bpo10+1) date 2021-02-19 12:52:01*
%MOMM*%
%LPD*%
G01*
G04 APERTURE LIST*
%ADD10C,0.120000*%
%ADD11C,0.150000*%
%ADD12C,0.250000*%
%ADD13C,0.200000*%
G04 APERTURE END LIST*
D10*
%TO.C,SW4*%
X52850000Y-108025000D02*
X52850000Y-103625000D01*
X52850000Y-103625000D02*
X52730000Y-103625000D01*
X51720000Y-103625000D02*
X50580000Y-103625000D01*
X49570000Y-103625000D02*
X49450000Y-103625000D01*
X49450000Y-103625000D02*
X49450000Y-108025000D01*
X49450000Y-108025000D02*
X49570000Y-108025000D01*
X50580000Y-108025000D02*
X51720000Y-108025000D01*
X52730000Y-108025000D02*
X52850000Y-108025000D01*
%TO.C,SW3*%
X52850000Y-112825000D02*
X52850000Y-108425000D01*
X52850000Y-108425000D02*
X52730000Y-108425000D01*
X51720000Y-108425000D02*
X50580000Y-108425000D01*
X49570000Y-108425000D02*
X49450000Y-108425000D01*
X49450000Y-108425000D02*
X49450000Y-112825000D01*
X49450000Y-112825000D02*
X49570000Y-112825000D01*
X50580000Y-112825000D02*
X51720000Y-112825000D01*
X52730000Y-112825000D02*
X52850000Y-112825000D01*
%TO.C,SW2*%
X50350000Y-148500000D02*
X50350000Y-144100000D01*
X50350000Y-144100000D02*
X50230000Y-144100000D01*
X49220000Y-144100000D02*
X48080000Y-144100000D01*
X47070000Y-144100000D02*
X46950000Y-144100000D01*
X46950000Y-144100000D02*
X46950000Y-148500000D01*
X46950000Y-148500000D02*
X47070000Y-148500000D01*
X48080000Y-148500000D02*
X49220000Y-148500000D01*
X50230000Y-148500000D02*
X50350000Y-148500000D01*
%TO.C,SW1*%
X50350000Y-154300000D02*
X50350000Y-149900000D01*
X50350000Y-149900000D02*
X50230000Y-149900000D01*
X49220000Y-149900000D02*
X48080000Y-149900000D01*
X47070000Y-149900000D02*
X46950000Y-149900000D01*
X46950000Y-149900000D02*
X46950000Y-154300000D01*
X46950000Y-154300000D02*
X47070000Y-154300000D01*
X48080000Y-154300000D02*
X49220000Y-154300000D01*
X50230000Y-154300000D02*
X50350000Y-154300000D01*
D11*
%TO.C,U2*%
X54825000Y-138975000D02*
X53800000Y-138975000D01*
X65175000Y-137975000D02*
X64100000Y-137975000D01*
X65175000Y-148325000D02*
X64100000Y-148325000D01*
X54825000Y-148325000D02*
X55900000Y-148325000D01*
X54825000Y-137975000D02*
X55900000Y-137975000D01*
X54825000Y-148325000D02*
X54825000Y-147250000D01*
X65175000Y-148325000D02*
X65175000Y-147250000D01*
X65175000Y-137975000D02*
X65175000Y-139050000D01*
X54825000Y-137975000D02*
X54825000Y-138975000D01*
D10*
%TO.C,R30*%
X56150279Y-124860000D02*
X55824721Y-124860000D01*
X56150279Y-123840000D02*
X55824721Y-123840000D01*
%TO.C,Q2*%
X57680000Y-126190000D02*
X56750000Y-126190000D01*
X54520000Y-126190000D02*
X55450000Y-126190000D01*
X54520000Y-126190000D02*
X54520000Y-128350000D01*
X57680000Y-126190000D02*
X57680000Y-127650000D01*
%TO.C,L3*%
X79085000Y-163085000D02*
X79085000Y-162060000D01*
X79085000Y-158315000D02*
X79085000Y-159340000D01*
X79085000Y-163085000D02*
X78060000Y-163085000D01*
X79085000Y-158315000D02*
X78060000Y-158315000D01*
X74865000Y-158315000D02*
X75890000Y-158315000D01*
X74865000Y-158315000D02*
X74865000Y-159340000D01*
X74865000Y-163085000D02*
X74865000Y-162060000D01*
X74865000Y-163085000D02*
X75890000Y-163085000D01*
%TO.C,D9*%
X49230000Y-103265000D02*
X49230000Y-100980000D01*
X47760000Y-103265000D02*
X49230000Y-103265000D01*
X47760000Y-100980000D02*
X47760000Y-103265000D01*
%TO.C,D8*%
X52775000Y-103265000D02*
X52775000Y-100980000D01*
X51305000Y-103265000D02*
X52775000Y-103265000D01*
X51305000Y-100980000D02*
X51305000Y-103265000D01*
%TO.C,D7*%
X50990000Y-103265000D02*
X50990000Y-100980000D01*
X49520000Y-103265000D02*
X50990000Y-103265000D01*
X49520000Y-100980000D02*
X49520000Y-103265000D01*
%TO.C,D6*%
X40887000Y-147123000D02*
X43172000Y-147123000D01*
X40887000Y-145653000D02*
X40887000Y-147123000D01*
X43172000Y-145653000D02*
X40887000Y-145653000D01*
%TO.C,D5*%
X40887000Y-148742333D02*
X43172000Y-148742333D01*
X40887000Y-147272333D02*
X40887000Y-148742333D01*
X43172000Y-147272333D02*
X40887000Y-147272333D01*
%TO.C,D4*%
X40887000Y-151961666D02*
X43172000Y-151961666D01*
X40887000Y-150491666D02*
X40887000Y-151961666D01*
X43172000Y-150491666D02*
X40887000Y-150491666D01*
%TO.C,D2*%
X40887000Y-153581000D02*
X43172000Y-153581000D01*
X40887000Y-152111000D02*
X40887000Y-153581000D01*
X43172000Y-152111000D02*
X40887000Y-152111000D01*
%TO.C,D1*%
X73935000Y-140110000D02*
X73935000Y-137825000D01*
X72465000Y-140110000D02*
X73935000Y-140110000D01*
X72465000Y-137825000D02*
X72465000Y-140110000D01*
%TO.C,R29*%
X47985000Y-98657221D02*
X47985000Y-98982779D01*
X49005000Y-98657221D02*
X49005000Y-98982779D01*
%TO.C,F1*%
X71025936Y-136234000D02*
X72230064Y-136234000D01*
X71025936Y-133514000D02*
X72230064Y-133514000D01*
%TO.C,J3*%
X70010000Y-104835000D02*
X68900000Y-104835000D01*
X70010000Y-104075000D02*
X70010000Y-104835000D01*
X68336529Y-103315000D02*
X67790000Y-103315000D01*
X70010000Y-103315000D02*
X69463471Y-103315000D01*
X67790000Y-103315000D02*
X67790000Y-95760000D01*
X70010000Y-103315000D02*
X70010000Y-95760000D01*
X68592470Y-95760000D02*
X67790000Y-95760000D01*
X70010000Y-95760000D02*
X69207530Y-95760000D01*
%TO.C,R25*%
X70462779Y-147690000D02*
X70137221Y-147690000D01*
X70462779Y-148710000D02*
X70137221Y-148710000D01*
%TO.C,R24*%
X73512779Y-147690000D02*
X73187221Y-147690000D01*
X73512779Y-148710000D02*
X73187221Y-148710000D01*
%TO.C,C41*%
X43258578Y-160590000D02*
X42741422Y-160590000D01*
X43258578Y-162010000D02*
X42741422Y-162010000D01*
%TO.C,C40*%
X43258578Y-158690000D02*
X42741422Y-158690000D01*
X43258578Y-160110000D02*
X42741422Y-160110000D01*
%TO.C,C24*%
X61721078Y-120740000D02*
X61203922Y-120740000D01*
X61721078Y-122160000D02*
X61203922Y-122160000D01*
%TO.C,C39*%
X48960000Y-160408578D02*
X48960000Y-159891422D01*
X47540000Y-160408578D02*
X47540000Y-159891422D01*
%TO.C,C38*%
X47010000Y-160408578D02*
X47010000Y-159891422D01*
X45590000Y-160408578D02*
X45590000Y-159891422D01*
%TO.C,C37*%
X45590000Y-163316422D02*
X45590000Y-163833578D01*
X47010000Y-163316422D02*
X47010000Y-163833578D01*
%TO.C,C36*%
X47545000Y-163316422D02*
X47545000Y-163833578D01*
X48965000Y-163316422D02*
X48965000Y-163833578D01*
%TO.C,C35*%
X72940000Y-163316422D02*
X72940000Y-163833578D01*
X74360000Y-163316422D02*
X74360000Y-163833578D01*
%TO.C,C34*%
X74360000Y-160408578D02*
X74360000Y-159891422D01*
X72940000Y-160408578D02*
X72940000Y-159891422D01*
%TO.C,R23*%
X73060000Y-156712779D02*
X73060000Y-156387221D01*
X72040000Y-156712779D02*
X72040000Y-156387221D01*
%TO.C,J20*%
X77500000Y-149830000D02*
X76170000Y-149830000D01*
X76170000Y-149830000D02*
X76170000Y-148500000D01*
X76170000Y-147230000D02*
X76170000Y-144630000D01*
X78830000Y-144630000D02*
X76170000Y-144630000D01*
X78830000Y-147230000D02*
X78830000Y-144630000D01*
X78830000Y-147230000D02*
X76170000Y-147230000D01*
%TO.C,U12*%
X74625000Y-155935000D02*
X77075000Y-155935000D01*
X76425000Y-152715000D02*
X74625000Y-152715000D01*
%TO.C,U11*%
X61330000Y-134610000D02*
X61330000Y-134820000D01*
X61330000Y-134820000D02*
X61100000Y-134820000D01*
X61120000Y-132780000D02*
X61330000Y-132780000D01*
X61330000Y-132780000D02*
X61330000Y-133010000D01*
X59080000Y-132780000D02*
X59310000Y-132780000D01*
X59080000Y-132990000D02*
X59080000Y-132780000D01*
X59080000Y-134820000D02*
X59080000Y-134590000D01*
X59290000Y-134820000D02*
X59080000Y-134820000D01*
%TO.C,U10*%
X62210000Y-125835000D02*
X60750000Y-125835000D01*
X62210000Y-122675000D02*
X60050000Y-122675000D01*
X62210000Y-122675000D02*
X62210000Y-123605000D01*
X62210000Y-125835000D02*
X62210000Y-124905000D01*
%TO.C,R27*%
X72040000Y-153337221D02*
X72040000Y-153662779D01*
X73060000Y-153337221D02*
X73060000Y-153662779D01*
%TO.C,R26*%
X70520000Y-154917221D02*
X70520000Y-155242779D01*
X71540000Y-154917221D02*
X71540000Y-155242779D01*
%TO.C,J9*%
X65190000Y-127040000D02*
X66300000Y-127040000D01*
X65190000Y-127800000D02*
X65190000Y-127040000D01*
X66863471Y-128560000D02*
X67410000Y-128560000D01*
X65190000Y-128560000D02*
X65736529Y-128560000D01*
X67410000Y-128560000D02*
X67410000Y-134845000D01*
X65190000Y-128560000D02*
X65190000Y-134845000D01*
X66607530Y-134845000D02*
X67410000Y-134845000D01*
X65190000Y-134845000D02*
X65992470Y-134845000D01*
%TO.C,C32*%
X72410000Y-160408578D02*
X72410000Y-159891422D01*
X70990000Y-160408578D02*
X70990000Y-159891422D01*
%TO.C,C31*%
X70990000Y-163316422D02*
X70990000Y-163833578D01*
X72410000Y-163316422D02*
X72410000Y-163833578D01*
%TO.C,C26*%
X59510000Y-124583578D02*
X59510000Y-124066422D01*
X58090000Y-124583578D02*
X58090000Y-124066422D01*
%TO.C,C22*%
X77558578Y-150740000D02*
X77041422Y-150740000D01*
X77558578Y-152160000D02*
X77041422Y-152160000D01*
%TO.C,U7*%
X61360000Y-131610000D02*
X61610000Y-131610000D01*
X58390000Y-128390000D02*
X58390000Y-128640000D01*
X58640000Y-128390000D02*
X58390000Y-128390000D01*
X61610000Y-128390000D02*
X61610000Y-128640000D01*
X61360000Y-128390000D02*
X61610000Y-128390000D01*
X58390000Y-131610000D02*
X58390000Y-131360000D01*
X58640000Y-131610000D02*
X58390000Y-131610000D01*
%TO.C,J19*%
X71640000Y-114430000D02*
X77940000Y-114430000D01*
X72340000Y-127300000D02*
X77940000Y-127300000D01*
X67930000Y-114430000D02*
X69740000Y-114430000D01*
X67930000Y-127300000D02*
X67930000Y-116040000D01*
X69090000Y-127300000D02*
X67930000Y-127300000D01*
X67930000Y-114540000D02*
X67930000Y-114430000D01*
%TO.C,J12*%
X55010000Y-152165000D02*
X54207530Y-152165000D01*
X53592470Y-152165000D02*
X52790000Y-152165000D01*
X55010000Y-154640000D02*
X55010000Y-152165000D01*
X52790000Y-154640000D02*
X52790000Y-152165000D01*
X55010000Y-154640000D02*
X54463471Y-154640000D01*
X53336529Y-154640000D02*
X52790000Y-154640000D01*
X55010000Y-155400000D02*
X55010000Y-156160000D01*
X55010000Y-156160000D02*
X53900000Y-156160000D01*
%TO.C,J6*%
X52440000Y-161951000D02*
X49780000Y-161951000D01*
X52440000Y-167091000D02*
X52440000Y-161951000D01*
X49780000Y-167091000D02*
X49780000Y-161951000D01*
X52440000Y-167091000D02*
X49780000Y-167091000D01*
X52440000Y-168361000D02*
X52440000Y-169691000D01*
X52440000Y-169691000D02*
X51110000Y-169691000D01*
%TO.C,J8*%
X64515000Y-108910000D02*
X64515000Y-108107530D01*
X64515000Y-107492470D02*
X64515000Y-106690000D01*
X56960000Y-108910000D02*
X64515000Y-108910000D01*
X56960000Y-106690000D02*
X64515000Y-106690000D01*
X56960000Y-108910000D02*
X56960000Y-108363471D01*
X56960000Y-107236529D02*
X56960000Y-106690000D01*
X56200000Y-108910000D02*
X55440000Y-108910000D01*
X55440000Y-108910000D02*
X55440000Y-107800000D01*
%TO.C,J7*%
X57435000Y-131040000D02*
X56632530Y-131040000D01*
X56017470Y-131040000D02*
X55215000Y-131040000D01*
X57435000Y-133515000D02*
X57435000Y-131040000D01*
X55215000Y-133515000D02*
X55215000Y-131040000D01*
X57435000Y-133515000D02*
X56888471Y-133515000D01*
X55761529Y-133515000D02*
X55215000Y-133515000D01*
X57435000Y-134275000D02*
X57435000Y-135035000D01*
X57435000Y-135035000D02*
X56325000Y-135035000D01*
%TO.C,J1*%
X55315000Y-119890000D02*
X55315000Y-120692470D01*
X55315000Y-121307530D02*
X55315000Y-122110000D01*
X57790000Y-119890000D02*
X55315000Y-119890000D01*
X57790000Y-122110000D02*
X55315000Y-122110000D01*
X57790000Y-119890000D02*
X57790000Y-120436529D01*
X57790000Y-121563471D02*
X57790000Y-122110000D01*
X58550000Y-119890000D02*
X59310000Y-119890000D01*
X59310000Y-119890000D02*
X59310000Y-121000000D01*
%TO.C,J10*%
X79370000Y-139250000D02*
X79370000Y-142130000D01*
X76250000Y-143300000D02*
X76250000Y-142250000D01*
X77400000Y-143300000D02*
X76250000Y-143300000D01*
X76250000Y-139130000D02*
X75260000Y-139130000D01*
X76250000Y-138080000D02*
X76250000Y-139130000D01*
X77400000Y-138080000D02*
X76250000Y-138080000D01*
%TO.C,U6*%
X55765000Y-159215000D02*
X55765000Y-158460000D01*
X55765000Y-159215000D02*
X56520000Y-159215000D01*
X64285000Y-159215000D02*
X63530000Y-159215000D01*
X64285000Y-159215000D02*
X64285000Y-158460000D01*
X64285000Y-153435000D02*
X64285000Y-152680000D01*
X63530000Y-152680000D02*
X64285000Y-152680000D01*
D12*
X55840000Y-153057500D02*
G75*
G03*
X55840000Y-153057500I-75000J0D01*
G01*
D10*
%TO.C,Y1*%
X52250000Y-142775000D02*
X52250000Y-138775000D01*
X49050000Y-142775000D02*
X52250000Y-142775000D01*
D13*
%TO.C,U?1*%
X58444000Y-116350000D02*
G75*
G03*
X58444000Y-116350000I-100000J0D01*
G01*
D10*
X62344000Y-119150000D02*
X61794000Y-119150000D01*
X62344000Y-118300000D02*
X62344000Y-119150000D01*
X62344000Y-116350000D02*
X62344000Y-117200000D01*
X61794000Y-116350000D02*
X62344000Y-116350000D01*
X57544000Y-119150000D02*
X57544000Y-118300000D01*
X58094000Y-119150000D02*
X57544000Y-119150000D01*
D11*
%TO.C,U9*%
X43925000Y-118300000D02*
X43925000Y-120475000D01*
X41725000Y-119025000D02*
X41725000Y-120475000D01*
D10*
%TO.C,U5*%
X50785000Y-123085000D02*
X50785000Y-123085000D01*
X54085000Y-122735000D02*
X54435000Y-122735000D01*
X54085000Y-123085000D02*
X54085000Y-122735000D01*
X54085000Y-119435000D02*
X54435000Y-119435000D01*
X54085000Y-119085000D02*
X54085000Y-119435000D01*
X50785000Y-119435000D02*
X50435000Y-119435000D01*
X50785000Y-119085000D02*
X50785000Y-119435000D01*
%TO.C,U4*%
X69800000Y-145610000D02*
X72250000Y-145610000D01*
X71600000Y-142390000D02*
X69800000Y-142390000D01*
%TO.C,U3*%
X46541000Y-155907000D02*
X46541000Y-157367000D01*
X43381000Y-155907000D02*
X43381000Y-158067000D01*
X43381000Y-155907000D02*
X44311000Y-155907000D01*
X46541000Y-155907000D02*
X45611000Y-155907000D01*
%TO.C,R22*%
X43487221Y-123810000D02*
X43812779Y-123810000D01*
X43487221Y-122790000D02*
X43812779Y-122790000D01*
%TO.C,R20*%
X45516779Y-145878000D02*
X45191221Y-145878000D01*
X45516779Y-146898000D02*
X45191221Y-146898000D01*
%TO.C,R19*%
X49010000Y-105987779D02*
X49010000Y-105662221D01*
X47990000Y-105987779D02*
X47990000Y-105662221D01*
%TO.C,R17*%
X45516779Y-147497333D02*
X45191221Y-147497333D01*
X45516779Y-148517333D02*
X45191221Y-148517333D01*
%TO.C,R16*%
X49010000Y-110787779D02*
X49010000Y-110462221D01*
X47990000Y-110787779D02*
X47990000Y-110462221D01*
%TO.C,R15*%
X45516779Y-150716666D02*
X45191221Y-150716666D01*
X45516779Y-151736666D02*
X45191221Y-151736666D01*
%TO.C,R12*%
X49112221Y-124810000D02*
X49437779Y-124810000D01*
X49112221Y-123790000D02*
X49437779Y-123790000D01*
%TO.C,R11*%
X52612779Y-123790000D02*
X52287221Y-123790000D01*
X52612779Y-124810000D02*
X52287221Y-124810000D01*
%TO.C,R10*%
X51530000Y-98657221D02*
X51530000Y-98982779D01*
X52550000Y-98657221D02*
X52550000Y-98982779D01*
%TO.C,R9*%
X49745000Y-98657221D02*
X49745000Y-98982779D01*
X50765000Y-98657221D02*
X50765000Y-98982779D01*
%TO.C,R8*%
X45516779Y-152336000D02*
X45191221Y-152336000D01*
X45516779Y-153356000D02*
X45191221Y-153356000D01*
%TO.C,R6*%
X45187221Y-145285000D02*
X45512779Y-145285000D01*
X45187221Y-144265000D02*
X45512779Y-144265000D01*
%TO.C,R5*%
X45187221Y-150135000D02*
X45512779Y-150135000D01*
X45187221Y-149115000D02*
X45512779Y-149115000D01*
%TO.C,R3*%
X73462779Y-149910000D02*
X73137221Y-149910000D01*
X73462779Y-150930000D02*
X73137221Y-150930000D01*
%TO.C,R2*%
X72812221Y-140940000D02*
X73137779Y-140940000D01*
X72812221Y-141960000D02*
X73137779Y-141960000D01*
%TO.C,R1*%
X70462779Y-146140000D02*
X70137221Y-146140000D01*
X70462779Y-147160000D02*
X70137221Y-147160000D01*
%TO.C,Q1*%
X68270000Y-152144000D02*
X68270000Y-150684000D01*
X71430000Y-152144000D02*
X71430000Y-149984000D01*
X71430000Y-152144000D02*
X70500000Y-152144000D01*
X68270000Y-152144000D02*
X69200000Y-152144000D01*
%TO.C,J18*%
X54968000Y-169691000D02*
X53638000Y-169691000D01*
X54968000Y-168361000D02*
X54968000Y-169691000D01*
X54968000Y-167091000D02*
X52308000Y-167091000D01*
X52308000Y-167091000D02*
X52308000Y-161951000D01*
X54968000Y-167091000D02*
X54968000Y-161951000D01*
X54968000Y-161951000D02*
X52308000Y-161951000D01*
%TO.C,J17*%
X57508000Y-169691000D02*
X56178000Y-169691000D01*
X57508000Y-168361000D02*
X57508000Y-169691000D01*
X57508000Y-167091000D02*
X54848000Y-167091000D01*
X54848000Y-167091000D02*
X54848000Y-161951000D01*
X57508000Y-167091000D02*
X57508000Y-161951000D01*
X57508000Y-161951000D02*
X54848000Y-161951000D01*
%TO.C,J16*%
X60048000Y-169691000D02*
X58718000Y-169691000D01*
X60048000Y-168361000D02*
X60048000Y-169691000D01*
X60048000Y-167091000D02*
X57388000Y-167091000D01*
X57388000Y-167091000D02*
X57388000Y-161951000D01*
X60048000Y-167091000D02*
X60048000Y-161951000D01*
X60048000Y-161951000D02*
X57388000Y-161951000D01*
%TO.C,J15*%
X62588000Y-169691000D02*
X61258000Y-169691000D01*
X62588000Y-168361000D02*
X62588000Y-169691000D01*
X62588000Y-167091000D02*
X59928000Y-167091000D01*
X59928000Y-167091000D02*
X59928000Y-161951000D01*
X62588000Y-167091000D02*
X62588000Y-161951000D01*
X62588000Y-161951000D02*
X59928000Y-161951000D01*
%TO.C,J14*%
X65128000Y-169691000D02*
X63798000Y-169691000D01*
X65128000Y-168361000D02*
X65128000Y-169691000D01*
X65128000Y-167091000D02*
X62468000Y-167091000D01*
X62468000Y-167091000D02*
X62468000Y-161951000D01*
X65128000Y-167091000D02*
X65128000Y-161951000D01*
X65128000Y-161951000D02*
X62468000Y-161951000D01*
%TO.C,J13*%
X67668000Y-169691000D02*
X66338000Y-169691000D01*
X67668000Y-168361000D02*
X67668000Y-169691000D01*
X67668000Y-167091000D02*
X65008000Y-167091000D01*
X65008000Y-167091000D02*
X65008000Y-161951000D01*
X67668000Y-167091000D02*
X67668000Y-161951000D01*
X67668000Y-161951000D02*
X65008000Y-161951000D01*
%TO.C,J11*%
X70208000Y-169691000D02*
X68878000Y-169691000D01*
X70208000Y-168361000D02*
X70208000Y-169691000D01*
X70208000Y-167091000D02*
X67548000Y-167091000D01*
X67548000Y-167091000D02*
X67548000Y-161951000D01*
X70208000Y-167091000D02*
X70208000Y-161951000D01*
X70208000Y-161951000D02*
X67548000Y-161951000D01*
%TO.C,J4*%
X42635000Y-136930000D02*
X42635000Y-136865000D01*
X46165000Y-136930000D02*
X46165000Y-136865000D01*
X42635000Y-143335000D02*
X42635000Y-143270000D01*
X46165000Y-143335000D02*
X46165000Y-143270000D01*
X47490000Y-143270000D02*
X46165000Y-143270000D01*
X46165000Y-136865000D02*
X42635000Y-136865000D01*
X46165000Y-143335000D02*
X42635000Y-143335000D01*
%TO.C,J2*%
X75640000Y-128690000D02*
X75640000Y-129070000D01*
X79690000Y-128690000D02*
X79950000Y-128690000D01*
X75640000Y-128690000D02*
X77410000Y-128690000D01*
X75640000Y-136310000D02*
X75640000Y-135930000D01*
X77410000Y-136310000D02*
X75640000Y-136310000D01*
X79950000Y-136310000D02*
X79690000Y-136310000D01*
%TO.C,D3*%
X67326000Y-157952000D02*
X67326000Y-154052000D01*
X69326000Y-157952000D02*
X69326000Y-154052000D01*
X67326000Y-157952000D02*
X69326000Y-157952000D01*
%TO.C,C17*%
X73040000Y-143753922D02*
X73040000Y-144271078D01*
X74460000Y-143753922D02*
X74460000Y-144271078D01*
%TO.C,C13*%
X69791422Y-138310000D02*
X70308578Y-138310000D01*
X69791422Y-136890000D02*
X70308578Y-136890000D01*
%TO.C,C12*%
X50371000Y-157000578D02*
X50371000Y-156483422D01*
X48951000Y-157000578D02*
X48951000Y-156483422D01*
%TO.C,C11*%
X48421000Y-156988078D02*
X48421000Y-156470922D01*
X47001000Y-156988078D02*
X47001000Y-156470922D01*
%TO.C,C10*%
X42921000Y-156921078D02*
X42921000Y-156403922D01*
X41501000Y-156921078D02*
X41501000Y-156403922D01*
%TO.C,C8*%
X69791422Y-140360000D02*
X70308578Y-140360000D01*
X69791422Y-138940000D02*
X70308578Y-138940000D01*
%TO.C,SW4*%
D11*
X54154761Y-107158333D02*
X54202380Y-107015476D01*
X54202380Y-106777380D01*
X54154761Y-106682142D01*
X54107142Y-106634523D01*
X54011904Y-106586904D01*
X53916666Y-106586904D01*
X53821428Y-106634523D01*
X53773809Y-106682142D01*
X53726190Y-106777380D01*
X53678571Y-106967857D01*
X53630952Y-107063095D01*
X53583333Y-107110714D01*
X53488095Y-107158333D01*
X53392857Y-107158333D01*
X53297619Y-107110714D01*
X53250000Y-107063095D01*
X53202380Y-106967857D01*
X53202380Y-106729761D01*
X53250000Y-106586904D01*
X53202380Y-106253571D02*
X54202380Y-106015476D01*
X53488095Y-105825000D01*
X54202380Y-105634523D01*
X53202380Y-105396428D01*
X53535714Y-104586904D02*
X54202380Y-104586904D01*
X53154761Y-104825000D02*
X53869047Y-105063095D01*
X53869047Y-104444047D01*
%TO.C,SW3*%
X54154761Y-111958333D02*
X54202380Y-111815476D01*
X54202380Y-111577380D01*
X54154761Y-111482142D01*
X54107142Y-111434523D01*
X54011904Y-111386904D01*
X53916666Y-111386904D01*
X53821428Y-111434523D01*
X53773809Y-111482142D01*
X53726190Y-111577380D01*
X53678571Y-111767857D01*
X53630952Y-111863095D01*
X53583333Y-111910714D01*
X53488095Y-111958333D01*
X53392857Y-111958333D01*
X53297619Y-111910714D01*
X53250000Y-111863095D01*
X53202380Y-111767857D01*
X53202380Y-111529761D01*
X53250000Y-111386904D01*
X53202380Y-111053571D02*
X54202380Y-110815476D01*
X53488095Y-110625000D01*
X54202380Y-110434523D01*
X53202380Y-110196428D01*
X53202380Y-109910714D02*
X53202380Y-109291666D01*
X53583333Y-109625000D01*
X53583333Y-109482142D01*
X53630952Y-109386904D01*
X53678571Y-109339285D01*
X53773809Y-109291666D01*
X54011904Y-109291666D01*
X54107142Y-109339285D01*
X54154761Y-109386904D01*
X54202380Y-109482142D01*
X54202380Y-109767857D01*
X54154761Y-109863095D01*
X54107142Y-109910714D01*
%TO.C,SW2*%
X51654761Y-147633333D02*
X51702380Y-147490476D01*
X51702380Y-147252380D01*
X51654761Y-147157142D01*
X51607142Y-147109523D01*
X51511904Y-147061904D01*
X51416666Y-147061904D01*
X51321428Y-147109523D01*
X51273809Y-147157142D01*
X51226190Y-147252380D01*
X51178571Y-147442857D01*
X51130952Y-147538095D01*
X51083333Y-147585714D01*
X50988095Y-147633333D01*
X50892857Y-147633333D01*
X50797619Y-147585714D01*
X50750000Y-147538095D01*
X50702380Y-147442857D01*
X50702380Y-147204761D01*
X50750000Y-147061904D01*
X50702380Y-146728571D02*
X51702380Y-146490476D01*
X50988095Y-146300000D01*
X51702380Y-146109523D01*
X50702380Y-145871428D01*
X50797619Y-145538095D02*
X50750000Y-145490476D01*
X50702380Y-145395238D01*
X50702380Y-145157142D01*
X50750000Y-145061904D01*
X50797619Y-145014285D01*
X50892857Y-144966666D01*
X50988095Y-144966666D01*
X51130952Y-145014285D01*
X51702380Y-145585714D01*
X51702380Y-144966666D01*
%TO.C,SW1*%
X51654761Y-153433333D02*
X51702380Y-153290476D01*
X51702380Y-153052380D01*
X51654761Y-152957142D01*
X51607142Y-152909523D01*
X51511904Y-152861904D01*
X51416666Y-152861904D01*
X51321428Y-152909523D01*
X51273809Y-152957142D01*
X51226190Y-153052380D01*
X51178571Y-153242857D01*
X51130952Y-153338095D01*
X51083333Y-153385714D01*
X50988095Y-153433333D01*
X50892857Y-153433333D01*
X50797619Y-153385714D01*
X50750000Y-153338095D01*
X50702380Y-153242857D01*
X50702380Y-153004761D01*
X50750000Y-152861904D01*
X50702380Y-152528571D02*
X51702380Y-152290476D01*
X50988095Y-152100000D01*
X51702380Y-151909523D01*
X50702380Y-151671428D01*
X51702380Y-150766666D02*
X51702380Y-151338095D01*
X51702380Y-151052380D02*
X50702380Y-151052380D01*
X50845238Y-151147619D01*
X50940476Y-151242857D01*
X50988095Y-151338095D01*
%TO.C,R14*%
X50482380Y-132142857D02*
X50006190Y-132476190D01*
X50482380Y-132714285D02*
X49482380Y-132714285D01*
X49482380Y-132333333D01*
X49530000Y-132238095D01*
X49577619Y-132190476D01*
X49672857Y-132142857D01*
X49815714Y-132142857D01*
X49910952Y-132190476D01*
X49958571Y-132238095D01*
X50006190Y-132333333D01*
X50006190Y-132714285D01*
X50482380Y-131190476D02*
X50482380Y-131761904D01*
X50482380Y-131476190D02*
X49482380Y-131476190D01*
X49625238Y-131571428D01*
X49720476Y-131666666D01*
X49768095Y-131761904D01*
X49815714Y-130333333D02*
X50482380Y-130333333D01*
X49434761Y-130571428D02*
X50149047Y-130809523D01*
X50149047Y-130190476D01*
%TO.C,R13*%
X47482380Y-132142857D02*
X47006190Y-132476190D01*
X47482380Y-132714285D02*
X46482380Y-132714285D01*
X46482380Y-132333333D01*
X46530000Y-132238095D01*
X46577619Y-132190476D01*
X46672857Y-132142857D01*
X46815714Y-132142857D01*
X46910952Y-132190476D01*
X46958571Y-132238095D01*
X47006190Y-132333333D01*
X47006190Y-132714285D01*
X47482380Y-131190476D02*
X47482380Y-131761904D01*
X47482380Y-131476190D02*
X46482380Y-131476190D01*
X46625238Y-131571428D01*
X46720476Y-131666666D01*
X46768095Y-131761904D01*
X46482380Y-130857142D02*
X46482380Y-130238095D01*
X46863333Y-130571428D01*
X46863333Y-130428571D01*
X46910952Y-130333333D01*
X46958571Y-130285714D01*
X47053809Y-130238095D01*
X47291904Y-130238095D01*
X47387142Y-130285714D01*
X47434761Y-130333333D01*
X47482380Y-130428571D01*
X47482380Y-130714285D01*
X47434761Y-130809523D01*
X47387142Y-130857142D01*
%TO.C,U2*%
X59238095Y-135402380D02*
X59238095Y-136211904D01*
X59285714Y-136307142D01*
X59333333Y-136354761D01*
X59428571Y-136402380D01*
X59619047Y-136402380D01*
X59714285Y-136354761D01*
X59761904Y-136307142D01*
X59809523Y-136211904D01*
X59809523Y-135402380D01*
X60238095Y-135497619D02*
X60285714Y-135450000D01*
X60380952Y-135402380D01*
X60619047Y-135402380D01*
X60714285Y-135450000D01*
X60761904Y-135497619D01*
X60809523Y-135592857D01*
X60809523Y-135688095D01*
X60761904Y-135830952D01*
X60190476Y-136402380D01*
X60809523Y-136402380D01*
%TO.C,R30*%
X55344642Y-126232380D02*
X55011309Y-125756190D01*
X54773214Y-126232380D02*
X54773214Y-125232380D01*
X55154166Y-125232380D01*
X55249404Y-125280000D01*
X55297023Y-125327619D01*
X55344642Y-125422857D01*
X55344642Y-125565714D01*
X55297023Y-125660952D01*
X55249404Y-125708571D01*
X55154166Y-125756190D01*
X54773214Y-125756190D01*
X55677976Y-125232380D02*
X56297023Y-125232380D01*
X55963690Y-125613333D01*
X56106547Y-125613333D01*
X56201785Y-125660952D01*
X56249404Y-125708571D01*
X56297023Y-125803809D01*
X56297023Y-126041904D01*
X56249404Y-126137142D01*
X56201785Y-126184761D01*
X56106547Y-126232380D01*
X55820833Y-126232380D01*
X55725595Y-126184761D01*
X55677976Y-126137142D01*
X56916071Y-125232380D02*
X57011309Y-125232380D01*
X57106547Y-125280000D01*
X57154166Y-125327619D01*
X57201785Y-125422857D01*
X57249404Y-125613333D01*
X57249404Y-125851428D01*
X57201785Y-126041904D01*
X57154166Y-126137142D01*
X57106547Y-126184761D01*
X57011309Y-126232380D01*
X56916071Y-126232380D01*
X56820833Y-126184761D01*
X56773214Y-126137142D01*
X56725595Y-126041904D01*
X56677976Y-125851428D01*
X56677976Y-125613333D01*
X56725595Y-125422857D01*
X56773214Y-125327619D01*
X56820833Y-125280000D01*
X56916071Y-125232380D01*
%TO.C,Q2*%
X54147619Y-127045238D02*
X54100000Y-127140476D01*
X54004761Y-127235714D01*
X53861904Y-127378571D01*
X53814285Y-127473809D01*
X53814285Y-127569047D01*
X54052380Y-127521428D02*
X54004761Y-127616666D01*
X53909523Y-127711904D01*
X53719047Y-127759523D01*
X53385714Y-127759523D01*
X53195238Y-127711904D01*
X53100000Y-127616666D01*
X53052380Y-127521428D01*
X53052380Y-127330952D01*
X53100000Y-127235714D01*
X53195238Y-127140476D01*
X53385714Y-127092857D01*
X53719047Y-127092857D01*
X53909523Y-127140476D01*
X54004761Y-127235714D01*
X54052380Y-127330952D01*
X54052380Y-127521428D01*
X53147619Y-126711904D02*
X53100000Y-126664285D01*
X53052380Y-126569047D01*
X53052380Y-126330952D01*
X53100000Y-126235714D01*
X53147619Y-126188095D01*
X53242857Y-126140476D01*
X53338095Y-126140476D01*
X53480952Y-126188095D01*
X54052380Y-126759523D01*
X54052380Y-126140476D01*
%TO.C,C42*%
X41907142Y-123527142D02*
X41859523Y-123574761D01*
X41716666Y-123622380D01*
X41621428Y-123622380D01*
X41478571Y-123574761D01*
X41383333Y-123479523D01*
X41335714Y-123384285D01*
X41288095Y-123193809D01*
X41288095Y-123050952D01*
X41335714Y-122860476D01*
X41383333Y-122765238D01*
X41478571Y-122670000D01*
X41621428Y-122622380D01*
X41716666Y-122622380D01*
X41859523Y-122670000D01*
X41907142Y-122717619D01*
X42764285Y-122955714D02*
X42764285Y-123622380D01*
X42526190Y-122574761D02*
X42288095Y-123289047D01*
X42907142Y-123289047D01*
X43240476Y-122717619D02*
X43288095Y-122670000D01*
X43383333Y-122622380D01*
X43621428Y-122622380D01*
X43716666Y-122670000D01*
X43764285Y-122717619D01*
X43811904Y-122812857D01*
X43811904Y-122908095D01*
X43764285Y-123050952D01*
X43192857Y-123622380D01*
X43811904Y-123622380D01*
%TO.C,C14*%
X42312142Y-116687142D02*
X42264523Y-116734761D01*
X42121666Y-116782380D01*
X42026428Y-116782380D01*
X41883571Y-116734761D01*
X41788333Y-116639523D01*
X41740714Y-116544285D01*
X41693095Y-116353809D01*
X41693095Y-116210952D01*
X41740714Y-116020476D01*
X41788333Y-115925238D01*
X41883571Y-115830000D01*
X42026428Y-115782380D01*
X42121666Y-115782380D01*
X42264523Y-115830000D01*
X42312142Y-115877619D01*
X43264523Y-116782380D02*
X42693095Y-116782380D01*
X42978809Y-116782380D02*
X42978809Y-115782380D01*
X42883571Y-115925238D01*
X42788333Y-116020476D01*
X42693095Y-116068095D01*
X44121666Y-116115714D02*
X44121666Y-116782380D01*
X43883571Y-115734761D02*
X43645476Y-116449047D01*
X44264523Y-116449047D01*
%TO.C,C33*%
X58539142Y-128727142D02*
X58491523Y-128774761D01*
X58348666Y-128822380D01*
X58253428Y-128822380D01*
X58110571Y-128774761D01*
X58015333Y-128679523D01*
X57967714Y-128584285D01*
X57920095Y-128393809D01*
X57920095Y-128250952D01*
X57967714Y-128060476D01*
X58015333Y-127965238D01*
X58110571Y-127870000D01*
X58253428Y-127822380D01*
X58348666Y-127822380D01*
X58491523Y-127870000D01*
X58539142Y-127917619D01*
X58872476Y-127822380D02*
X59491523Y-127822380D01*
X59158190Y-128203333D01*
X59301047Y-128203333D01*
X59396285Y-128250952D01*
X59443904Y-128298571D01*
X59491523Y-128393809D01*
X59491523Y-128631904D01*
X59443904Y-128727142D01*
X59396285Y-128774761D01*
X59301047Y-128822380D01*
X59015333Y-128822380D01*
X58920095Y-128774761D01*
X58872476Y-128727142D01*
X59824857Y-127822380D02*
X60443904Y-127822380D01*
X60110571Y-128203333D01*
X60253428Y-128203333D01*
X60348666Y-128250952D01*
X60396285Y-128298571D01*
X60443904Y-128393809D01*
X60443904Y-128631904D01*
X60396285Y-128727142D01*
X60348666Y-128774761D01*
X60253428Y-128822380D01*
X59967714Y-128822380D01*
X59872476Y-128774761D01*
X59824857Y-128727142D01*
%TO.C,C30*%
X56562142Y-130267857D02*
X56609761Y-130315476D01*
X56657380Y-130458333D01*
X56657380Y-130553571D01*
X56609761Y-130696428D01*
X56514523Y-130791666D01*
X56419285Y-130839285D01*
X56228809Y-130886904D01*
X56085952Y-130886904D01*
X55895476Y-130839285D01*
X55800238Y-130791666D01*
X55705000Y-130696428D01*
X55657380Y-130553571D01*
X55657380Y-130458333D01*
X55705000Y-130315476D01*
X55752619Y-130267857D01*
X55657380Y-129934523D02*
X55657380Y-129315476D01*
X56038333Y-129648809D01*
X56038333Y-129505952D01*
X56085952Y-129410714D01*
X56133571Y-129363095D01*
X56228809Y-129315476D01*
X56466904Y-129315476D01*
X56562142Y-129363095D01*
X56609761Y-129410714D01*
X56657380Y-129505952D01*
X56657380Y-129791666D01*
X56609761Y-129886904D01*
X56562142Y-129934523D01*
X55657380Y-128696428D02*
X55657380Y-128601190D01*
X55705000Y-128505952D01*
X55752619Y-128458333D01*
X55847857Y-128410714D01*
X56038333Y-128363095D01*
X56276428Y-128363095D01*
X56466904Y-128410714D01*
X56562142Y-128458333D01*
X56609761Y-128505952D01*
X56657380Y-128601190D01*
X56657380Y-128696428D01*
X56609761Y-128791666D01*
X56562142Y-128839285D01*
X56466904Y-128886904D01*
X56276428Y-128934523D01*
X56038333Y-128934523D01*
X55847857Y-128886904D01*
X55752619Y-128839285D01*
X55705000Y-128791666D01*
X55657380Y-128696428D01*
%TO.C,C29*%
X61082142Y-128602142D02*
X61034523Y-128649761D01*
X60891666Y-128697380D01*
X60796428Y-128697380D01*
X60653571Y-128649761D01*
X60558333Y-128554523D01*
X60510714Y-128459285D01*
X60463095Y-128268809D01*
X60463095Y-128125952D01*
X60510714Y-127935476D01*
X60558333Y-127840238D01*
X60653571Y-127745000D01*
X60796428Y-127697380D01*
X60891666Y-127697380D01*
X61034523Y-127745000D01*
X61082142Y-127792619D01*
X61463095Y-127792619D02*
X61510714Y-127745000D01*
X61605952Y-127697380D01*
X61844047Y-127697380D01*
X61939285Y-127745000D01*
X61986904Y-127792619D01*
X62034523Y-127887857D01*
X62034523Y-127983095D01*
X61986904Y-128125952D01*
X61415476Y-128697380D01*
X62034523Y-128697380D01*
X62510714Y-128697380D02*
X62701190Y-128697380D01*
X62796428Y-128649761D01*
X62844047Y-128602142D01*
X62939285Y-128459285D01*
X62986904Y-128268809D01*
X62986904Y-127887857D01*
X62939285Y-127792619D01*
X62891666Y-127745000D01*
X62796428Y-127697380D01*
X62605952Y-127697380D01*
X62510714Y-127745000D01*
X62463095Y-127792619D01*
X62415476Y-127887857D01*
X62415476Y-128125952D01*
X62463095Y-128221190D01*
X62510714Y-128268809D01*
X62605952Y-128316428D01*
X62796428Y-128316428D01*
X62891666Y-128268809D01*
X62939285Y-128221190D01*
X62986904Y-128125952D01*
%TO.C,C28*%
X74932142Y-156462142D02*
X74884523Y-156509761D01*
X74741666Y-156557380D01*
X74646428Y-156557380D01*
X74503571Y-156509761D01*
X74408333Y-156414523D01*
X74360714Y-156319285D01*
X74313095Y-156128809D01*
X74313095Y-155985952D01*
X74360714Y-155795476D01*
X74408333Y-155700238D01*
X74503571Y-155605000D01*
X74646428Y-155557380D01*
X74741666Y-155557380D01*
X74884523Y-155605000D01*
X74932142Y-155652619D01*
X75313095Y-155652619D02*
X75360714Y-155605000D01*
X75455952Y-155557380D01*
X75694047Y-155557380D01*
X75789285Y-155605000D01*
X75836904Y-155652619D01*
X75884523Y-155747857D01*
X75884523Y-155843095D01*
X75836904Y-155985952D01*
X75265476Y-156557380D01*
X75884523Y-156557380D01*
X76455952Y-155985952D02*
X76360714Y-155938333D01*
X76313095Y-155890714D01*
X76265476Y-155795476D01*
X76265476Y-155747857D01*
X76313095Y-155652619D01*
X76360714Y-155605000D01*
X76455952Y-155557380D01*
X76646428Y-155557380D01*
X76741666Y-155605000D01*
X76789285Y-155652619D01*
X76836904Y-155747857D01*
X76836904Y-155795476D01*
X76789285Y-155890714D01*
X76741666Y-155938333D01*
X76646428Y-155985952D01*
X76455952Y-155985952D01*
X76360714Y-156033571D01*
X76313095Y-156081190D01*
X76265476Y-156176428D01*
X76265476Y-156366904D01*
X76313095Y-156462142D01*
X76360714Y-156509761D01*
X76455952Y-156557380D01*
X76646428Y-156557380D01*
X76741666Y-156509761D01*
X76789285Y-156462142D01*
X76836904Y-156366904D01*
X76836904Y-156176428D01*
X76789285Y-156081190D01*
X76741666Y-156033571D01*
X76646428Y-155985952D01*
%TO.C,C25*%
X73807142Y-150937142D02*
X73759523Y-150984761D01*
X73616666Y-151032380D01*
X73521428Y-151032380D01*
X73378571Y-150984761D01*
X73283333Y-150889523D01*
X73235714Y-150794285D01*
X73188095Y-150603809D01*
X73188095Y-150460952D01*
X73235714Y-150270476D01*
X73283333Y-150175238D01*
X73378571Y-150080000D01*
X73521428Y-150032380D01*
X73616666Y-150032380D01*
X73759523Y-150080000D01*
X73807142Y-150127619D01*
X74188095Y-150127619D02*
X74235714Y-150080000D01*
X74330952Y-150032380D01*
X74569047Y-150032380D01*
X74664285Y-150080000D01*
X74711904Y-150127619D01*
X74759523Y-150222857D01*
X74759523Y-150318095D01*
X74711904Y-150460952D01*
X74140476Y-151032380D01*
X74759523Y-151032380D01*
X75664285Y-150032380D02*
X75188095Y-150032380D01*
X75140476Y-150508571D01*
X75188095Y-150460952D01*
X75283333Y-150413333D01*
X75521428Y-150413333D01*
X75616666Y-150460952D01*
X75664285Y-150508571D01*
X75711904Y-150603809D01*
X75711904Y-150841904D01*
X75664285Y-150937142D01*
X75616666Y-150984761D01*
X75521428Y-151032380D01*
X75283333Y-151032380D01*
X75188095Y-150984761D01*
X75140476Y-150937142D01*
%TO.C,C20*%
X58257142Y-117222857D02*
X58304761Y-117270476D01*
X58352380Y-117413333D01*
X58352380Y-117508571D01*
X58304761Y-117651428D01*
X58209523Y-117746666D01*
X58114285Y-117794285D01*
X57923809Y-117841904D01*
X57780952Y-117841904D01*
X57590476Y-117794285D01*
X57495238Y-117746666D01*
X57400000Y-117651428D01*
X57352380Y-117508571D01*
X57352380Y-117413333D01*
X57400000Y-117270476D01*
X57447619Y-117222857D01*
X57447619Y-116841904D02*
X57400000Y-116794285D01*
X57352380Y-116699047D01*
X57352380Y-116460952D01*
X57400000Y-116365714D01*
X57447619Y-116318095D01*
X57542857Y-116270476D01*
X57638095Y-116270476D01*
X57780952Y-116318095D01*
X58352380Y-116889523D01*
X58352380Y-116270476D01*
X57352380Y-115651428D02*
X57352380Y-115556190D01*
X57400000Y-115460952D01*
X57447619Y-115413333D01*
X57542857Y-115365714D01*
X57733333Y-115318095D01*
X57971428Y-115318095D01*
X58161904Y-115365714D01*
X58257142Y-115413333D01*
X58304761Y-115460952D01*
X58352380Y-115556190D01*
X58352380Y-115651428D01*
X58304761Y-115746666D01*
X58257142Y-115794285D01*
X58161904Y-115841904D01*
X57971428Y-115889523D01*
X57733333Y-115889523D01*
X57542857Y-115841904D01*
X57447619Y-115794285D01*
X57400000Y-115746666D01*
X57352380Y-115651428D01*
%TO.C,C19*%
X55917142Y-119082857D02*
X55964761Y-119130476D01*
X56012380Y-119273333D01*
X56012380Y-119368571D01*
X55964761Y-119511428D01*
X55869523Y-119606666D01*
X55774285Y-119654285D01*
X55583809Y-119701904D01*
X55440952Y-119701904D01*
X55250476Y-119654285D01*
X55155238Y-119606666D01*
X55060000Y-119511428D01*
X55012380Y-119368571D01*
X55012380Y-119273333D01*
X55060000Y-119130476D01*
X55107619Y-119082857D01*
X56012380Y-118130476D02*
X56012380Y-118701904D01*
X56012380Y-118416190D02*
X55012380Y-118416190D01*
X55155238Y-118511428D01*
X55250476Y-118606666D01*
X55298095Y-118701904D01*
X56012380Y-117654285D02*
X56012380Y-117463809D01*
X55964761Y-117368571D01*
X55917142Y-117320952D01*
X55774285Y-117225714D01*
X55583809Y-117178095D01*
X55202857Y-117178095D01*
X55107619Y-117225714D01*
X55060000Y-117273333D01*
X55012380Y-117368571D01*
X55012380Y-117559047D01*
X55060000Y-117654285D01*
X55107619Y-117701904D01*
X55202857Y-117749523D01*
X55440952Y-117749523D01*
X55536190Y-117701904D01*
X55583809Y-117654285D01*
X55631428Y-117559047D01*
X55631428Y-117368571D01*
X55583809Y-117273333D01*
X55536190Y-117225714D01*
X55440952Y-117178095D01*
%TO.C,C18*%
X48582142Y-121737857D02*
X48629761Y-121785476D01*
X48677380Y-121928333D01*
X48677380Y-122023571D01*
X48629761Y-122166428D01*
X48534523Y-122261666D01*
X48439285Y-122309285D01*
X48248809Y-122356904D01*
X48105952Y-122356904D01*
X47915476Y-122309285D01*
X47820238Y-122261666D01*
X47725000Y-122166428D01*
X47677380Y-122023571D01*
X47677380Y-121928333D01*
X47725000Y-121785476D01*
X47772619Y-121737857D01*
X48677380Y-120785476D02*
X48677380Y-121356904D01*
X48677380Y-121071190D02*
X47677380Y-121071190D01*
X47820238Y-121166428D01*
X47915476Y-121261666D01*
X47963095Y-121356904D01*
X48105952Y-120214047D02*
X48058333Y-120309285D01*
X48010714Y-120356904D01*
X47915476Y-120404523D01*
X47867857Y-120404523D01*
X47772619Y-120356904D01*
X47725000Y-120309285D01*
X47677380Y-120214047D01*
X47677380Y-120023571D01*
X47725000Y-119928333D01*
X47772619Y-119880714D01*
X47867857Y-119833095D01*
X47915476Y-119833095D01*
X48010714Y-119880714D01*
X48058333Y-119928333D01*
X48105952Y-120023571D01*
X48105952Y-120214047D01*
X48153571Y-120309285D01*
X48201190Y-120356904D01*
X48296428Y-120404523D01*
X48486904Y-120404523D01*
X48582142Y-120356904D01*
X48629761Y-120309285D01*
X48677380Y-120214047D01*
X48677380Y-120023571D01*
X48629761Y-119928333D01*
X48582142Y-119880714D01*
X48486904Y-119833095D01*
X48296428Y-119833095D01*
X48201190Y-119880714D01*
X48153571Y-119928333D01*
X48105952Y-120023571D01*
%TO.C,C16*%
X61182142Y-151677142D02*
X61134523Y-151724761D01*
X60991666Y-151772380D01*
X60896428Y-151772380D01*
X60753571Y-151724761D01*
X60658333Y-151629523D01*
X60610714Y-151534285D01*
X60563095Y-151343809D01*
X60563095Y-151200952D01*
X60610714Y-151010476D01*
X60658333Y-150915238D01*
X60753571Y-150820000D01*
X60896428Y-150772380D01*
X60991666Y-150772380D01*
X61134523Y-150820000D01*
X61182142Y-150867619D01*
X62134523Y-151772380D02*
X61563095Y-151772380D01*
X61848809Y-151772380D02*
X61848809Y-150772380D01*
X61753571Y-150915238D01*
X61658333Y-151010476D01*
X61563095Y-151058095D01*
X62991666Y-150772380D02*
X62801190Y-150772380D01*
X62705952Y-150820000D01*
X62658333Y-150867619D01*
X62563095Y-151010476D01*
X62515476Y-151200952D01*
X62515476Y-151581904D01*
X62563095Y-151677142D01*
X62610714Y-151724761D01*
X62705952Y-151772380D01*
X62896428Y-151772380D01*
X62991666Y-151724761D01*
X63039285Y-151677142D01*
X63086904Y-151581904D01*
X63086904Y-151343809D01*
X63039285Y-151248571D01*
X62991666Y-151200952D01*
X62896428Y-151153333D01*
X62705952Y-151153333D01*
X62610714Y-151200952D01*
X62563095Y-151248571D01*
X62515476Y-151343809D01*
%TO.C,C15*%
X66477142Y-155167857D02*
X66524761Y-155215476D01*
X66572380Y-155358333D01*
X66572380Y-155453571D01*
X66524761Y-155596428D01*
X66429523Y-155691666D01*
X66334285Y-155739285D01*
X66143809Y-155786904D01*
X66000952Y-155786904D01*
X65810476Y-155739285D01*
X65715238Y-155691666D01*
X65620000Y-155596428D01*
X65572380Y-155453571D01*
X65572380Y-155358333D01*
X65620000Y-155215476D01*
X65667619Y-155167857D01*
X66572380Y-154215476D02*
X66572380Y-154786904D01*
X66572380Y-154501190D02*
X65572380Y-154501190D01*
X65715238Y-154596428D01*
X65810476Y-154691666D01*
X65858095Y-154786904D01*
X65572380Y-153310714D02*
X65572380Y-153786904D01*
X66048571Y-153834523D01*
X66000952Y-153786904D01*
X65953333Y-153691666D01*
X65953333Y-153453571D01*
X66000952Y-153358333D01*
X66048571Y-153310714D01*
X66143809Y-153263095D01*
X66381904Y-153263095D01*
X66477142Y-153310714D01*
X66524761Y-153358333D01*
X66572380Y-153453571D01*
X66572380Y-153691666D01*
X66524761Y-153786904D01*
X66477142Y-153834523D01*
%TO.C,C9*%
X68477142Y-138881666D02*
X68524761Y-138929285D01*
X68572380Y-139072142D01*
X68572380Y-139167380D01*
X68524761Y-139310238D01*
X68429523Y-139405476D01*
X68334285Y-139453095D01*
X68143809Y-139500714D01*
X68000952Y-139500714D01*
X67810476Y-139453095D01*
X67715238Y-139405476D01*
X67620000Y-139310238D01*
X67572380Y-139167380D01*
X67572380Y-139072142D01*
X67620000Y-138929285D01*
X67667619Y-138881666D01*
X68572380Y-138405476D02*
X68572380Y-138215000D01*
X68524761Y-138119761D01*
X68477142Y-138072142D01*
X68334285Y-137976904D01*
X68143809Y-137929285D01*
X67762857Y-137929285D01*
X67667619Y-137976904D01*
X67620000Y-138024523D01*
X67572380Y-138119761D01*
X67572380Y-138310238D01*
X67620000Y-138405476D01*
X67667619Y-138453095D01*
X67762857Y-138500714D01*
X68000952Y-138500714D01*
X68096190Y-138453095D01*
X68143809Y-138405476D01*
X68191428Y-138310238D01*
X68191428Y-138119761D01*
X68143809Y-138024523D01*
X68096190Y-137976904D01*
X68000952Y-137929285D01*
%TO.C,C7*%
X55508333Y-135287142D02*
X55460714Y-135334761D01*
X55317857Y-135382380D01*
X55222619Y-135382380D01*
X55079761Y-135334761D01*
X54984523Y-135239523D01*
X54936904Y-135144285D01*
X54889285Y-134953809D01*
X54889285Y-134810952D01*
X54936904Y-134620476D01*
X54984523Y-134525238D01*
X55079761Y-134430000D01*
X55222619Y-134382380D01*
X55317857Y-134382380D01*
X55460714Y-134430000D01*
X55508333Y-134477619D01*
X55841666Y-134382380D02*
X56508333Y-134382380D01*
X56079761Y-135382380D01*
%TO.C,C6*%
X54502142Y-139091666D02*
X54549761Y-139139285D01*
X54597380Y-139282142D01*
X54597380Y-139377380D01*
X54549761Y-139520238D01*
X54454523Y-139615476D01*
X54359285Y-139663095D01*
X54168809Y-139710714D01*
X54025952Y-139710714D01*
X53835476Y-139663095D01*
X53740238Y-139615476D01*
X53645000Y-139520238D01*
X53597380Y-139377380D01*
X53597380Y-139282142D01*
X53645000Y-139139285D01*
X53692619Y-139091666D01*
X53597380Y-138234523D02*
X53597380Y-138425000D01*
X53645000Y-138520238D01*
X53692619Y-138567857D01*
X53835476Y-138663095D01*
X54025952Y-138710714D01*
X54406904Y-138710714D01*
X54502142Y-138663095D01*
X54549761Y-138615476D01*
X54597380Y-138520238D01*
X54597380Y-138329761D01*
X54549761Y-138234523D01*
X54502142Y-138186904D01*
X54406904Y-138139285D01*
X54168809Y-138139285D01*
X54073571Y-138186904D01*
X54025952Y-138234523D01*
X53978333Y-138329761D01*
X53978333Y-138520238D01*
X54025952Y-138615476D01*
X54073571Y-138663095D01*
X54168809Y-138710714D01*
%TO.C,C5*%
X63658333Y-151677142D02*
X63610714Y-151724761D01*
X63467857Y-151772380D01*
X63372619Y-151772380D01*
X63229761Y-151724761D01*
X63134523Y-151629523D01*
X63086904Y-151534285D01*
X63039285Y-151343809D01*
X63039285Y-151200952D01*
X63086904Y-151010476D01*
X63134523Y-150915238D01*
X63229761Y-150820000D01*
X63372619Y-150772380D01*
X63467857Y-150772380D01*
X63610714Y-150820000D01*
X63658333Y-150867619D01*
X64563095Y-150772380D02*
X64086904Y-150772380D01*
X64039285Y-151248571D01*
X64086904Y-151200952D01*
X64182142Y-151153333D01*
X64420238Y-151153333D01*
X64515476Y-151200952D01*
X64563095Y-151248571D01*
X64610714Y-151343809D01*
X64610714Y-151581904D01*
X64563095Y-151677142D01*
X64515476Y-151724761D01*
X64420238Y-151772380D01*
X64182142Y-151772380D01*
X64086904Y-151724761D01*
X64039285Y-151677142D01*
%TO.C,C4*%
X50348333Y-144927142D02*
X50300714Y-144974761D01*
X50157857Y-145022380D01*
X50062619Y-145022380D01*
X49919761Y-144974761D01*
X49824523Y-144879523D01*
X49776904Y-144784285D01*
X49729285Y-144593809D01*
X49729285Y-144450952D01*
X49776904Y-144260476D01*
X49824523Y-144165238D01*
X49919761Y-144070000D01*
X50062619Y-144022380D01*
X50157857Y-144022380D01*
X50300714Y-144070000D01*
X50348333Y-144117619D01*
X51205476Y-144355714D02*
X51205476Y-145022380D01*
X50967380Y-143974761D02*
X50729285Y-144689047D01*
X51348333Y-144689047D01*
%TO.C,C3*%
X50348333Y-139652142D02*
X50300714Y-139699761D01*
X50157857Y-139747380D01*
X50062619Y-139747380D01*
X49919761Y-139699761D01*
X49824523Y-139604523D01*
X49776904Y-139509285D01*
X49729285Y-139318809D01*
X49729285Y-139175952D01*
X49776904Y-138985476D01*
X49824523Y-138890238D01*
X49919761Y-138795000D01*
X50062619Y-138747380D01*
X50157857Y-138747380D01*
X50300714Y-138795000D01*
X50348333Y-138842619D01*
X50681666Y-138747380D02*
X51300714Y-138747380D01*
X50967380Y-139128333D01*
X51110238Y-139128333D01*
X51205476Y-139175952D01*
X51253095Y-139223571D01*
X51300714Y-139318809D01*
X51300714Y-139556904D01*
X51253095Y-139652142D01*
X51205476Y-139699761D01*
X51110238Y-139747380D01*
X50824523Y-139747380D01*
X50729285Y-139699761D01*
X50681666Y-139652142D01*
%TO.C,C2*%
X53758333Y-107802142D02*
X53710714Y-107849761D01*
X53567857Y-107897380D01*
X53472619Y-107897380D01*
X53329761Y-107849761D01*
X53234523Y-107754523D01*
X53186904Y-107659285D01*
X53139285Y-107468809D01*
X53139285Y-107325952D01*
X53186904Y-107135476D01*
X53234523Y-107040238D01*
X53329761Y-106945000D01*
X53472619Y-106897380D01*
X53567857Y-106897380D01*
X53710714Y-106945000D01*
X53758333Y-106992619D01*
X54139285Y-106992619D02*
X54186904Y-106945000D01*
X54282142Y-106897380D01*
X54520238Y-106897380D01*
X54615476Y-106945000D01*
X54663095Y-106992619D01*
X54710714Y-107087857D01*
X54710714Y-107183095D01*
X54663095Y-107325952D01*
X54091666Y-107897380D01*
X54710714Y-107897380D01*
%TO.C,C1*%
X52187142Y-146816666D02*
X52234761Y-146864285D01*
X52282380Y-147007142D01*
X52282380Y-147102380D01*
X52234761Y-147245238D01*
X52139523Y-147340476D01*
X52044285Y-147388095D01*
X51853809Y-147435714D01*
X51710952Y-147435714D01*
X51520476Y-147388095D01*
X51425238Y-147340476D01*
X51330000Y-147245238D01*
X51282380Y-147102380D01*
X51282380Y-147007142D01*
X51330000Y-146864285D01*
X51377619Y-146816666D01*
X52282380Y-145864285D02*
X52282380Y-146435714D01*
X52282380Y-146150000D02*
X51282380Y-146150000D01*
X51425238Y-146245238D01*
X51520476Y-146340476D01*
X51568095Y-146435714D01*
%TO.C,C27*%
X57587142Y-133717857D02*
X57634761Y-133765476D01*
X57682380Y-133908333D01*
X57682380Y-134003571D01*
X57634761Y-134146428D01*
X57539523Y-134241666D01*
X57444285Y-134289285D01*
X57253809Y-134336904D01*
X57110952Y-134336904D01*
X56920476Y-134289285D01*
X56825238Y-134241666D01*
X56730000Y-134146428D01*
X56682380Y-134003571D01*
X56682380Y-133908333D01*
X56730000Y-133765476D01*
X56777619Y-133717857D01*
X56777619Y-133336904D02*
X56730000Y-133289285D01*
X56682380Y-133194047D01*
X56682380Y-132955952D01*
X56730000Y-132860714D01*
X56777619Y-132813095D01*
X56872857Y-132765476D01*
X56968095Y-132765476D01*
X57110952Y-132813095D01*
X57682380Y-133384523D01*
X57682380Y-132765476D01*
X56682380Y-132432142D02*
X56682380Y-131765476D01*
X57682380Y-132194047D01*
%TO.C,C21*%
X57587142Y-135617857D02*
X57634761Y-135665476D01*
X57682380Y-135808333D01*
X57682380Y-135903571D01*
X57634761Y-136046428D01*
X57539523Y-136141666D01*
X57444285Y-136189285D01*
X57253809Y-136236904D01*
X57110952Y-136236904D01*
X56920476Y-136189285D01*
X56825238Y-136141666D01*
X56730000Y-136046428D01*
X56682380Y-135903571D01*
X56682380Y-135808333D01*
X56730000Y-135665476D01*
X56777619Y-135617857D01*
X56777619Y-135236904D02*
X56730000Y-135189285D01*
X56682380Y-135094047D01*
X56682380Y-134855952D01*
X56730000Y-134760714D01*
X56777619Y-134713095D01*
X56872857Y-134665476D01*
X56968095Y-134665476D01*
X57110952Y-134713095D01*
X57682380Y-135284523D01*
X57682380Y-134665476D01*
X57682380Y-133713095D02*
X57682380Y-134284523D01*
X57682380Y-133998809D02*
X56682380Y-133998809D01*
X56825238Y-134094047D01*
X56920476Y-134189285D01*
X56968095Y-134284523D01*
%TO.C,L3*%
X74427380Y-160866666D02*
X74427380Y-161342857D01*
X73427380Y-161342857D01*
X73427380Y-160628571D02*
X73427380Y-160009523D01*
X73808333Y-160342857D01*
X73808333Y-160200000D01*
X73855952Y-160104761D01*
X73903571Y-160057142D01*
X73998809Y-160009523D01*
X74236904Y-160009523D01*
X74332142Y-160057142D01*
X74379761Y-160104761D01*
X74427380Y-160200000D01*
X74427380Y-160485714D01*
X74379761Y-160580952D01*
X74332142Y-160628571D01*
%TO.C,D9*%
X47517380Y-102518095D02*
X46517380Y-102518095D01*
X46517380Y-102280000D01*
X46565000Y-102137142D01*
X46660238Y-102041904D01*
X46755476Y-101994285D01*
X46945952Y-101946666D01*
X47088809Y-101946666D01*
X47279285Y-101994285D01*
X47374523Y-102041904D01*
X47469761Y-102137142D01*
X47517380Y-102280000D01*
X47517380Y-102518095D01*
X47517380Y-101470476D02*
X47517380Y-101280000D01*
X47469761Y-101184761D01*
X47422142Y-101137142D01*
X47279285Y-101041904D01*
X47088809Y-100994285D01*
X46707857Y-100994285D01*
X46612619Y-101041904D01*
X46565000Y-101089523D01*
X46517380Y-101184761D01*
X46517380Y-101375238D01*
X46565000Y-101470476D01*
X46612619Y-101518095D01*
X46707857Y-101565714D01*
X46945952Y-101565714D01*
X47041190Y-101518095D01*
X47088809Y-101470476D01*
X47136428Y-101375238D01*
X47136428Y-101184761D01*
X47088809Y-101089523D01*
X47041190Y-101041904D01*
X46945952Y-100994285D01*
%TO.C,D8*%
X51062380Y-102518095D02*
X50062380Y-102518095D01*
X50062380Y-102280000D01*
X50110000Y-102137142D01*
X50205238Y-102041904D01*
X50300476Y-101994285D01*
X50490952Y-101946666D01*
X50633809Y-101946666D01*
X50824285Y-101994285D01*
X50919523Y-102041904D01*
X51014761Y-102137142D01*
X51062380Y-102280000D01*
X51062380Y-102518095D01*
X50490952Y-101375238D02*
X50443333Y-101470476D01*
X50395714Y-101518095D01*
X50300476Y-101565714D01*
X50252857Y-101565714D01*
X50157619Y-101518095D01*
X50110000Y-101470476D01*
X50062380Y-101375238D01*
X50062380Y-101184761D01*
X50110000Y-101089523D01*
X50157619Y-101041904D01*
X50252857Y-100994285D01*
X50300476Y-100994285D01*
X50395714Y-101041904D01*
X50443333Y-101089523D01*
X50490952Y-101184761D01*
X50490952Y-101375238D01*
X50538571Y-101470476D01*
X50586190Y-101518095D01*
X50681428Y-101565714D01*
X50871904Y-101565714D01*
X50967142Y-101518095D01*
X51014761Y-101470476D01*
X51062380Y-101375238D01*
X51062380Y-101184761D01*
X51014761Y-101089523D01*
X50967142Y-101041904D01*
X50871904Y-100994285D01*
X50681428Y-100994285D01*
X50586190Y-101041904D01*
X50538571Y-101089523D01*
X50490952Y-101184761D01*
%TO.C,D7*%
X49277380Y-102518095D02*
X48277380Y-102518095D01*
X48277380Y-102280000D01*
X48325000Y-102137142D01*
X48420238Y-102041904D01*
X48515476Y-101994285D01*
X48705952Y-101946666D01*
X48848809Y-101946666D01*
X49039285Y-101994285D01*
X49134523Y-102041904D01*
X49229761Y-102137142D01*
X49277380Y-102280000D01*
X49277380Y-102518095D01*
X48277380Y-101613333D02*
X48277380Y-100946666D01*
X49277380Y-101375238D01*
%TO.C,D6*%
X41633904Y-145410380D02*
X41633904Y-144410380D01*
X41872000Y-144410380D01*
X42014857Y-144458000D01*
X42110095Y-144553238D01*
X42157714Y-144648476D01*
X42205333Y-144838952D01*
X42205333Y-144981809D01*
X42157714Y-145172285D01*
X42110095Y-145267523D01*
X42014857Y-145362761D01*
X41872000Y-145410380D01*
X41633904Y-145410380D01*
X43062476Y-144410380D02*
X42872000Y-144410380D01*
X42776761Y-144458000D01*
X42729142Y-144505619D01*
X42633904Y-144648476D01*
X42586285Y-144838952D01*
X42586285Y-145219904D01*
X42633904Y-145315142D01*
X42681523Y-145362761D01*
X42776761Y-145410380D01*
X42967238Y-145410380D01*
X43062476Y-145362761D01*
X43110095Y-145315142D01*
X43157714Y-145219904D01*
X43157714Y-144981809D01*
X43110095Y-144886571D01*
X43062476Y-144838952D01*
X42967238Y-144791333D01*
X42776761Y-144791333D01*
X42681523Y-144838952D01*
X42633904Y-144886571D01*
X42586285Y-144981809D01*
%TO.C,D5*%
X41633904Y-147029713D02*
X41633904Y-146029713D01*
X41872000Y-146029713D01*
X42014857Y-146077333D01*
X42110095Y-146172571D01*
X42157714Y-146267809D01*
X42205333Y-146458285D01*
X42205333Y-146601142D01*
X42157714Y-146791618D01*
X42110095Y-146886856D01*
X42014857Y-146982094D01*
X41872000Y-147029713D01*
X41633904Y-147029713D01*
X43110095Y-146029713D02*
X42633904Y-146029713D01*
X42586285Y-146505904D01*
X42633904Y-146458285D01*
X42729142Y-146410666D01*
X42967238Y-146410666D01*
X43062476Y-146458285D01*
X43110095Y-146505904D01*
X43157714Y-146601142D01*
X43157714Y-146839237D01*
X43110095Y-146934475D01*
X43062476Y-146982094D01*
X42967238Y-147029713D01*
X42729142Y-147029713D01*
X42633904Y-146982094D01*
X42586285Y-146934475D01*
%TO.C,D4*%
X41633904Y-150249046D02*
X41633904Y-149249046D01*
X41872000Y-149249046D01*
X42014857Y-149296666D01*
X42110095Y-149391904D01*
X42157714Y-149487142D01*
X42205333Y-149677618D01*
X42205333Y-149820475D01*
X42157714Y-150010951D01*
X42110095Y-150106189D01*
X42014857Y-150201427D01*
X41872000Y-150249046D01*
X41633904Y-150249046D01*
X43062476Y-149582380D02*
X43062476Y-150249046D01*
X42824380Y-149201427D02*
X42586285Y-149915713D01*
X43205333Y-149915713D01*
%TO.C,D2*%
X41633904Y-151868380D02*
X41633904Y-150868380D01*
X41872000Y-150868380D01*
X42014857Y-150916000D01*
X42110095Y-151011238D01*
X42157714Y-151106476D01*
X42205333Y-151296952D01*
X42205333Y-151439809D01*
X42157714Y-151630285D01*
X42110095Y-151725523D01*
X42014857Y-151820761D01*
X41872000Y-151868380D01*
X41633904Y-151868380D01*
X42586285Y-150963619D02*
X42633904Y-150916000D01*
X42729142Y-150868380D01*
X42967238Y-150868380D01*
X43062476Y-150916000D01*
X43110095Y-150963619D01*
X43157714Y-151058857D01*
X43157714Y-151154095D01*
X43110095Y-151296952D01*
X42538666Y-151868380D01*
X43157714Y-151868380D01*
%TO.C,D1*%
X72222380Y-139363095D02*
X71222380Y-139363095D01*
X71222380Y-139125000D01*
X71270000Y-138982142D01*
X71365238Y-138886904D01*
X71460476Y-138839285D01*
X71650952Y-138791666D01*
X71793809Y-138791666D01*
X71984285Y-138839285D01*
X72079523Y-138886904D01*
X72174761Y-138982142D01*
X72222380Y-139125000D01*
X72222380Y-139363095D01*
X72222380Y-137839285D02*
X72222380Y-138410714D01*
X72222380Y-138125000D02*
X71222380Y-138125000D01*
X71365238Y-138220238D01*
X71460476Y-138315476D01*
X71508095Y-138410714D01*
%TO.C,R29*%
X50377380Y-99462857D02*
X49901190Y-99796190D01*
X50377380Y-100034285D02*
X49377380Y-100034285D01*
X49377380Y-99653333D01*
X49425000Y-99558095D01*
X49472619Y-99510476D01*
X49567857Y-99462857D01*
X49710714Y-99462857D01*
X49805952Y-99510476D01*
X49853571Y-99558095D01*
X49901190Y-99653333D01*
X49901190Y-100034285D01*
X49472619Y-99081904D02*
X49425000Y-99034285D01*
X49377380Y-98939047D01*
X49377380Y-98700952D01*
X49425000Y-98605714D01*
X49472619Y-98558095D01*
X49567857Y-98510476D01*
X49663095Y-98510476D01*
X49805952Y-98558095D01*
X50377380Y-99129523D01*
X50377380Y-98510476D01*
X50377380Y-98034285D02*
X50377380Y-97843809D01*
X50329761Y-97748571D01*
X50282142Y-97700952D01*
X50139285Y-97605714D01*
X49948809Y-97558095D01*
X49567857Y-97558095D01*
X49472619Y-97605714D01*
X49425000Y-97653333D01*
X49377380Y-97748571D01*
X49377380Y-97939047D01*
X49425000Y-98034285D01*
X49472619Y-98081904D01*
X49567857Y-98129523D01*
X49805952Y-98129523D01*
X49901190Y-98081904D01*
X49948809Y-98034285D01*
X49996428Y-97939047D01*
X49996428Y-97748571D01*
X49948809Y-97653333D01*
X49901190Y-97605714D01*
X49805952Y-97558095D01*
%TO.C,F1*%
X71294666Y-132522571D02*
X70961333Y-132522571D01*
X70961333Y-133046380D02*
X70961333Y-132046380D01*
X71437523Y-132046380D01*
X72342285Y-133046380D02*
X71770857Y-133046380D01*
X72056571Y-133046380D02*
X72056571Y-132046380D01*
X71961333Y-132189238D01*
X71866095Y-132284476D01*
X71770857Y-132332095D01*
%TO.C,H3*%
X59238095Y-110102380D02*
X59238095Y-109102380D01*
X59238095Y-109578571D02*
X59809523Y-109578571D01*
X59809523Y-110102380D02*
X59809523Y-109102380D01*
X60190476Y-109102380D02*
X60809523Y-109102380D01*
X60476190Y-109483333D01*
X60619047Y-109483333D01*
X60714285Y-109530952D01*
X60761904Y-109578571D01*
X60809523Y-109673809D01*
X60809523Y-109911904D01*
X60761904Y-110007142D01*
X60714285Y-110054761D01*
X60619047Y-110102380D01*
X60333333Y-110102380D01*
X60238095Y-110054761D01*
X60190476Y-110007142D01*
%TO.C,U1*%
X59238095Y-88302380D02*
X59238095Y-89111904D01*
X59285714Y-89207142D01*
X59333333Y-89254761D01*
X59428571Y-89302380D01*
X59619047Y-89302380D01*
X59714285Y-89254761D01*
X59761904Y-89207142D01*
X59809523Y-89111904D01*
X59809523Y-88302380D01*
X60809523Y-89302380D02*
X60238095Y-89302380D01*
X60523809Y-89302380D02*
X60523809Y-88302380D01*
X60428571Y-88445238D01*
X60333333Y-88540476D01*
X60238095Y-88588095D01*
%TO.C,J3*%
X68566666Y-105222380D02*
X68566666Y-105936666D01*
X68519047Y-106079523D01*
X68423809Y-106174761D01*
X68280952Y-106222380D01*
X68185714Y-106222380D01*
X68947619Y-105222380D02*
X69566666Y-105222380D01*
X69233333Y-105603333D01*
X69376190Y-105603333D01*
X69471428Y-105650952D01*
X69519047Y-105698571D01*
X69566666Y-105793809D01*
X69566666Y-106031904D01*
X69519047Y-106127142D01*
X69471428Y-106174761D01*
X69376190Y-106222380D01*
X69090476Y-106222380D01*
X68995238Y-106174761D01*
X68947619Y-106127142D01*
%TO.C,R25*%
X69657142Y-150082380D02*
X69323809Y-149606190D01*
X69085714Y-150082380D02*
X69085714Y-149082380D01*
X69466666Y-149082380D01*
X69561904Y-149130000D01*
X69609523Y-149177619D01*
X69657142Y-149272857D01*
X69657142Y-149415714D01*
X69609523Y-149510952D01*
X69561904Y-149558571D01*
X69466666Y-149606190D01*
X69085714Y-149606190D01*
X70038095Y-149177619D02*
X70085714Y-149130000D01*
X70180952Y-149082380D01*
X70419047Y-149082380D01*
X70514285Y-149130000D01*
X70561904Y-149177619D01*
X70609523Y-149272857D01*
X70609523Y-149368095D01*
X70561904Y-149510952D01*
X69990476Y-150082380D01*
X70609523Y-150082380D01*
X71514285Y-149082380D02*
X71038095Y-149082380D01*
X70990476Y-149558571D01*
X71038095Y-149510952D01*
X71133333Y-149463333D01*
X71371428Y-149463333D01*
X71466666Y-149510952D01*
X71514285Y-149558571D01*
X71561904Y-149653809D01*
X71561904Y-149891904D01*
X71514285Y-149987142D01*
X71466666Y-150034761D01*
X71371428Y-150082380D01*
X71133333Y-150082380D01*
X71038095Y-150034761D01*
X70990476Y-149987142D01*
%TO.C,R24*%
X72707142Y-150082380D02*
X72373809Y-149606190D01*
X72135714Y-150082380D02*
X72135714Y-149082380D01*
X72516666Y-149082380D01*
X72611904Y-149130000D01*
X72659523Y-149177619D01*
X72707142Y-149272857D01*
X72707142Y-149415714D01*
X72659523Y-149510952D01*
X72611904Y-149558571D01*
X72516666Y-149606190D01*
X72135714Y-149606190D01*
X73088095Y-149177619D02*
X73135714Y-149130000D01*
X73230952Y-149082380D01*
X73469047Y-149082380D01*
X73564285Y-149130000D01*
X73611904Y-149177619D01*
X73659523Y-149272857D01*
X73659523Y-149368095D01*
X73611904Y-149510952D01*
X73040476Y-150082380D01*
X73659523Y-150082380D01*
X74516666Y-149415714D02*
X74516666Y-150082380D01*
X74278571Y-149034761D02*
X74040476Y-149749047D01*
X74659523Y-149749047D01*
%TO.C,C41*%
X42357142Y-163307142D02*
X42309523Y-163354761D01*
X42166666Y-163402380D01*
X42071428Y-163402380D01*
X41928571Y-163354761D01*
X41833333Y-163259523D01*
X41785714Y-163164285D01*
X41738095Y-162973809D01*
X41738095Y-162830952D01*
X41785714Y-162640476D01*
X41833333Y-162545238D01*
X41928571Y-162450000D01*
X42071428Y-162402380D01*
X42166666Y-162402380D01*
X42309523Y-162450000D01*
X42357142Y-162497619D01*
X43214285Y-162735714D02*
X43214285Y-163402380D01*
X42976190Y-162354761D02*
X42738095Y-163069047D01*
X43357142Y-163069047D01*
X44261904Y-163402380D02*
X43690476Y-163402380D01*
X43976190Y-163402380D02*
X43976190Y-162402380D01*
X43880952Y-162545238D01*
X43785714Y-162640476D01*
X43690476Y-162688095D01*
%TO.C,C40*%
X42357142Y-161407142D02*
X42309523Y-161454761D01*
X42166666Y-161502380D01*
X42071428Y-161502380D01*
X41928571Y-161454761D01*
X41833333Y-161359523D01*
X41785714Y-161264285D01*
X41738095Y-161073809D01*
X41738095Y-160930952D01*
X41785714Y-160740476D01*
X41833333Y-160645238D01*
X41928571Y-160550000D01*
X42071428Y-160502380D01*
X42166666Y-160502380D01*
X42309523Y-160550000D01*
X42357142Y-160597619D01*
X43214285Y-160835714D02*
X43214285Y-161502380D01*
X42976190Y-160454761D02*
X42738095Y-161169047D01*
X43357142Y-161169047D01*
X43928571Y-160502380D02*
X44023809Y-160502380D01*
X44119047Y-160550000D01*
X44166666Y-160597619D01*
X44214285Y-160692857D01*
X44261904Y-160883333D01*
X44261904Y-161121428D01*
X44214285Y-161311904D01*
X44166666Y-161407142D01*
X44119047Y-161454761D01*
X44023809Y-161502380D01*
X43928571Y-161502380D01*
X43833333Y-161454761D01*
X43785714Y-161407142D01*
X43738095Y-161311904D01*
X43690476Y-161121428D01*
X43690476Y-160883333D01*
X43738095Y-160692857D01*
X43785714Y-160597619D01*
X43833333Y-160550000D01*
X43928571Y-160502380D01*
%TO.C,C24*%
X60819642Y-123457142D02*
X60772023Y-123504761D01*
X60629166Y-123552380D01*
X60533928Y-123552380D01*
X60391071Y-123504761D01*
X60295833Y-123409523D01*
X60248214Y-123314285D01*
X60200595Y-123123809D01*
X60200595Y-122980952D01*
X60248214Y-122790476D01*
X60295833Y-122695238D01*
X60391071Y-122600000D01*
X60533928Y-122552380D01*
X60629166Y-122552380D01*
X60772023Y-122600000D01*
X60819642Y-122647619D01*
X61200595Y-122647619D02*
X61248214Y-122600000D01*
X61343452Y-122552380D01*
X61581547Y-122552380D01*
X61676785Y-122600000D01*
X61724404Y-122647619D01*
X61772023Y-122742857D01*
X61772023Y-122838095D01*
X61724404Y-122980952D01*
X61152976Y-123552380D01*
X61772023Y-123552380D01*
X62629166Y-122885714D02*
X62629166Y-123552380D01*
X62391071Y-122504761D02*
X62152976Y-123219047D01*
X62772023Y-123219047D01*
%TO.C,C39*%
X46957142Y-160792857D02*
X47004761Y-160840476D01*
X47052380Y-160983333D01*
X47052380Y-161078571D01*
X47004761Y-161221428D01*
X46909523Y-161316666D01*
X46814285Y-161364285D01*
X46623809Y-161411904D01*
X46480952Y-161411904D01*
X46290476Y-161364285D01*
X46195238Y-161316666D01*
X46100000Y-161221428D01*
X46052380Y-161078571D01*
X46052380Y-160983333D01*
X46100000Y-160840476D01*
X46147619Y-160792857D01*
X46052380Y-160459523D02*
X46052380Y-159840476D01*
X46433333Y-160173809D01*
X46433333Y-160030952D01*
X46480952Y-159935714D01*
X46528571Y-159888095D01*
X46623809Y-159840476D01*
X46861904Y-159840476D01*
X46957142Y-159888095D01*
X47004761Y-159935714D01*
X47052380Y-160030952D01*
X47052380Y-160316666D01*
X47004761Y-160411904D01*
X46957142Y-160459523D01*
X47052380Y-159364285D02*
X47052380Y-159173809D01*
X47004761Y-159078571D01*
X46957142Y-159030952D01*
X46814285Y-158935714D01*
X46623809Y-158888095D01*
X46242857Y-158888095D01*
X46147619Y-158935714D01*
X46100000Y-158983333D01*
X46052380Y-159078571D01*
X46052380Y-159269047D01*
X46100000Y-159364285D01*
X46147619Y-159411904D01*
X46242857Y-159459523D01*
X46480952Y-159459523D01*
X46576190Y-159411904D01*
X46623809Y-159364285D01*
X46671428Y-159269047D01*
X46671428Y-159078571D01*
X46623809Y-158983333D01*
X46576190Y-158935714D01*
X46480952Y-158888095D01*
%TO.C,C38*%
X45007142Y-160792857D02*
X45054761Y-160840476D01*
X45102380Y-160983333D01*
X45102380Y-161078571D01*
X45054761Y-161221428D01*
X44959523Y-161316666D01*
X44864285Y-161364285D01*
X44673809Y-161411904D01*
X44530952Y-161411904D01*
X44340476Y-161364285D01*
X44245238Y-161316666D01*
X44150000Y-161221428D01*
X44102380Y-161078571D01*
X44102380Y-160983333D01*
X44150000Y-160840476D01*
X44197619Y-160792857D01*
X44102380Y-160459523D02*
X44102380Y-159840476D01*
X44483333Y-160173809D01*
X44483333Y-160030952D01*
X44530952Y-159935714D01*
X44578571Y-159888095D01*
X44673809Y-159840476D01*
X44911904Y-159840476D01*
X45007142Y-159888095D01*
X45054761Y-159935714D01*
X45102380Y-160030952D01*
X45102380Y-160316666D01*
X45054761Y-160411904D01*
X45007142Y-160459523D01*
X44530952Y-159269047D02*
X44483333Y-159364285D01*
X44435714Y-159411904D01*
X44340476Y-159459523D01*
X44292857Y-159459523D01*
X44197619Y-159411904D01*
X44150000Y-159364285D01*
X44102380Y-159269047D01*
X44102380Y-159078571D01*
X44150000Y-158983333D01*
X44197619Y-158935714D01*
X44292857Y-158888095D01*
X44340476Y-158888095D01*
X44435714Y-158935714D01*
X44483333Y-158983333D01*
X44530952Y-159078571D01*
X44530952Y-159269047D01*
X44578571Y-159364285D01*
X44626190Y-159411904D01*
X44721428Y-159459523D01*
X44911904Y-159459523D01*
X45007142Y-159411904D01*
X45054761Y-159364285D01*
X45102380Y-159269047D01*
X45102380Y-159078571D01*
X45054761Y-158983333D01*
X45007142Y-158935714D01*
X44911904Y-158888095D01*
X44721428Y-158888095D01*
X44626190Y-158935714D01*
X44578571Y-158983333D01*
X44530952Y-159078571D01*
%TO.C,C37*%
X48307142Y-164217857D02*
X48354761Y-164265476D01*
X48402380Y-164408333D01*
X48402380Y-164503571D01*
X48354761Y-164646428D01*
X48259523Y-164741666D01*
X48164285Y-164789285D01*
X47973809Y-164836904D01*
X47830952Y-164836904D01*
X47640476Y-164789285D01*
X47545238Y-164741666D01*
X47450000Y-164646428D01*
X47402380Y-164503571D01*
X47402380Y-164408333D01*
X47450000Y-164265476D01*
X47497619Y-164217857D01*
X47402380Y-163884523D02*
X47402380Y-163265476D01*
X47783333Y-163598809D01*
X47783333Y-163455952D01*
X47830952Y-163360714D01*
X47878571Y-163313095D01*
X47973809Y-163265476D01*
X48211904Y-163265476D01*
X48307142Y-163313095D01*
X48354761Y-163360714D01*
X48402380Y-163455952D01*
X48402380Y-163741666D01*
X48354761Y-163836904D01*
X48307142Y-163884523D01*
X47402380Y-162932142D02*
X47402380Y-162265476D01*
X48402380Y-162694047D01*
%TO.C,C36*%
X50262142Y-164217857D02*
X50309761Y-164265476D01*
X50357380Y-164408333D01*
X50357380Y-164503571D01*
X50309761Y-164646428D01*
X50214523Y-164741666D01*
X50119285Y-164789285D01*
X49928809Y-164836904D01*
X49785952Y-164836904D01*
X49595476Y-164789285D01*
X49500238Y-164741666D01*
X49405000Y-164646428D01*
X49357380Y-164503571D01*
X49357380Y-164408333D01*
X49405000Y-164265476D01*
X49452619Y-164217857D01*
X49357380Y-163884523D02*
X49357380Y-163265476D01*
X49738333Y-163598809D01*
X49738333Y-163455952D01*
X49785952Y-163360714D01*
X49833571Y-163313095D01*
X49928809Y-163265476D01*
X50166904Y-163265476D01*
X50262142Y-163313095D01*
X50309761Y-163360714D01*
X50357380Y-163455952D01*
X50357380Y-163741666D01*
X50309761Y-163836904D01*
X50262142Y-163884523D01*
X49357380Y-162408333D02*
X49357380Y-162598809D01*
X49405000Y-162694047D01*
X49452619Y-162741666D01*
X49595476Y-162836904D01*
X49785952Y-162884523D01*
X50166904Y-162884523D01*
X50262142Y-162836904D01*
X50309761Y-162789285D01*
X50357380Y-162694047D01*
X50357380Y-162503571D01*
X50309761Y-162408333D01*
X50262142Y-162360714D01*
X50166904Y-162313095D01*
X49928809Y-162313095D01*
X49833571Y-162360714D01*
X49785952Y-162408333D01*
X49738333Y-162503571D01*
X49738333Y-162694047D01*
X49785952Y-162789285D01*
X49833571Y-162836904D01*
X49928809Y-162884523D01*
%TO.C,C35*%
X75657142Y-164217857D02*
X75704761Y-164265476D01*
X75752380Y-164408333D01*
X75752380Y-164503571D01*
X75704761Y-164646428D01*
X75609523Y-164741666D01*
X75514285Y-164789285D01*
X75323809Y-164836904D01*
X75180952Y-164836904D01*
X74990476Y-164789285D01*
X74895238Y-164741666D01*
X74800000Y-164646428D01*
X74752380Y-164503571D01*
X74752380Y-164408333D01*
X74800000Y-164265476D01*
X74847619Y-164217857D01*
X74752380Y-163884523D02*
X74752380Y-163265476D01*
X75133333Y-163598809D01*
X75133333Y-163455952D01*
X75180952Y-163360714D01*
X75228571Y-163313095D01*
X75323809Y-163265476D01*
X75561904Y-163265476D01*
X75657142Y-163313095D01*
X75704761Y-163360714D01*
X75752380Y-163455952D01*
X75752380Y-163741666D01*
X75704761Y-163836904D01*
X75657142Y-163884523D01*
X74752380Y-162360714D02*
X74752380Y-162836904D01*
X75228571Y-162884523D01*
X75180952Y-162836904D01*
X75133333Y-162741666D01*
X75133333Y-162503571D01*
X75180952Y-162408333D01*
X75228571Y-162360714D01*
X75323809Y-162313095D01*
X75561904Y-162313095D01*
X75657142Y-162360714D01*
X75704761Y-162408333D01*
X75752380Y-162503571D01*
X75752380Y-162741666D01*
X75704761Y-162836904D01*
X75657142Y-162884523D01*
%TO.C,C34*%
X72357142Y-160792857D02*
X72404761Y-160840476D01*
X72452380Y-160983333D01*
X72452380Y-161078571D01*
X72404761Y-161221428D01*
X72309523Y-161316666D01*
X72214285Y-161364285D01*
X72023809Y-161411904D01*
X71880952Y-161411904D01*
X71690476Y-161364285D01*
X71595238Y-161316666D01*
X71500000Y-161221428D01*
X71452380Y-161078571D01*
X71452380Y-160983333D01*
X71500000Y-160840476D01*
X71547619Y-160792857D01*
X71452380Y-160459523D02*
X71452380Y-159840476D01*
X71833333Y-160173809D01*
X71833333Y-160030952D01*
X71880952Y-159935714D01*
X71928571Y-159888095D01*
X72023809Y-159840476D01*
X72261904Y-159840476D01*
X72357142Y-159888095D01*
X72404761Y-159935714D01*
X72452380Y-160030952D01*
X72452380Y-160316666D01*
X72404761Y-160411904D01*
X72357142Y-160459523D01*
X71785714Y-158983333D02*
X72452380Y-158983333D01*
X71404761Y-159221428D02*
X72119047Y-159459523D01*
X72119047Y-158840476D01*
%TO.C,R23*%
X71572380Y-157192857D02*
X71096190Y-157526190D01*
X71572380Y-157764285D02*
X70572380Y-157764285D01*
X70572380Y-157383333D01*
X70620000Y-157288095D01*
X70667619Y-157240476D01*
X70762857Y-157192857D01*
X70905714Y-157192857D01*
X71000952Y-157240476D01*
X71048571Y-157288095D01*
X71096190Y-157383333D01*
X71096190Y-157764285D01*
X70667619Y-156811904D02*
X70620000Y-156764285D01*
X70572380Y-156669047D01*
X70572380Y-156430952D01*
X70620000Y-156335714D01*
X70667619Y-156288095D01*
X70762857Y-156240476D01*
X70858095Y-156240476D01*
X71000952Y-156288095D01*
X71572380Y-156859523D01*
X71572380Y-156240476D01*
X70572380Y-155907142D02*
X70572380Y-155288095D01*
X70953333Y-155621428D01*
X70953333Y-155478571D01*
X71000952Y-155383333D01*
X71048571Y-155335714D01*
X71143809Y-155288095D01*
X71381904Y-155288095D01*
X71477142Y-155335714D01*
X71524761Y-155383333D01*
X71572380Y-155478571D01*
X71572380Y-155764285D01*
X71524761Y-155859523D01*
X71477142Y-155907142D01*
%TO.C,J20*%
X76690476Y-150722380D02*
X76690476Y-151436666D01*
X76642857Y-151579523D01*
X76547619Y-151674761D01*
X76404761Y-151722380D01*
X76309523Y-151722380D01*
X77119047Y-150817619D02*
X77166666Y-150770000D01*
X77261904Y-150722380D01*
X77500000Y-150722380D01*
X77595238Y-150770000D01*
X77642857Y-150817619D01*
X77690476Y-150912857D01*
X77690476Y-151008095D01*
X77642857Y-151150952D01*
X77071428Y-151722380D01*
X77690476Y-151722380D01*
X78309523Y-150722380D02*
X78404761Y-150722380D01*
X78500000Y-150770000D01*
X78547619Y-150817619D01*
X78595238Y-150912857D01*
X78642857Y-151103333D01*
X78642857Y-151341428D01*
X78595238Y-151531904D01*
X78547619Y-151627142D01*
X78500000Y-151674761D01*
X78404761Y-151722380D01*
X78309523Y-151722380D01*
X78214285Y-151674761D01*
X78166666Y-151627142D01*
X78119047Y-151531904D01*
X78071428Y-151341428D01*
X78071428Y-151103333D01*
X78119047Y-150912857D01*
X78166666Y-150817619D01*
X78214285Y-150770000D01*
X78309523Y-150722380D01*
%TO.C,U12*%
X74286904Y-156277380D02*
X74286904Y-157086904D01*
X74334523Y-157182142D01*
X74382142Y-157229761D01*
X74477380Y-157277380D01*
X74667857Y-157277380D01*
X74763095Y-157229761D01*
X74810714Y-157182142D01*
X74858333Y-157086904D01*
X74858333Y-156277380D01*
X75858333Y-157277380D02*
X75286904Y-157277380D01*
X75572619Y-157277380D02*
X75572619Y-156277380D01*
X75477380Y-156420238D01*
X75382142Y-156515476D01*
X75286904Y-156563095D01*
X76239285Y-156372619D02*
X76286904Y-156325000D01*
X76382142Y-156277380D01*
X76620238Y-156277380D01*
X76715476Y-156325000D01*
X76763095Y-156372619D01*
X76810714Y-156467857D01*
X76810714Y-156563095D01*
X76763095Y-156705952D01*
X76191666Y-157277380D01*
X76810714Y-157277380D01*
%TO.C,U11*%
X66902380Y-135538095D02*
X67711904Y-135538095D01*
X67807142Y-135490476D01*
X67854761Y-135442857D01*
X67902380Y-135347619D01*
X67902380Y-135157142D01*
X67854761Y-135061904D01*
X67807142Y-135014285D01*
X67711904Y-134966666D01*
X66902380Y-134966666D01*
X67902380Y-133966666D02*
X67902380Y-134538095D01*
X67902380Y-134252380D02*
X66902380Y-134252380D01*
X67045238Y-134347619D01*
X67140476Y-134442857D01*
X67188095Y-134538095D01*
X67902380Y-133014285D02*
X67902380Y-133585714D01*
X67902380Y-133300000D02*
X66902380Y-133300000D01*
X67045238Y-133395238D01*
X67140476Y-133490476D01*
X67188095Y-133585714D01*
%TO.C,U10*%
X60211904Y-121207380D02*
X60211904Y-122016904D01*
X60259523Y-122112142D01*
X60307142Y-122159761D01*
X60402380Y-122207380D01*
X60592857Y-122207380D01*
X60688095Y-122159761D01*
X60735714Y-122112142D01*
X60783333Y-122016904D01*
X60783333Y-121207380D01*
X61783333Y-122207380D02*
X61211904Y-122207380D01*
X61497619Y-122207380D02*
X61497619Y-121207380D01*
X61402380Y-121350238D01*
X61307142Y-121445476D01*
X61211904Y-121493095D01*
X62402380Y-121207380D02*
X62497619Y-121207380D01*
X62592857Y-121255000D01*
X62640476Y-121302619D01*
X62688095Y-121397857D01*
X62735714Y-121588333D01*
X62735714Y-121826428D01*
X62688095Y-122016904D01*
X62640476Y-122112142D01*
X62592857Y-122159761D01*
X62497619Y-122207380D01*
X62402380Y-122207380D01*
X62307142Y-122159761D01*
X62259523Y-122112142D01*
X62211904Y-122016904D01*
X62164285Y-121826428D01*
X62164285Y-121588333D01*
X62211904Y-121397857D01*
X62259523Y-121302619D01*
X62307142Y-121255000D01*
X62402380Y-121207380D01*
%TO.C,R27*%
X74432380Y-154142857D02*
X73956190Y-154476190D01*
X74432380Y-154714285D02*
X73432380Y-154714285D01*
X73432380Y-154333333D01*
X73480000Y-154238095D01*
X73527619Y-154190476D01*
X73622857Y-154142857D01*
X73765714Y-154142857D01*
X73860952Y-154190476D01*
X73908571Y-154238095D01*
X73956190Y-154333333D01*
X73956190Y-154714285D01*
X73527619Y-153761904D02*
X73480000Y-153714285D01*
X73432380Y-153619047D01*
X73432380Y-153380952D01*
X73480000Y-153285714D01*
X73527619Y-153238095D01*
X73622857Y-153190476D01*
X73718095Y-153190476D01*
X73860952Y-153238095D01*
X74432380Y-153809523D01*
X74432380Y-153190476D01*
X73432380Y-152857142D02*
X73432380Y-152190476D01*
X74432380Y-152619047D01*
%TO.C,R26*%
X72912380Y-155722857D02*
X72436190Y-156056190D01*
X72912380Y-156294285D02*
X71912380Y-156294285D01*
X71912380Y-155913333D01*
X71960000Y-155818095D01*
X72007619Y-155770476D01*
X72102857Y-155722857D01*
X72245714Y-155722857D01*
X72340952Y-155770476D01*
X72388571Y-155818095D01*
X72436190Y-155913333D01*
X72436190Y-156294285D01*
X72007619Y-155341904D02*
X71960000Y-155294285D01*
X71912380Y-155199047D01*
X71912380Y-154960952D01*
X71960000Y-154865714D01*
X72007619Y-154818095D01*
X72102857Y-154770476D01*
X72198095Y-154770476D01*
X72340952Y-154818095D01*
X72912380Y-155389523D01*
X72912380Y-154770476D01*
X71912380Y-153913333D02*
X71912380Y-154103809D01*
X71960000Y-154199047D01*
X72007619Y-154246666D01*
X72150476Y-154341904D01*
X72340952Y-154389523D01*
X72721904Y-154389523D01*
X72817142Y-154341904D01*
X72864761Y-154294285D01*
X72912380Y-154199047D01*
X72912380Y-154008571D01*
X72864761Y-153913333D01*
X72817142Y-153865714D01*
X72721904Y-153818095D01*
X72483809Y-153818095D01*
X72388571Y-153865714D01*
X72340952Y-153913333D01*
X72293333Y-154008571D01*
X72293333Y-154199047D01*
X72340952Y-154294285D01*
X72388571Y-154341904D01*
X72483809Y-154389523D01*
%TO.C,J9*%
X65966666Y-125557380D02*
X65966666Y-126271666D01*
X65919047Y-126414523D01*
X65823809Y-126509761D01*
X65680952Y-126557380D01*
X65585714Y-126557380D01*
X66490476Y-126557380D02*
X66680952Y-126557380D01*
X66776190Y-126509761D01*
X66823809Y-126462142D01*
X66919047Y-126319285D01*
X66966666Y-126128809D01*
X66966666Y-125747857D01*
X66919047Y-125652619D01*
X66871428Y-125605000D01*
X66776190Y-125557380D01*
X66585714Y-125557380D01*
X66490476Y-125605000D01*
X66442857Y-125652619D01*
X66395238Y-125747857D01*
X66395238Y-125985952D01*
X66442857Y-126081190D01*
X66490476Y-126128809D01*
X66585714Y-126176428D01*
X66776190Y-126176428D01*
X66871428Y-126128809D01*
X66919047Y-126081190D01*
X66966666Y-125985952D01*
%TO.C,C32*%
X70407142Y-160792857D02*
X70454761Y-160840476D01*
X70502380Y-160983333D01*
X70502380Y-161078571D01*
X70454761Y-161221428D01*
X70359523Y-161316666D01*
X70264285Y-161364285D01*
X70073809Y-161411904D01*
X69930952Y-161411904D01*
X69740476Y-161364285D01*
X69645238Y-161316666D01*
X69550000Y-161221428D01*
X69502380Y-161078571D01*
X69502380Y-160983333D01*
X69550000Y-160840476D01*
X69597619Y-160792857D01*
X69502380Y-160459523D02*
X69502380Y-159840476D01*
X69883333Y-160173809D01*
X69883333Y-160030952D01*
X69930952Y-159935714D01*
X69978571Y-159888095D01*
X70073809Y-159840476D01*
X70311904Y-159840476D01*
X70407142Y-159888095D01*
X70454761Y-159935714D01*
X70502380Y-160030952D01*
X70502380Y-160316666D01*
X70454761Y-160411904D01*
X70407142Y-160459523D01*
X69597619Y-159459523D02*
X69550000Y-159411904D01*
X69502380Y-159316666D01*
X69502380Y-159078571D01*
X69550000Y-158983333D01*
X69597619Y-158935714D01*
X69692857Y-158888095D01*
X69788095Y-158888095D01*
X69930952Y-158935714D01*
X70502380Y-159507142D01*
X70502380Y-158888095D01*
%TO.C,C31*%
X73707142Y-164217857D02*
X73754761Y-164265476D01*
X73802380Y-164408333D01*
X73802380Y-164503571D01*
X73754761Y-164646428D01*
X73659523Y-164741666D01*
X73564285Y-164789285D01*
X73373809Y-164836904D01*
X73230952Y-164836904D01*
X73040476Y-164789285D01*
X72945238Y-164741666D01*
X72850000Y-164646428D01*
X72802380Y-164503571D01*
X72802380Y-164408333D01*
X72850000Y-164265476D01*
X72897619Y-164217857D01*
X72802380Y-163884523D02*
X72802380Y-163265476D01*
X73183333Y-163598809D01*
X73183333Y-163455952D01*
X73230952Y-163360714D01*
X73278571Y-163313095D01*
X73373809Y-163265476D01*
X73611904Y-163265476D01*
X73707142Y-163313095D01*
X73754761Y-163360714D01*
X73802380Y-163455952D01*
X73802380Y-163741666D01*
X73754761Y-163836904D01*
X73707142Y-163884523D01*
X73802380Y-162313095D02*
X73802380Y-162884523D01*
X73802380Y-162598809D02*
X72802380Y-162598809D01*
X72945238Y-162694047D01*
X73040476Y-162789285D01*
X73088095Y-162884523D01*
%TO.C,C26*%
X57507142Y-124967857D02*
X57554761Y-125015476D01*
X57602380Y-125158333D01*
X57602380Y-125253571D01*
X57554761Y-125396428D01*
X57459523Y-125491666D01*
X57364285Y-125539285D01*
X57173809Y-125586904D01*
X57030952Y-125586904D01*
X56840476Y-125539285D01*
X56745238Y-125491666D01*
X56650000Y-125396428D01*
X56602380Y-125253571D01*
X56602380Y-125158333D01*
X56650000Y-125015476D01*
X56697619Y-124967857D01*
X56697619Y-124586904D02*
X56650000Y-124539285D01*
X56602380Y-124444047D01*
X56602380Y-124205952D01*
X56650000Y-124110714D01*
X56697619Y-124063095D01*
X56792857Y-124015476D01*
X56888095Y-124015476D01*
X57030952Y-124063095D01*
X57602380Y-124634523D01*
X57602380Y-124015476D01*
X56602380Y-123158333D02*
X56602380Y-123348809D01*
X56650000Y-123444047D01*
X56697619Y-123491666D01*
X56840476Y-123586904D01*
X57030952Y-123634523D01*
X57411904Y-123634523D01*
X57507142Y-123586904D01*
X57554761Y-123539285D01*
X57602380Y-123444047D01*
X57602380Y-123253571D01*
X57554761Y-123158333D01*
X57507142Y-123110714D01*
X57411904Y-123063095D01*
X57173809Y-123063095D01*
X57078571Y-123110714D01*
X57030952Y-123158333D01*
X56983333Y-123253571D01*
X56983333Y-123444047D01*
X57030952Y-123539285D01*
X57078571Y-123586904D01*
X57173809Y-123634523D01*
%TO.C,C22*%
X76657142Y-153457142D02*
X76609523Y-153504761D01*
X76466666Y-153552380D01*
X76371428Y-153552380D01*
X76228571Y-153504761D01*
X76133333Y-153409523D01*
X76085714Y-153314285D01*
X76038095Y-153123809D01*
X76038095Y-152980952D01*
X76085714Y-152790476D01*
X76133333Y-152695238D01*
X76228571Y-152600000D01*
X76371428Y-152552380D01*
X76466666Y-152552380D01*
X76609523Y-152600000D01*
X76657142Y-152647619D01*
X77038095Y-152647619D02*
X77085714Y-152600000D01*
X77180952Y-152552380D01*
X77419047Y-152552380D01*
X77514285Y-152600000D01*
X77561904Y-152647619D01*
X77609523Y-152742857D01*
X77609523Y-152838095D01*
X77561904Y-152980952D01*
X76990476Y-153552380D01*
X77609523Y-153552380D01*
X77990476Y-152647619D02*
X78038095Y-152600000D01*
X78133333Y-152552380D01*
X78371428Y-152552380D01*
X78466666Y-152600000D01*
X78514285Y-152647619D01*
X78561904Y-152742857D01*
X78561904Y-152838095D01*
X78514285Y-152980952D01*
X77942857Y-153552380D01*
X78561904Y-153552380D01*
%TO.C,U7*%
X59288095Y-132127380D02*
X59288095Y-132936904D01*
X59335714Y-133032142D01*
X59383333Y-133079761D01*
X59478571Y-133127380D01*
X59669047Y-133127380D01*
X59764285Y-133079761D01*
X59811904Y-133032142D01*
X59859523Y-132936904D01*
X59859523Y-132127380D01*
X60240476Y-132127380D02*
X60907142Y-132127380D01*
X60478571Y-133127380D01*
%TO.C,J19*%
X65542380Y-121699523D02*
X66256666Y-121699523D01*
X66399523Y-121747142D01*
X66494761Y-121842380D01*
X66542380Y-121985238D01*
X66542380Y-122080476D01*
X66542380Y-120699523D02*
X66542380Y-121270952D01*
X66542380Y-120985238D02*
X65542380Y-120985238D01*
X65685238Y-121080476D01*
X65780476Y-121175714D01*
X65828095Y-121270952D01*
X66542380Y-120223333D02*
X66542380Y-120032857D01*
X66494761Y-119937619D01*
X66447142Y-119890000D01*
X66304285Y-119794761D01*
X66113809Y-119747142D01*
X65732857Y-119747142D01*
X65637619Y-119794761D01*
X65590000Y-119842380D01*
X65542380Y-119937619D01*
X65542380Y-120128095D01*
X65590000Y-120223333D01*
X65637619Y-120270952D01*
X65732857Y-120318571D01*
X65970952Y-120318571D01*
X66066190Y-120270952D01*
X66113809Y-120223333D01*
X66161428Y-120128095D01*
X66161428Y-119937619D01*
X66113809Y-119842380D01*
X66066190Y-119794761D01*
X65970952Y-119747142D01*
%TO.C,J12*%
X53090476Y-156547380D02*
X53090476Y-157261666D01*
X53042857Y-157404523D01*
X52947619Y-157499761D01*
X52804761Y-157547380D01*
X52709523Y-157547380D01*
X54090476Y-157547380D02*
X53519047Y-157547380D01*
X53804761Y-157547380D02*
X53804761Y-156547380D01*
X53709523Y-156690238D01*
X53614285Y-156785476D01*
X53519047Y-156833095D01*
X54471428Y-156642619D02*
X54519047Y-156595000D01*
X54614285Y-156547380D01*
X54852380Y-156547380D01*
X54947619Y-156595000D01*
X54995238Y-156642619D01*
X55042857Y-156737857D01*
X55042857Y-156833095D01*
X54995238Y-156975952D01*
X54423809Y-157547380D01*
X55042857Y-157547380D01*
%TO.C,J6*%
X50776666Y-170143380D02*
X50776666Y-170857666D01*
X50729047Y-171000523D01*
X50633809Y-171095761D01*
X50490952Y-171143380D01*
X50395714Y-171143380D01*
X51681428Y-170143380D02*
X51490952Y-170143380D01*
X51395714Y-170191000D01*
X51348095Y-170238619D01*
X51252857Y-170381476D01*
X51205238Y-170571952D01*
X51205238Y-170952904D01*
X51252857Y-171048142D01*
X51300476Y-171095761D01*
X51395714Y-171143380D01*
X51586190Y-171143380D01*
X51681428Y-171095761D01*
X51729047Y-171048142D01*
X51776666Y-170952904D01*
X51776666Y-170714809D01*
X51729047Y-170619571D01*
X51681428Y-170571952D01*
X51586190Y-170524333D01*
X51395714Y-170524333D01*
X51300476Y-170571952D01*
X51252857Y-170619571D01*
X51205238Y-170714809D01*
%TO.C,H2*%
X76238095Y-164002380D02*
X76238095Y-163002380D01*
X76238095Y-163478571D02*
X76809523Y-163478571D01*
X76809523Y-164002380D02*
X76809523Y-163002380D01*
X77238095Y-163097619D02*
X77285714Y-163050000D01*
X77380952Y-163002380D01*
X77619047Y-163002380D01*
X77714285Y-163050000D01*
X77761904Y-163097619D01*
X77809523Y-163192857D01*
X77809523Y-163288095D01*
X77761904Y-163430952D01*
X77190476Y-164002380D01*
X77809523Y-164002380D01*
%TO.C,H1*%
X42238095Y-163952380D02*
X42238095Y-162952380D01*
X42238095Y-163428571D02*
X42809523Y-163428571D01*
X42809523Y-163952380D02*
X42809523Y-162952380D01*
X43809523Y-163952380D02*
X43238095Y-163952380D01*
X43523809Y-163952380D02*
X43523809Y-162952380D01*
X43428571Y-163095238D01*
X43333333Y-163190476D01*
X43238095Y-163238095D01*
%TO.C,J8*%
X53957380Y-108133333D02*
X54671666Y-108133333D01*
X54814523Y-108180952D01*
X54909761Y-108276190D01*
X54957380Y-108419047D01*
X54957380Y-108514285D01*
X54385952Y-107514285D02*
X54338333Y-107609523D01*
X54290714Y-107657142D01*
X54195476Y-107704761D01*
X54147857Y-107704761D01*
X54052619Y-107657142D01*
X54005000Y-107609523D01*
X53957380Y-107514285D01*
X53957380Y-107323809D01*
X54005000Y-107228571D01*
X54052619Y-107180952D01*
X54147857Y-107133333D01*
X54195476Y-107133333D01*
X54290714Y-107180952D01*
X54338333Y-107228571D01*
X54385952Y-107323809D01*
X54385952Y-107514285D01*
X54433571Y-107609523D01*
X54481190Y-107657142D01*
X54576428Y-107704761D01*
X54766904Y-107704761D01*
X54862142Y-107657142D01*
X54909761Y-107609523D01*
X54957380Y-107514285D01*
X54957380Y-107323809D01*
X54909761Y-107228571D01*
X54862142Y-107180952D01*
X54766904Y-107133333D01*
X54576428Y-107133333D01*
X54481190Y-107180952D01*
X54433571Y-107228571D01*
X54385952Y-107323809D01*
%TO.C,J7*%
X55991666Y-135422380D02*
X55991666Y-136136666D01*
X55944047Y-136279523D01*
X55848809Y-136374761D01*
X55705952Y-136422380D01*
X55610714Y-136422380D01*
X56372619Y-135422380D02*
X57039285Y-135422380D01*
X56610714Y-136422380D01*
%TO.C,J1*%
X59697380Y-121333333D02*
X60411666Y-121333333D01*
X60554523Y-121380952D01*
X60649761Y-121476190D01*
X60697380Y-121619047D01*
X60697380Y-121714285D01*
X60697380Y-120333333D02*
X60697380Y-120904761D01*
X60697380Y-120619047D02*
X59697380Y-120619047D01*
X59840238Y-120714285D01*
X59935476Y-120809523D01*
X59983095Y-120904761D01*
%TO.C,J10*%
X80112380Y-141499523D02*
X80826666Y-141499523D01*
X80969523Y-141547142D01*
X81064761Y-141642380D01*
X81112380Y-141785238D01*
X81112380Y-141880476D01*
X81112380Y-140499523D02*
X81112380Y-141070952D01*
X81112380Y-140785238D02*
X80112380Y-140785238D01*
X80255238Y-140880476D01*
X80350476Y-140975714D01*
X80398095Y-141070952D01*
X80112380Y-139880476D02*
X80112380Y-139785238D01*
X80160000Y-139690000D01*
X80207619Y-139642380D01*
X80302857Y-139594761D01*
X80493333Y-139547142D01*
X80731428Y-139547142D01*
X80921904Y-139594761D01*
X81017142Y-139642380D01*
X81064761Y-139690000D01*
X81112380Y-139785238D01*
X81112380Y-139880476D01*
X81064761Y-139975714D01*
X81017142Y-140023333D01*
X80921904Y-140070952D01*
X80731428Y-140118571D01*
X80493333Y-140118571D01*
X80302857Y-140070952D01*
X80207619Y-140023333D01*
X80160000Y-139975714D01*
X80112380Y-139880476D01*
%TO.C,U6*%
X59238095Y-151757380D02*
X59238095Y-152566904D01*
X59285714Y-152662142D01*
X59333333Y-152709761D01*
X59428571Y-152757380D01*
X59619047Y-152757380D01*
X59714285Y-152709761D01*
X59761904Y-152662142D01*
X59809523Y-152566904D01*
X59809523Y-151757380D01*
X60714285Y-151757380D02*
X60523809Y-151757380D01*
X60428571Y-151805000D01*
X60380952Y-151852619D01*
X60285714Y-151995476D01*
X60238095Y-152185952D01*
X60238095Y-152566904D01*
X60285714Y-152662142D01*
X60333333Y-152709761D01*
X60428571Y-152757380D01*
X60619047Y-152757380D01*
X60714285Y-152709761D01*
X60761904Y-152662142D01*
X60809523Y-152566904D01*
X60809523Y-152328809D01*
X60761904Y-152233571D01*
X60714285Y-152185952D01*
X60619047Y-152138333D01*
X60428571Y-152138333D01*
X60333333Y-152185952D01*
X60285714Y-152233571D01*
X60238095Y-152328809D01*
%TO.C,Y1*%
X48176190Y-141251190D02*
X48652380Y-141251190D01*
X47652380Y-141584523D02*
X48176190Y-141251190D01*
X47652380Y-140917857D01*
X48652380Y-140060714D02*
X48652380Y-140632142D01*
X48652380Y-140346428D02*
X47652380Y-140346428D01*
X47795238Y-140441666D01*
X47890476Y-140536904D01*
X47938095Y-140632142D01*
%TO.C,U?1*%
X79156380Y-118890476D02*
X79965904Y-118890476D01*
X80061142Y-118842857D01*
X80108761Y-118795238D01*
X80156380Y-118700000D01*
X80156380Y-118509523D01*
X80108761Y-118414285D01*
X80061142Y-118366666D01*
X79965904Y-118319047D01*
X79156380Y-118319047D01*
X80061142Y-117700000D02*
X80108761Y-117652380D01*
X80156380Y-117700000D01*
X80108761Y-117747619D01*
X80061142Y-117700000D01*
X80156380Y-117700000D01*
X79204000Y-117890476D02*
X79156380Y-117795238D01*
X79156380Y-117557142D01*
X79204000Y-117461904D01*
X79299238Y-117414285D01*
X79394476Y-117414285D01*
X79489714Y-117461904D01*
X79537333Y-117509523D01*
X79584952Y-117604761D01*
X79632571Y-117652380D01*
X79727809Y-117700000D01*
X79775428Y-117700000D01*
X80156380Y-116461904D02*
X80156380Y-117033333D01*
X80156380Y-116747619D02*
X79156380Y-116747619D01*
X79299238Y-116842857D01*
X79394476Y-116938095D01*
X79442095Y-117033333D01*
%TO.C,U9*%
X44302380Y-120511904D02*
X45111904Y-120511904D01*
X45207142Y-120464285D01*
X45254761Y-120416666D01*
X45302380Y-120321428D01*
X45302380Y-120130952D01*
X45254761Y-120035714D01*
X45207142Y-119988095D01*
X45111904Y-119940476D01*
X44302380Y-119940476D01*
X45302380Y-119416666D02*
X45302380Y-119226190D01*
X45254761Y-119130952D01*
X45207142Y-119083333D01*
X45064285Y-118988095D01*
X44873809Y-118940476D01*
X44492857Y-118940476D01*
X44397619Y-118988095D01*
X44350000Y-119035714D01*
X44302380Y-119130952D01*
X44302380Y-119321428D01*
X44350000Y-119416666D01*
X44397619Y-119464285D01*
X44492857Y-119511904D01*
X44730952Y-119511904D01*
X44826190Y-119464285D01*
X44873809Y-119416666D01*
X44921428Y-119321428D01*
X44921428Y-119130952D01*
X44873809Y-119035714D01*
X44826190Y-118988095D01*
X44730952Y-118940476D01*
%TO.C,U5*%
X48637380Y-121846904D02*
X49446904Y-121846904D01*
X49542142Y-121799285D01*
X49589761Y-121751666D01*
X49637380Y-121656428D01*
X49637380Y-121465952D01*
X49589761Y-121370714D01*
X49542142Y-121323095D01*
X49446904Y-121275476D01*
X48637380Y-121275476D01*
X48637380Y-120323095D02*
X48637380Y-120799285D01*
X49113571Y-120846904D01*
X49065952Y-120799285D01*
X49018333Y-120704047D01*
X49018333Y-120465952D01*
X49065952Y-120370714D01*
X49113571Y-120323095D01*
X49208809Y-120275476D01*
X49446904Y-120275476D01*
X49542142Y-120323095D01*
X49589761Y-120370714D01*
X49637380Y-120465952D01*
X49637380Y-120704047D01*
X49589761Y-120799285D01*
X49542142Y-120846904D01*
%TO.C,U4*%
X69938095Y-146352380D02*
X69938095Y-147161904D01*
X69985714Y-147257142D01*
X70033333Y-147304761D01*
X70128571Y-147352380D01*
X70319047Y-147352380D01*
X70414285Y-147304761D01*
X70461904Y-147257142D01*
X70509523Y-147161904D01*
X70509523Y-146352380D01*
X71414285Y-146685714D02*
X71414285Y-147352380D01*
X71176190Y-146304761D02*
X70938095Y-147019047D01*
X71557142Y-147019047D01*
%TO.C,U3*%
X41913380Y-157428904D02*
X42722904Y-157428904D01*
X42818142Y-157381285D01*
X42865761Y-157333666D01*
X42913380Y-157238428D01*
X42913380Y-157047952D01*
X42865761Y-156952714D01*
X42818142Y-156905095D01*
X42722904Y-156857476D01*
X41913380Y-156857476D01*
X41913380Y-156476523D02*
X41913380Y-155857476D01*
X42294333Y-156190809D01*
X42294333Y-156047952D01*
X42341952Y-155952714D01*
X42389571Y-155905095D01*
X42484809Y-155857476D01*
X42722904Y-155857476D01*
X42818142Y-155905095D01*
X42865761Y-155952714D01*
X42913380Y-156047952D01*
X42913380Y-156333666D01*
X42865761Y-156428904D01*
X42818142Y-156476523D01*
%TO.C,R22*%
X43007142Y-122322380D02*
X42673809Y-121846190D01*
X42435714Y-122322380D02*
X42435714Y-121322380D01*
X42816666Y-121322380D01*
X42911904Y-121370000D01*
X42959523Y-121417619D01*
X43007142Y-121512857D01*
X43007142Y-121655714D01*
X42959523Y-121750952D01*
X42911904Y-121798571D01*
X42816666Y-121846190D01*
X42435714Y-121846190D01*
X43388095Y-121417619D02*
X43435714Y-121370000D01*
X43530952Y-121322380D01*
X43769047Y-121322380D01*
X43864285Y-121370000D01*
X43911904Y-121417619D01*
X43959523Y-121512857D01*
X43959523Y-121608095D01*
X43911904Y-121750952D01*
X43340476Y-122322380D01*
X43959523Y-122322380D01*
X44340476Y-121417619D02*
X44388095Y-121370000D01*
X44483333Y-121322380D01*
X44721428Y-121322380D01*
X44816666Y-121370000D01*
X44864285Y-121417619D01*
X44911904Y-121512857D01*
X44911904Y-121608095D01*
X44864285Y-121750952D01*
X44292857Y-122322380D01*
X44911904Y-122322380D01*
%TO.C,R20*%
X44711142Y-148270380D02*
X44377809Y-147794190D01*
X44139714Y-148270380D02*
X44139714Y-147270380D01*
X44520666Y-147270380D01*
X44615904Y-147318000D01*
X44663523Y-147365619D01*
X44711142Y-147460857D01*
X44711142Y-147603714D01*
X44663523Y-147698952D01*
X44615904Y-147746571D01*
X44520666Y-147794190D01*
X44139714Y-147794190D01*
X45092095Y-147365619D02*
X45139714Y-147318000D01*
X45234952Y-147270380D01*
X45473047Y-147270380D01*
X45568285Y-147318000D01*
X45615904Y-147365619D01*
X45663523Y-147460857D01*
X45663523Y-147556095D01*
X45615904Y-147698952D01*
X45044476Y-148270380D01*
X45663523Y-148270380D01*
X46282571Y-147270380D02*
X46377809Y-147270380D01*
X46473047Y-147318000D01*
X46520666Y-147365619D01*
X46568285Y-147460857D01*
X46615904Y-147651333D01*
X46615904Y-147889428D01*
X46568285Y-148079904D01*
X46520666Y-148175142D01*
X46473047Y-148222761D01*
X46377809Y-148270380D01*
X46282571Y-148270380D01*
X46187333Y-148222761D01*
X46139714Y-148175142D01*
X46092095Y-148079904D01*
X46044476Y-147889428D01*
X46044476Y-147651333D01*
X46092095Y-147460857D01*
X46139714Y-147365619D01*
X46187333Y-147318000D01*
X46282571Y-147270380D01*
%TO.C,R19*%
X47522380Y-106467857D02*
X47046190Y-106801190D01*
X47522380Y-107039285D02*
X46522380Y-107039285D01*
X46522380Y-106658333D01*
X46570000Y-106563095D01*
X46617619Y-106515476D01*
X46712857Y-106467857D01*
X46855714Y-106467857D01*
X46950952Y-106515476D01*
X46998571Y-106563095D01*
X47046190Y-106658333D01*
X47046190Y-107039285D01*
X47522380Y-105515476D02*
X47522380Y-106086904D01*
X47522380Y-105801190D02*
X46522380Y-105801190D01*
X46665238Y-105896428D01*
X46760476Y-105991666D01*
X46808095Y-106086904D01*
X47522380Y-105039285D02*
X47522380Y-104848809D01*
X47474761Y-104753571D01*
X47427142Y-104705952D01*
X47284285Y-104610714D01*
X47093809Y-104563095D01*
X46712857Y-104563095D01*
X46617619Y-104610714D01*
X46570000Y-104658333D01*
X46522380Y-104753571D01*
X46522380Y-104944047D01*
X46570000Y-105039285D01*
X46617619Y-105086904D01*
X46712857Y-105134523D01*
X46950952Y-105134523D01*
X47046190Y-105086904D01*
X47093809Y-105039285D01*
X47141428Y-104944047D01*
X47141428Y-104753571D01*
X47093809Y-104658333D01*
X47046190Y-104610714D01*
X46950952Y-104563095D01*
%TO.C,R17*%
X44711142Y-149889713D02*
X44377809Y-149413523D01*
X44139714Y-149889713D02*
X44139714Y-148889713D01*
X44520666Y-148889713D01*
X44615904Y-148937333D01*
X44663523Y-148984952D01*
X44711142Y-149080190D01*
X44711142Y-149223047D01*
X44663523Y-149318285D01*
X44615904Y-149365904D01*
X44520666Y-149413523D01*
X44139714Y-149413523D01*
X45663523Y-149889713D02*
X45092095Y-149889713D01*
X45377809Y-149889713D02*
X45377809Y-148889713D01*
X45282571Y-149032571D01*
X45187333Y-149127809D01*
X45092095Y-149175428D01*
X45996857Y-148889713D02*
X46663523Y-148889713D01*
X46234952Y-149889713D01*
%TO.C,R16*%
X47522380Y-111267857D02*
X47046190Y-111601190D01*
X47522380Y-111839285D02*
X46522380Y-111839285D01*
X46522380Y-111458333D01*
X46570000Y-111363095D01*
X46617619Y-111315476D01*
X46712857Y-111267857D01*
X46855714Y-111267857D01*
X46950952Y-111315476D01*
X46998571Y-111363095D01*
X47046190Y-111458333D01*
X47046190Y-111839285D01*
X47522380Y-110315476D02*
X47522380Y-110886904D01*
X47522380Y-110601190D02*
X46522380Y-110601190D01*
X46665238Y-110696428D01*
X46760476Y-110791666D01*
X46808095Y-110886904D01*
X46522380Y-109458333D02*
X46522380Y-109648809D01*
X46570000Y-109744047D01*
X46617619Y-109791666D01*
X46760476Y-109886904D01*
X46950952Y-109934523D01*
X47331904Y-109934523D01*
X47427142Y-109886904D01*
X47474761Y-109839285D01*
X47522380Y-109744047D01*
X47522380Y-109553571D01*
X47474761Y-109458333D01*
X47427142Y-109410714D01*
X47331904Y-109363095D01*
X47093809Y-109363095D01*
X46998571Y-109410714D01*
X46950952Y-109458333D01*
X46903333Y-109553571D01*
X46903333Y-109744047D01*
X46950952Y-109839285D01*
X46998571Y-109886904D01*
X47093809Y-109934523D01*
%TO.C,R15*%
X44711142Y-153109046D02*
X44377809Y-152632856D01*
X44139714Y-153109046D02*
X44139714Y-152109046D01*
X44520666Y-152109046D01*
X44615904Y-152156666D01*
X44663523Y-152204285D01*
X44711142Y-152299523D01*
X44711142Y-152442380D01*
X44663523Y-152537618D01*
X44615904Y-152585237D01*
X44520666Y-152632856D01*
X44139714Y-152632856D01*
X45663523Y-153109046D02*
X45092095Y-153109046D01*
X45377809Y-153109046D02*
X45377809Y-152109046D01*
X45282571Y-152251904D01*
X45187333Y-152347142D01*
X45092095Y-152394761D01*
X46568285Y-152109046D02*
X46092095Y-152109046D01*
X46044476Y-152585237D01*
X46092095Y-152537618D01*
X46187333Y-152489999D01*
X46425428Y-152489999D01*
X46520666Y-152537618D01*
X46568285Y-152585237D01*
X46615904Y-152680475D01*
X46615904Y-152918570D01*
X46568285Y-153013808D01*
X46520666Y-153061427D01*
X46425428Y-153109046D01*
X46187333Y-153109046D01*
X46092095Y-153061427D01*
X46044476Y-153013808D01*
%TO.C,R12*%
X48632142Y-123322380D02*
X48298809Y-122846190D01*
X48060714Y-123322380D02*
X48060714Y-122322380D01*
X48441666Y-122322380D01*
X48536904Y-122370000D01*
X48584523Y-122417619D01*
X48632142Y-122512857D01*
X48632142Y-122655714D01*
X48584523Y-122750952D01*
X48536904Y-122798571D01*
X48441666Y-122846190D01*
X48060714Y-122846190D01*
X49584523Y-123322380D02*
X49013095Y-123322380D01*
X49298809Y-123322380D02*
X49298809Y-122322380D01*
X49203571Y-122465238D01*
X49108333Y-122560476D01*
X49013095Y-122608095D01*
X49965476Y-122417619D02*
X50013095Y-122370000D01*
X50108333Y-122322380D01*
X50346428Y-122322380D01*
X50441666Y-122370000D01*
X50489285Y-122417619D01*
X50536904Y-122512857D01*
X50536904Y-122608095D01*
X50489285Y-122750952D01*
X49917857Y-123322380D01*
X50536904Y-123322380D01*
%TO.C,R11*%
X51807142Y-126182380D02*
X51473809Y-125706190D01*
X51235714Y-126182380D02*
X51235714Y-125182380D01*
X51616666Y-125182380D01*
X51711904Y-125230000D01*
X51759523Y-125277619D01*
X51807142Y-125372857D01*
X51807142Y-125515714D01*
X51759523Y-125610952D01*
X51711904Y-125658571D01*
X51616666Y-125706190D01*
X51235714Y-125706190D01*
X52759523Y-126182380D02*
X52188095Y-126182380D01*
X52473809Y-126182380D02*
X52473809Y-125182380D01*
X52378571Y-125325238D01*
X52283333Y-125420476D01*
X52188095Y-125468095D01*
X53711904Y-126182380D02*
X53140476Y-126182380D01*
X53426190Y-126182380D02*
X53426190Y-125182380D01*
X53330952Y-125325238D01*
X53235714Y-125420476D01*
X53140476Y-125468095D01*
%TO.C,R10*%
X53922380Y-99462857D02*
X53446190Y-99796190D01*
X53922380Y-100034285D02*
X52922380Y-100034285D01*
X52922380Y-99653333D01*
X52970000Y-99558095D01*
X53017619Y-99510476D01*
X53112857Y-99462857D01*
X53255714Y-99462857D01*
X53350952Y-99510476D01*
X53398571Y-99558095D01*
X53446190Y-99653333D01*
X53446190Y-100034285D01*
X53922380Y-98510476D02*
X53922380Y-99081904D01*
X53922380Y-98796190D02*
X52922380Y-98796190D01*
X53065238Y-98891428D01*
X53160476Y-98986666D01*
X53208095Y-99081904D01*
X52922380Y-97891428D02*
X52922380Y-97796190D01*
X52970000Y-97700952D01*
X53017619Y-97653333D01*
X53112857Y-97605714D01*
X53303333Y-97558095D01*
X53541428Y-97558095D01*
X53731904Y-97605714D01*
X53827142Y-97653333D01*
X53874761Y-97700952D01*
X53922380Y-97796190D01*
X53922380Y-97891428D01*
X53874761Y-97986666D01*
X53827142Y-98034285D01*
X53731904Y-98081904D01*
X53541428Y-98129523D01*
X53303333Y-98129523D01*
X53112857Y-98081904D01*
X53017619Y-98034285D01*
X52970000Y-97986666D01*
X52922380Y-97891428D01*
%TO.C,R9*%
X52137380Y-98986666D02*
X51661190Y-99320000D01*
X52137380Y-99558095D02*
X51137380Y-99558095D01*
X51137380Y-99177142D01*
X51185000Y-99081904D01*
X51232619Y-99034285D01*
X51327857Y-98986666D01*
X51470714Y-98986666D01*
X51565952Y-99034285D01*
X51613571Y-99081904D01*
X51661190Y-99177142D01*
X51661190Y-99558095D01*
X52137380Y-98510476D02*
X52137380Y-98320000D01*
X52089761Y-98224761D01*
X52042142Y-98177142D01*
X51899285Y-98081904D01*
X51708809Y-98034285D01*
X51327857Y-98034285D01*
X51232619Y-98081904D01*
X51185000Y-98129523D01*
X51137380Y-98224761D01*
X51137380Y-98415238D01*
X51185000Y-98510476D01*
X51232619Y-98558095D01*
X51327857Y-98605714D01*
X51565952Y-98605714D01*
X51661190Y-98558095D01*
X51708809Y-98510476D01*
X51756428Y-98415238D01*
X51756428Y-98224761D01*
X51708809Y-98129523D01*
X51661190Y-98081904D01*
X51565952Y-98034285D01*
%TO.C,R8*%
X45187333Y-154728380D02*
X44854000Y-154252190D01*
X44615904Y-154728380D02*
X44615904Y-153728380D01*
X44996857Y-153728380D01*
X45092095Y-153776000D01*
X45139714Y-153823619D01*
X45187333Y-153918857D01*
X45187333Y-154061714D01*
X45139714Y-154156952D01*
X45092095Y-154204571D01*
X44996857Y-154252190D01*
X44615904Y-154252190D01*
X45758761Y-154156952D02*
X45663523Y-154109333D01*
X45615904Y-154061714D01*
X45568285Y-153966476D01*
X45568285Y-153918857D01*
X45615904Y-153823619D01*
X45663523Y-153776000D01*
X45758761Y-153728380D01*
X45949238Y-153728380D01*
X46044476Y-153776000D01*
X46092095Y-153823619D01*
X46139714Y-153918857D01*
X46139714Y-153966476D01*
X46092095Y-154061714D01*
X46044476Y-154109333D01*
X45949238Y-154156952D01*
X45758761Y-154156952D01*
X45663523Y-154204571D01*
X45615904Y-154252190D01*
X45568285Y-154347428D01*
X45568285Y-154537904D01*
X45615904Y-154633142D01*
X45663523Y-154680761D01*
X45758761Y-154728380D01*
X45949238Y-154728380D01*
X46044476Y-154680761D01*
X46092095Y-154633142D01*
X46139714Y-154537904D01*
X46139714Y-154347428D01*
X46092095Y-154252190D01*
X46044476Y-154204571D01*
X45949238Y-154156952D01*
%TO.C,R6*%
X45183333Y-143797380D02*
X44850000Y-143321190D01*
X44611904Y-143797380D02*
X44611904Y-142797380D01*
X44992857Y-142797380D01*
X45088095Y-142845000D01*
X45135714Y-142892619D01*
X45183333Y-142987857D01*
X45183333Y-143130714D01*
X45135714Y-143225952D01*
X45088095Y-143273571D01*
X44992857Y-143321190D01*
X44611904Y-143321190D01*
X46040476Y-142797380D02*
X45850000Y-142797380D01*
X45754761Y-142845000D01*
X45707142Y-142892619D01*
X45611904Y-143035476D01*
X45564285Y-143225952D01*
X45564285Y-143606904D01*
X45611904Y-143702142D01*
X45659523Y-143749761D01*
X45754761Y-143797380D01*
X45945238Y-143797380D01*
X46040476Y-143749761D01*
X46088095Y-143702142D01*
X46135714Y-143606904D01*
X46135714Y-143368809D01*
X46088095Y-143273571D01*
X46040476Y-143225952D01*
X45945238Y-143178333D01*
X45754761Y-143178333D01*
X45659523Y-143225952D01*
X45611904Y-143273571D01*
X45564285Y-143368809D01*
%TO.C,R5*%
X45183333Y-148647380D02*
X44850000Y-148171190D01*
X44611904Y-148647380D02*
X44611904Y-147647380D01*
X44992857Y-147647380D01*
X45088095Y-147695000D01*
X45135714Y-147742619D01*
X45183333Y-147837857D01*
X45183333Y-147980714D01*
X45135714Y-148075952D01*
X45088095Y-148123571D01*
X44992857Y-148171190D01*
X44611904Y-148171190D01*
X46088095Y-147647380D02*
X45611904Y-147647380D01*
X45564285Y-148123571D01*
X45611904Y-148075952D01*
X45707142Y-148028333D01*
X45945238Y-148028333D01*
X46040476Y-148075952D01*
X46088095Y-148123571D01*
X46135714Y-148218809D01*
X46135714Y-148456904D01*
X46088095Y-148552142D01*
X46040476Y-148599761D01*
X45945238Y-148647380D01*
X45707142Y-148647380D01*
X45611904Y-148599761D01*
X45564285Y-148552142D01*
%TO.C,R3*%
X73133333Y-152302380D02*
X72800000Y-151826190D01*
X72561904Y-152302380D02*
X72561904Y-151302380D01*
X72942857Y-151302380D01*
X73038095Y-151350000D01*
X73085714Y-151397619D01*
X73133333Y-151492857D01*
X73133333Y-151635714D01*
X73085714Y-151730952D01*
X73038095Y-151778571D01*
X72942857Y-151826190D01*
X72561904Y-151826190D01*
X73466666Y-151302380D02*
X74085714Y-151302380D01*
X73752380Y-151683333D01*
X73895238Y-151683333D01*
X73990476Y-151730952D01*
X74038095Y-151778571D01*
X74085714Y-151873809D01*
X74085714Y-152111904D01*
X74038095Y-152207142D01*
X73990476Y-152254761D01*
X73895238Y-152302380D01*
X73609523Y-152302380D01*
X73514285Y-152254761D01*
X73466666Y-152207142D01*
%TO.C,R2*%
X72808333Y-140472380D02*
X72475000Y-139996190D01*
X72236904Y-140472380D02*
X72236904Y-139472380D01*
X72617857Y-139472380D01*
X72713095Y-139520000D01*
X72760714Y-139567619D01*
X72808333Y-139662857D01*
X72808333Y-139805714D01*
X72760714Y-139900952D01*
X72713095Y-139948571D01*
X72617857Y-139996190D01*
X72236904Y-139996190D01*
X73189285Y-139567619D02*
X73236904Y-139520000D01*
X73332142Y-139472380D01*
X73570238Y-139472380D01*
X73665476Y-139520000D01*
X73713095Y-139567619D01*
X73760714Y-139662857D01*
X73760714Y-139758095D01*
X73713095Y-139900952D01*
X73141666Y-140472380D01*
X73760714Y-140472380D01*
%TO.C,R1*%
X70133333Y-148532380D02*
X69800000Y-148056190D01*
X69561904Y-148532380D02*
X69561904Y-147532380D01*
X69942857Y-147532380D01*
X70038095Y-147580000D01*
X70085714Y-147627619D01*
X70133333Y-147722857D01*
X70133333Y-147865714D01*
X70085714Y-147960952D01*
X70038095Y-148008571D01*
X69942857Y-148056190D01*
X69561904Y-148056190D01*
X71085714Y-148532380D02*
X70514285Y-148532380D01*
X70800000Y-148532380D02*
X70800000Y-147532380D01*
X70704761Y-147675238D01*
X70609523Y-147770476D01*
X70514285Y-147818095D01*
%TO.C,Q1*%
X72897619Y-151479238D02*
X72850000Y-151574476D01*
X72754761Y-151669714D01*
X72611904Y-151812571D01*
X72564285Y-151907809D01*
X72564285Y-152003047D01*
X72802380Y-151955428D02*
X72754761Y-152050666D01*
X72659523Y-152145904D01*
X72469047Y-152193523D01*
X72135714Y-152193523D01*
X71945238Y-152145904D01*
X71850000Y-152050666D01*
X71802380Y-151955428D01*
X71802380Y-151764952D01*
X71850000Y-151669714D01*
X71945238Y-151574476D01*
X72135714Y-151526857D01*
X72469047Y-151526857D01*
X72659523Y-151574476D01*
X72754761Y-151669714D01*
X72802380Y-151764952D01*
X72802380Y-151955428D01*
X72802380Y-150574476D02*
X72802380Y-151145904D01*
X72802380Y-150860190D02*
X71802380Y-150860190D01*
X71945238Y-150955428D01*
X72040476Y-151050666D01*
X72088095Y-151145904D01*
%TO.C,L2*%
X44932380Y-122966666D02*
X44932380Y-123442857D01*
X43932380Y-123442857D01*
X44027619Y-122680952D02*
X43980000Y-122633333D01*
X43932380Y-122538095D01*
X43932380Y-122300000D01*
X43980000Y-122204761D01*
X44027619Y-122157142D01*
X44122857Y-122109523D01*
X44218095Y-122109523D01*
X44360952Y-122157142D01*
X44932380Y-122728571D01*
X44932380Y-122109523D01*
%TO.C,L1*%
X63658333Y-150432380D02*
X63182142Y-150432380D01*
X63182142Y-149432380D01*
X64515476Y-150432380D02*
X63944047Y-150432380D01*
X64229761Y-150432380D02*
X64229761Y-149432380D01*
X64134523Y-149575238D01*
X64039285Y-149670476D01*
X63944047Y-149718095D01*
%TO.C,J18*%
X52828476Y-170143380D02*
X52828476Y-170857666D01*
X52780857Y-171000523D01*
X52685619Y-171095761D01*
X52542761Y-171143380D01*
X52447523Y-171143380D01*
X53828476Y-171143380D02*
X53257047Y-171143380D01*
X53542761Y-171143380D02*
X53542761Y-170143380D01*
X53447523Y-170286238D01*
X53352285Y-170381476D01*
X53257047Y-170429095D01*
X54399904Y-170571952D02*
X54304666Y-170524333D01*
X54257047Y-170476714D01*
X54209428Y-170381476D01*
X54209428Y-170333857D01*
X54257047Y-170238619D01*
X54304666Y-170191000D01*
X54399904Y-170143380D01*
X54590380Y-170143380D01*
X54685619Y-170191000D01*
X54733238Y-170238619D01*
X54780857Y-170333857D01*
X54780857Y-170381476D01*
X54733238Y-170476714D01*
X54685619Y-170524333D01*
X54590380Y-170571952D01*
X54399904Y-170571952D01*
X54304666Y-170619571D01*
X54257047Y-170667190D01*
X54209428Y-170762428D01*
X54209428Y-170952904D01*
X54257047Y-171048142D01*
X54304666Y-171095761D01*
X54399904Y-171143380D01*
X54590380Y-171143380D01*
X54685619Y-171095761D01*
X54733238Y-171048142D01*
X54780857Y-170952904D01*
X54780857Y-170762428D01*
X54733238Y-170667190D01*
X54685619Y-170619571D01*
X54590380Y-170571952D01*
%TO.C,J17*%
X55368476Y-170143380D02*
X55368476Y-170857666D01*
X55320857Y-171000523D01*
X55225619Y-171095761D01*
X55082761Y-171143380D01*
X54987523Y-171143380D01*
X56368476Y-171143380D02*
X55797047Y-171143380D01*
X56082761Y-171143380D02*
X56082761Y-170143380D01*
X55987523Y-170286238D01*
X55892285Y-170381476D01*
X55797047Y-170429095D01*
X56701809Y-170143380D02*
X57368476Y-170143380D01*
X56939904Y-171143380D01*
%TO.C,J16*%
X57908476Y-170143380D02*
X57908476Y-170857666D01*
X57860857Y-171000523D01*
X57765619Y-171095761D01*
X57622761Y-171143380D01*
X57527523Y-171143380D01*
X58908476Y-171143380D02*
X58337047Y-171143380D01*
X58622761Y-171143380D02*
X58622761Y-170143380D01*
X58527523Y-170286238D01*
X58432285Y-170381476D01*
X58337047Y-170429095D01*
X59765619Y-170143380D02*
X59575142Y-170143380D01*
X59479904Y-170191000D01*
X59432285Y-170238619D01*
X59337047Y-170381476D01*
X59289428Y-170571952D01*
X59289428Y-170952904D01*
X59337047Y-171048142D01*
X59384666Y-171095761D01*
X59479904Y-171143380D01*
X59670380Y-171143380D01*
X59765619Y-171095761D01*
X59813238Y-171048142D01*
X59860857Y-170952904D01*
X59860857Y-170714809D01*
X59813238Y-170619571D01*
X59765619Y-170571952D01*
X59670380Y-170524333D01*
X59479904Y-170524333D01*
X59384666Y-170571952D01*
X59337047Y-170619571D01*
X59289428Y-170714809D01*
%TO.C,J15*%
X60448476Y-170143380D02*
X60448476Y-170857666D01*
X60400857Y-171000523D01*
X60305619Y-171095761D01*
X60162761Y-171143380D01*
X60067523Y-171143380D01*
X61448476Y-171143380D02*
X60877047Y-171143380D01*
X61162761Y-171143380D02*
X61162761Y-170143380D01*
X61067523Y-170286238D01*
X60972285Y-170381476D01*
X60877047Y-170429095D01*
X62353238Y-170143380D02*
X61877047Y-170143380D01*
X61829428Y-170619571D01*
X61877047Y-170571952D01*
X61972285Y-170524333D01*
X62210380Y-170524333D01*
X62305619Y-170571952D01*
X62353238Y-170619571D01*
X62400857Y-170714809D01*
X62400857Y-170952904D01*
X62353238Y-171048142D01*
X62305619Y-171095761D01*
X62210380Y-171143380D01*
X61972285Y-171143380D01*
X61877047Y-171095761D01*
X61829428Y-171048142D01*
%TO.C,J14*%
X62988476Y-170143380D02*
X62988476Y-170857666D01*
X62940857Y-171000523D01*
X62845619Y-171095761D01*
X62702761Y-171143380D01*
X62607523Y-171143380D01*
X63988476Y-171143380D02*
X63417047Y-171143380D01*
X63702761Y-171143380D02*
X63702761Y-170143380D01*
X63607523Y-170286238D01*
X63512285Y-170381476D01*
X63417047Y-170429095D01*
X64845619Y-170476714D02*
X64845619Y-171143380D01*
X64607523Y-170095761D02*
X64369428Y-170810047D01*
X64988476Y-170810047D01*
%TO.C,J13*%
X65528476Y-170143380D02*
X65528476Y-170857666D01*
X65480857Y-171000523D01*
X65385619Y-171095761D01*
X65242761Y-171143380D01*
X65147523Y-171143380D01*
X66528476Y-171143380D02*
X65957047Y-171143380D01*
X66242761Y-171143380D02*
X66242761Y-170143380D01*
X66147523Y-170286238D01*
X66052285Y-170381476D01*
X65957047Y-170429095D01*
X66861809Y-170143380D02*
X67480857Y-170143380D01*
X67147523Y-170524333D01*
X67290380Y-170524333D01*
X67385619Y-170571952D01*
X67433238Y-170619571D01*
X67480857Y-170714809D01*
X67480857Y-170952904D01*
X67433238Y-171048142D01*
X67385619Y-171095761D01*
X67290380Y-171143380D01*
X67004666Y-171143380D01*
X66909428Y-171095761D01*
X66861809Y-171048142D01*
%TO.C,J11*%
X68068476Y-170143380D02*
X68068476Y-170857666D01*
X68020857Y-171000523D01*
X67925619Y-171095761D01*
X67782761Y-171143380D01*
X67687523Y-171143380D01*
X69068476Y-171143380D02*
X68497047Y-171143380D01*
X68782761Y-171143380D02*
X68782761Y-170143380D01*
X68687523Y-170286238D01*
X68592285Y-170381476D01*
X68497047Y-170429095D01*
X70020857Y-171143380D02*
X69449428Y-171143380D01*
X69735142Y-171143380D02*
X69735142Y-170143380D01*
X69639904Y-170286238D01*
X69544666Y-170381476D01*
X69449428Y-170429095D01*
%TO.C,J4*%
X44066666Y-143787380D02*
X44066666Y-144501666D01*
X44019047Y-144644523D01*
X43923809Y-144739761D01*
X43780952Y-144787380D01*
X43685714Y-144787380D01*
X44971428Y-144120714D02*
X44971428Y-144787380D01*
X44733333Y-143739761D02*
X44495238Y-144454047D01*
X45114285Y-144454047D01*
%TO.C,J2*%
X73502380Y-132833333D02*
X74216666Y-132833333D01*
X74359523Y-132880952D01*
X74454761Y-132976190D01*
X74502380Y-133119047D01*
X74502380Y-133214285D01*
X73597619Y-132404761D02*
X73550000Y-132357142D01*
X73502380Y-132261904D01*
X73502380Y-132023809D01*
X73550000Y-131928571D01*
X73597619Y-131880952D01*
X73692857Y-131833333D01*
X73788095Y-131833333D01*
X73930952Y-131880952D01*
X74502380Y-132452380D01*
X74502380Y-131833333D01*
%TO.C,D3*%
X66778380Y-156440095D02*
X65778380Y-156440095D01*
X65778380Y-156202000D01*
X65826000Y-156059142D01*
X65921238Y-155963904D01*
X66016476Y-155916285D01*
X66206952Y-155868666D01*
X66349809Y-155868666D01*
X66540285Y-155916285D01*
X66635523Y-155963904D01*
X66730761Y-156059142D01*
X66778380Y-156202000D01*
X66778380Y-156440095D01*
X65778380Y-155535333D02*
X65778380Y-154916285D01*
X66159333Y-155249619D01*
X66159333Y-155106761D01*
X66206952Y-155011523D01*
X66254571Y-154963904D01*
X66349809Y-154916285D01*
X66587904Y-154916285D01*
X66683142Y-154963904D01*
X66730761Y-155011523D01*
X66778380Y-155106761D01*
X66778380Y-155392476D01*
X66730761Y-155487714D01*
X66683142Y-155535333D01*
%TO.C,C17*%
X75757142Y-144655357D02*
X75804761Y-144702976D01*
X75852380Y-144845833D01*
X75852380Y-144941071D01*
X75804761Y-145083928D01*
X75709523Y-145179166D01*
X75614285Y-145226785D01*
X75423809Y-145274404D01*
X75280952Y-145274404D01*
X75090476Y-145226785D01*
X74995238Y-145179166D01*
X74900000Y-145083928D01*
X74852380Y-144941071D01*
X74852380Y-144845833D01*
X74900000Y-144702976D01*
X74947619Y-144655357D01*
X75852380Y-143702976D02*
X75852380Y-144274404D01*
X75852380Y-143988690D02*
X74852380Y-143988690D01*
X74995238Y-144083928D01*
X75090476Y-144179166D01*
X75138095Y-144274404D01*
X74852380Y-143369642D02*
X74852380Y-142702976D01*
X75852380Y-143131547D01*
%TO.C,C13*%
X69407142Y-136307142D02*
X69359523Y-136354761D01*
X69216666Y-136402380D01*
X69121428Y-136402380D01*
X68978571Y-136354761D01*
X68883333Y-136259523D01*
X68835714Y-136164285D01*
X68788095Y-135973809D01*
X68788095Y-135830952D01*
X68835714Y-135640476D01*
X68883333Y-135545238D01*
X68978571Y-135450000D01*
X69121428Y-135402380D01*
X69216666Y-135402380D01*
X69359523Y-135450000D01*
X69407142Y-135497619D01*
X70359523Y-136402380D02*
X69788095Y-136402380D01*
X70073809Y-136402380D02*
X70073809Y-135402380D01*
X69978571Y-135545238D01*
X69883333Y-135640476D01*
X69788095Y-135688095D01*
X70692857Y-135402380D02*
X71311904Y-135402380D01*
X70978571Y-135783333D01*
X71121428Y-135783333D01*
X71216666Y-135830952D01*
X71264285Y-135878571D01*
X71311904Y-135973809D01*
X71311904Y-136211904D01*
X71264285Y-136307142D01*
X71216666Y-136354761D01*
X71121428Y-136402380D01*
X70835714Y-136402380D01*
X70740476Y-136354761D01*
X70692857Y-136307142D01*
%TO.C,C12*%
X48368142Y-157384857D02*
X48415761Y-157432476D01*
X48463380Y-157575333D01*
X48463380Y-157670571D01*
X48415761Y-157813428D01*
X48320523Y-157908666D01*
X48225285Y-157956285D01*
X48034809Y-158003904D01*
X47891952Y-158003904D01*
X47701476Y-157956285D01*
X47606238Y-157908666D01*
X47511000Y-157813428D01*
X47463380Y-157670571D01*
X47463380Y-157575333D01*
X47511000Y-157432476D01*
X47558619Y-157384857D01*
X48463380Y-156432476D02*
X48463380Y-157003904D01*
X48463380Y-156718190D02*
X47463380Y-156718190D01*
X47606238Y-156813428D01*
X47701476Y-156908666D01*
X47749095Y-157003904D01*
X47558619Y-156051523D02*
X47511000Y-156003904D01*
X47463380Y-155908666D01*
X47463380Y-155670571D01*
X47511000Y-155575333D01*
X47558619Y-155527714D01*
X47653857Y-155480095D01*
X47749095Y-155480095D01*
X47891952Y-155527714D01*
X48463380Y-156099142D01*
X48463380Y-155480095D01*
%TO.C,C11*%
X46418142Y-157372357D02*
X46465761Y-157419976D01*
X46513380Y-157562833D01*
X46513380Y-157658071D01*
X46465761Y-157800928D01*
X46370523Y-157896166D01*
X46275285Y-157943785D01*
X46084809Y-157991404D01*
X45941952Y-157991404D01*
X45751476Y-157943785D01*
X45656238Y-157896166D01*
X45561000Y-157800928D01*
X45513380Y-157658071D01*
X45513380Y-157562833D01*
X45561000Y-157419976D01*
X45608619Y-157372357D01*
X46513380Y-156419976D02*
X46513380Y-156991404D01*
X46513380Y-156705690D02*
X45513380Y-156705690D01*
X45656238Y-156800928D01*
X45751476Y-156896166D01*
X45799095Y-156991404D01*
X46513380Y-155467595D02*
X46513380Y-156039023D01*
X46513380Y-155753309D02*
X45513380Y-155753309D01*
X45656238Y-155848547D01*
X45751476Y-155943785D01*
X45799095Y-156039023D01*
%TO.C,C10*%
X40918142Y-157305357D02*
X40965761Y-157352976D01*
X41013380Y-157495833D01*
X41013380Y-157591071D01*
X40965761Y-157733928D01*
X40870523Y-157829166D01*
X40775285Y-157876785D01*
X40584809Y-157924404D01*
X40441952Y-157924404D01*
X40251476Y-157876785D01*
X40156238Y-157829166D01*
X40061000Y-157733928D01*
X40013380Y-157591071D01*
X40013380Y-157495833D01*
X40061000Y-157352976D01*
X40108619Y-157305357D01*
X41013380Y-156352976D02*
X41013380Y-156924404D01*
X41013380Y-156638690D02*
X40013380Y-156638690D01*
X40156238Y-156733928D01*
X40251476Y-156829166D01*
X40299095Y-156924404D01*
X40013380Y-155733928D02*
X40013380Y-155638690D01*
X40061000Y-155543452D01*
X40108619Y-155495833D01*
X40203857Y-155448214D01*
X40394333Y-155400595D01*
X40632428Y-155400595D01*
X40822904Y-155448214D01*
X40918142Y-155495833D01*
X40965761Y-155543452D01*
X41013380Y-155638690D01*
X41013380Y-155733928D01*
X40965761Y-155829166D01*
X40918142Y-155876785D01*
X40822904Y-155924404D01*
X40632428Y-155972023D01*
X40394333Y-155972023D01*
X40203857Y-155924404D01*
X40108619Y-155876785D01*
X40061000Y-155829166D01*
X40013380Y-155733928D01*
%TO.C,C8*%
X69883333Y-138357142D02*
X69835714Y-138404761D01*
X69692857Y-138452380D01*
X69597619Y-138452380D01*
X69454761Y-138404761D01*
X69359523Y-138309523D01*
X69311904Y-138214285D01*
X69264285Y-138023809D01*
X69264285Y-137880952D01*
X69311904Y-137690476D01*
X69359523Y-137595238D01*
X69454761Y-137500000D01*
X69597619Y-137452380D01*
X69692857Y-137452380D01*
X69835714Y-137500000D01*
X69883333Y-137547619D01*
X70454761Y-137880952D02*
X70359523Y-137833333D01*
X70311904Y-137785714D01*
X70264285Y-137690476D01*
X70264285Y-137642857D01*
X70311904Y-137547619D01*
X70359523Y-137500000D01*
X70454761Y-137452380D01*
X70645238Y-137452380D01*
X70740476Y-137500000D01*
X70788095Y-137547619D01*
X70835714Y-137642857D01*
X70835714Y-137690476D01*
X70788095Y-137785714D01*
X70740476Y-137833333D01*
X70645238Y-137880952D01*
X70454761Y-137880952D01*
X70359523Y-137928571D01*
X70311904Y-137976190D01*
X70264285Y-138071428D01*
X70264285Y-138261904D01*
X70311904Y-138357142D01*
X70359523Y-138404761D01*
X70454761Y-138452380D01*
X70645238Y-138452380D01*
X70740476Y-138404761D01*
X70788095Y-138357142D01*
X70835714Y-138261904D01*
X70835714Y-138071428D01*
X70788095Y-137976190D01*
X70740476Y-137928571D01*
X70645238Y-137880952D01*
%TD*%
M02*
