M48
; DRILL file {KiCad 5.1.9+dfsg1-1~bpo10+1} date Fri Feb 26 10:21:26 2021
; FORMAT={-:-/ absolute / inch / decimal}
; #@! TF.CreationDate,2021-02-26T10:21:26+00:00
; #@! TF.GenerationSoftware,Kicad,Pcbnew,5.1.9+dfsg1-1~bpo10+1
; #@! TF.FileFunction,Plated,1,4,PTH
FMAT,2
INCH
T1C0.0098
T2C0.0157
T3C0.0197
T4C0.0256
T5C0.0394
T6C0.0591
T7C0.0984
%
G90
G05
T1
X1.2379Y-4.887
X1.2379Y-4.9551
X1.2379Y-5.8411
X1.2379Y-5.932
X1.2607Y-4.8416
X1.2607Y-5.8865
X1.2834Y-5.8184
X1.3061Y-5.8638
X1.3376Y-5.0837
X1.3376Y-5.1831
X1.3376Y-5.2835
X1.3376Y-5.3829
X1.3376Y-5.4833
X1.3376Y-5.5827
X1.3376Y-5.6831
X1.3515Y-4.9097
X1.3515Y-5.8184
X1.3515Y-5.9092
X1.3742Y-5.8638
X1.3799Y-4.8386
X1.397Y-5.7957
X1.4222Y-5.0108
X1.4222Y-5.2106
X1.4232Y-5.1063
X1.4232Y-5.31
X1.4232Y-5.6585
X1.4242Y-5.4557
X1.4242Y-5.56
X1.4242Y-5.7589
X1.4651Y-4.6371
X1.4651Y-4.7053
X1.4651Y-4.7734
X1.4651Y-4.8416
X1.4651Y-4.9097
X1.4651Y-5.7957
X1.4651Y-5.8638
X1.4651Y-5.932
X1.4651Y-6.0001
X1.4651Y-6.0683
X1.4651Y-6.1364
X1.5138Y-5.1033
X1.5226Y-5.4478
X1.5256Y-5.5335
X1.5256Y-5.565
X1.5256Y-5.6535
X1.5276Y-5.2185
X1.5354Y-5.3445
X1.5394Y-5.2992
X1.5413Y-5.4833
X1.556Y-5.0006
X1.556Y-5.3868
X1.5669Y-5.6919
X1.5787Y-5.3413
X1.5787Y-6.0228
X1.5787Y-6.091
X1.5835Y-5.9587
X1.6014Y-4.7734
X1.6014Y-4.9779
X1.6014Y-5.1596
X1.6014Y-5.2277
X1.6014Y-5.2959
X1.6014Y-5.4549
X1.6014Y-5.5231
X1.6014Y-5.5912
X1.6014Y-5.7729
X1.6241Y-4.7053
X1.6241Y-5.0233
X1.6241Y-5.3868
X1.6339Y-4.9754
X1.6339Y-5.7933
X1.6468Y-5.1369
X1.6468Y-5.205
X1.6468Y-5.2732
X1.6468Y-5.3413
X1.6468Y-5.4322
X1.6468Y-5.5003
X1.6468Y-5.5685
X1.6486Y-5.6801
X1.6696Y-4.7734
X1.6696Y-4.8643
X1.6696Y-4.9324
X1.6696Y-5.0006
X1.6696Y-5.8184
X1.6696Y-5.932
X1.6923Y-5.7729
X1.6923Y-6.1364
X1.7142Y-5.2906
X1.715Y-4.8416
X1.715Y-5.4776
X1.717Y-5.9107
X1.7377Y-6.1137
X1.7508Y-4.9465
X1.752Y-4.9183
X1.7604Y-5.205
X1.7604Y-5.5003
X1.7604Y-5.5685
X1.7604Y-5.6821
X1.7604Y-6.0455
X1.7831Y-4.6825
X1.7831Y-4.8416
X1.7874Y-5.9951
X1.7902Y-4.9165
X1.8059Y-4.6371
X1.8059Y-4.728
X1.8059Y-4.7961
X1.8059Y-6.1137
X1.8297Y-4.9163
X1.8297Y-4.9463
X1.8602Y-5.5294
X1.868Y-6.1019
X1.874Y-4.6371
X1.874Y-5.3413
X1.874Y-6.1364
X1.8764Y-4.7122
X1.8829Y-5.501
X1.8967Y-5.3868
X1.8967Y-5.6821
X1.8967Y-6.0455
X1.906Y-5.9951
X1.9194Y-5.1823
X1.9194Y-5.3186
X1.9194Y-5.7729
X1.9209Y-5.0043
X1.9311Y-5.877
X1.937Y-4.8898
X1.9396Y-5.0333
X1.9417Y-4.7126
X1.9422Y-4.6371
X1.9422Y-5.5912
X1.9422Y-6.1364
X1.9649Y-5.6821
X1.9724Y-4.8907
X1.9764Y-5.0246
X1.9774Y-5.813
X1.9774Y-6.0059
X1.9902Y-5.5768
X1.9965Y-5.2756
X2.0Y-5.1417
X2.002Y-4.9567
X2.0039Y-5.3268
X2.0039Y-5.3661
X2.0081Y-5.4142
X2.0103Y-4.6371
X2.0103Y-6.1364
X2.0315Y-5.7726
X2.033Y-5.6821
X2.0364Y-4.8907
X2.0738Y-5.6821
X2.0784Y-4.6371
X2.0784Y-4.7507
X2.0784Y-4.8188
X2.0784Y-4.887
X2.0784Y-5.0233
X2.0787Y-5.2559
X2.0839Y-5.5114
X2.0866Y-5.6417
X2.0906Y-5.4205
X2.0906Y-5.8209
X2.0925Y-5.1594
X2.1004Y-5.3189
X2.1059Y-4.7118
X2.1181Y-5.6467
X2.1239Y-4.9551
X2.1239Y-5.3868
X2.1309Y-4.8258
X2.1329Y-4.6142
X2.1329Y-4.6604
X2.1378Y-5.7047
X2.1398Y-4.722
X2.1466Y-5.2277
X2.1466Y-5.3186
X2.1476Y-5.0217
X2.1555Y-5.935
X2.1693Y-5.2732
X2.1693Y-5.364
X2.1772Y-5.4331
X2.1778Y-5.6457
X2.1996Y-5.7018
X2.2147Y-5.3186
X2.2147Y-5.4095
X2.2156Y-5.1978
X2.2217Y-6.0437
X2.2293Y-5.9823
X2.2323Y-5.7844
X2.2323Y-5.8258
X2.2375Y-5.2732
X2.2375Y-5.364
X2.2375Y-5.4549
X2.2476Y-5.1961
X2.2602Y-4.8188
X2.2744Y-5.5169
X2.2829Y-4.8643
X2.2829Y-5.3186
X2.2829Y-5.4095
X2.2913Y-5.814
X2.3056Y-5.2732
X2.3056Y-5.364
X2.3056Y-5.4549
X2.3056Y-6.0228
X2.3159Y-5.0692
X2.3283Y-4.8188
X2.3283Y-5.6594
X2.3283Y-5.8184
X2.335Y-5.5496
X2.3445Y-5.7018
X2.3493Y-5.2018
X2.351Y-4.8643
X2.351Y-4.9779
X2.351Y-5.3186
X2.351Y-5.4095
X2.351Y-5.9092
X2.351Y-6.0001
X2.3524Y-5.9675
X2.3524Y-6.0394
X2.3622Y-5.0827
X2.3657Y-5.2736
X2.3657Y-5.4551
X2.3661Y-5.363
X2.3685Y-5.7382
X2.3783Y-5.9421
X2.3815Y-5.7811
X2.3819Y-5.8533
X2.3957Y-5.7382
X2.3965Y-4.8416
X2.3965Y-5.8184
X2.398Y-5.2083
X2.4063Y-5.6496
X2.4116Y-5.9617
X2.4188Y-5.0891
X2.4236Y-5.7382
X2.4252Y-5.0472
X2.4316Y-5.9617
X2.439Y-5.626
X2.4419Y-4.8188
X2.4419Y-4.887
X2.4459Y-5.4134
X2.4459Y-5.4616
X2.4474Y-5.7526
X2.4516Y-5.9617
X2.4518Y-5.0906
X2.4527Y-5.3189
X2.4528Y-5.2874
X2.4528Y-5.3583
X2.4646Y-5.7236
X2.4646Y-4.9551
X2.4764Y-5.6563
X2.4783Y-5.9417
X2.4787Y-5.852
X2.4791Y-5.7654
X2.4882Y-4.8642
X2.5052Y-5.6742
X2.5138Y-4.8189
X2.5173Y-4.9379
X2.5315Y-5.3228
X2.5335Y-5.3937
X2.5353Y-5.7043
X2.5433Y-5.189
X2.5449Y-5.9539
X2.5455Y-5.7443
X2.5455Y-5.7868
X2.5455Y-5.8337
X2.5455Y-5.8718
X2.5455Y-5.9143
X2.5472Y-5.4921
X2.5531Y-5.6634
X2.5684Y-5.2233
X2.5709Y-5.6811
X2.5748Y-5.4724
X2.5758Y-5.9537
X2.5782Y-5.7502
X2.5886Y-5.6988
X2.5969Y-5.6217
X2.5984Y-5.2598
X2.5984Y-5.7904
X2.5984Y-5.2283
X2.6Y-5.4992
X2.6016Y-5.4519
X2.6191Y-5.9547
X2.6309Y-5.7913
X2.6394Y-5.6823
X2.6437Y-5.4931
X2.6447Y-5.369
X2.6457Y-5.4093
X2.6464Y-4.6825
X2.6464Y-4.7961
X2.6464Y-5.8638
X2.6539Y-5.9445
X2.6618Y-5.5899
X2.6644Y-4.939
X2.6654Y-5.4331
X2.6691Y-4.6371
X2.6691Y-5.1369
X2.6691Y-5.8184
X2.6691Y-5.9092
X2.69Y-4.8169
X2.6918Y-4.7507
X2.6969Y-5.3957
X2.7145Y-4.6825
X2.7145Y-5.5912
X2.7145Y-5.8638
X2.7145Y-6.1364
X2.7372Y-4.6371
X2.7372Y-4.728
X2.7372Y-4.8416
X2.7372Y-5.8184
X2.7372Y-6.091
X2.7458Y-5.3769
X2.747Y-5.4311
X2.75Y-5.6161
X2.7559Y-4.874
X2.7599Y-4.7961
X2.7638Y-4.9331
X2.7697Y-5.2825
X2.7805Y-5.7116
X2.7827Y-4.7507
X2.7827Y-5.8865
X2.7827Y-6.0683
X2.7835Y-4.9764
X2.7864Y-5.4311
X2.7913Y-4.8416
X2.8031Y-5.0197
X2.8281Y-4.6598
X2.8281Y-4.728
X2.8281Y-4.7961
X2.8429Y-5.2642
X2.8504Y-5.6181
X2.8508Y-5.0687
X2.8508Y-5.8865
X2.8508Y-6.0683
X2.8571Y-5.2008
X2.8587Y-5.1067
X2.8735Y-4.6371
X2.8735Y-4.7053
X2.8735Y-4.7559
X2.8735Y-5.0233
X2.8888Y-5.4646
X2.8962Y-5.5912
X2.902Y-4.9929
X2.9189Y-5.0642
X2.919Y-5.8865
X2.919Y-6.0683
X2.9197Y-5.5133
X2.9213Y-4.7165
X2.9232Y-5.4783
X2.9398Y-5.2028
X2.9417Y-4.9551
X2.9417Y-5.0233
X2.9469Y-5.5912
X2.9469Y-5.7116
X2.9624Y-5.2852
X2.9644Y-5.3868
X2.9764Y-4.9173
X2.9852Y-4.7126
X2.9866Y-5.0638
X2.9871Y-5.0006
X2.989Y-5.3024
X2.9921Y-5.2028
X2.998Y-5.378
X2.9984Y-5.9425
X3.0098Y-4.887
X3.0098Y-4.9551
X3.0315Y-4.7402
X3.0315Y-5.3394
X3.0325Y-5.046
X3.0325Y-5.6139
X3.0325Y-5.8411
X3.0325Y-5.9092
X3.0472Y-4.8504
X3.0502Y-5.2136
X3.0512Y-4.7077
X3.0553Y-4.9324
X3.0553Y-5.0006
X3.0553Y-5.1596
X3.061Y-5.2598
X3.0638Y-5.3024
X3.0709Y-5.7648
X3.0728Y-5.4646
X3.078Y-4.887
X3.078Y-5.5912
X3.078Y-5.932
X3.0817Y-5.1801
X3.0827Y-5.1369
X3.0831Y-5.208
X3.1007Y-4.9779
X3.1007Y-5.046
X3.1007Y-6.0228
X3.1007Y-6.1137
X3.1039Y-5.2949
X3.1055Y-5.533
X3.1196Y-5.209
X3.1234Y-4.7507
X3.1234Y-4.8643
X3.1234Y-4.9324
X3.1234Y-5.9774
X3.1234Y-6.0683
X3.126Y-5.438
X3.126Y-5.6201
X3.1299Y-5.936
X3.1299Y-5.7884
X3.1378Y-4.7077
X3.1461Y-4.8188
X3.1461Y-5.0233
X3.1461Y-5.7275
X3.1555Y-5.2146
X3.1604Y-5.2953
X3.1688Y-4.9097
X3.1688Y-4.9779
X3.1688Y-5.7957
X3.1909Y-5.2953
X3.1916Y-4.7734
X3.1916Y-4.8643
X3.1916Y-5.3868
X3.1916Y-5.7502
X3.1921Y-5.0642
X3.2057Y-5.6339
X3.2143Y-4.728
X3.2143Y-4.8188
X3.2143Y-4.9551
X3.2143Y-5.0233
X3.2143Y-5.205
X3.2205Y-5.2579
X3.2205Y-5.2953
X3.2205Y-5.3346
X3.2362Y-5.4321
X3.237Y-4.9097
X3.237Y-5.7957
X3.2422Y-5.4705
X3.252Y-5.1358
X3.2597Y-4.6371
X3.2597Y-4.7053
X3.2597Y-4.7734
X3.2597Y-4.8643
X3.2597Y-5.0006
X3.2597Y-5.063
X3.2597Y-5.7502
X3.2657Y-5.2323
X3.2824Y-4.8188
X3.2824Y-4.9551
X3.2824Y-5.1823
X3.2824Y-5.4776
X3.2824Y-5.5458
X3.2843Y-5.6039
X3.2854Y-5.6732
X3.2864Y-5.7047
X3.2992Y-5.3331
X3.3051Y-4.7507
X3.3051Y-4.9097
X3.3051Y-5.046
X3.3051Y-5.1369
X3.3051Y-5.7957
X3.3051Y-5.8638
X3.3051Y-5.932
X3.3051Y-6.0228
X3.3051Y-6.091
X3.3154Y-5.6343
X3.3279Y-4.7961
X3.3279Y-4.8643
X3.3279Y-5.0006
X3.3279Y-5.7502
X3.3279Y-5.9774
X3.3279Y-6.1364
X3.3288Y-5.4585
X3.3386Y-5.2175
X3.3396Y-5.2953
X3.3506Y-4.9324
X3.3506Y-5.1823
X3.3506Y-5.8411
X3.3506Y-5.9092
X3.3733Y-4.8416
X3.3733Y-4.9779
X3.3733Y-5.046
X3.3733Y-5.1369
X3.3733Y-5.5003
X3.3733Y-5.7957
X3.3736Y-5.5458
X3.396Y-4.9097
X3.396Y-5.2277
X3.396Y-5.3413
X3.396Y-5.4322
X3.396Y-5.5912
X3.396Y-5.7502
X3.396Y-5.8638
X3.4187Y-4.8643
X3.4187Y-4.9551
X3.4187Y-5.0233
X3.4187Y-5.1823
X3.4187Y-5.2959
X3.4187Y-5.4776
X3.4187Y-5.5458
X3.4187Y-5.7048
X3.4187Y-5.8184
X3.4187Y-5.9092
X3.4414Y-5.2505
X3.4734Y-5.378
X3.5096Y-5.4095
X3.5323Y-4.8416
X3.5323Y-5.2505
X3.5323Y-5.364
X3.5323Y-5.932
T2
X2.8028Y-5.9394
X2.8031Y-5.9772
X2.8035Y-6.015
X2.8417Y-5.9398
X2.8425Y-5.9764
X2.8433Y-6.0154
X2.9764Y-5.8346
X2.9764Y-5.8898
X3.0098Y-6.0138
X3.0098Y-6.0886
X3.0102Y-6.0508
X3.0492Y-6.0138
X3.0492Y-6.0512
X3.0492Y-6.0886
X3.0866Y-5.8346
X3.0866Y-5.8898
X3.1791Y-6.0138
X3.1791Y-6.0512
X3.1791Y-6.0886
X3.2126Y-5.8465
X3.2126Y-5.9006
X3.215Y-6.0134
X3.215Y-6.0508
X3.215Y-6.0882
X3.2362Y-5.874
T3
X1.251Y-6.0531
X1.253Y-4.7146
X1.2726Y-6.001
X1.2726Y-6.1053
X1.2746Y-4.6624
X1.2746Y-4.7668
X1.2972Y-4.8652
X1.2972Y-4.9469
X1.3248Y-5.9793
X1.3248Y-6.127
X1.3268Y-4.6407
X1.3268Y-4.7884
X1.377Y-6.001
X1.377Y-6.1053
X1.379Y-4.6624
X1.379Y-4.7668
X1.3986Y-6.0531
X1.4006Y-4.7146
X2.1295Y-5.4437
X2.9154Y-5.4213
X3.3789Y-4.7156
X3.3789Y-6.0531
X3.4006Y-4.6634
X3.4006Y-4.7677
X3.4006Y-6.001
X3.4006Y-6.1053
X3.4528Y-4.6417
X3.4528Y-4.7894
X3.4528Y-5.9793
X3.4528Y-6.127
X3.505Y-4.6634
X3.505Y-4.7677
X3.505Y-6.001
X3.505Y-6.1053
X3.5266Y-4.7156
X3.5266Y-6.0531
T4
X1.7175Y-5.1437
X1.7675Y-5.1437
X1.8175Y-5.1437
X1.8675Y-5.1437
X2.5945Y-5.313
X2.5953Y-5.1906
X2.6445Y-5.313
X2.6453Y-5.1906
X2.6945Y-5.313
X2.6953Y-5.1906
X2.7445Y-5.313
X2.7945Y-5.313
X2.8445Y-5.313
T5
X1.2732Y-5.0339
X1.2732Y-5.1334
X1.2732Y-5.2334
X1.2732Y-5.3334
X1.2732Y-5.4334
X1.2732Y-5.5334
X1.2732Y-5.6334
X1.2732Y-5.7334
X1.3732Y-5.0339
X1.3732Y-5.1334
X1.3732Y-5.2334
X1.3732Y-5.3334
X1.3732Y-5.4334
X1.3732Y-5.5334
X1.3732Y-5.6334
X1.3732Y-5.7334
X1.4732Y-5.0339
X1.4732Y-5.1334
X1.4732Y-5.2334
X1.4732Y-5.3334
X1.4732Y-5.4334
X1.4732Y-5.5334
X1.4732Y-5.6334
X1.4732Y-5.7334
X3.4866Y-4.9012
X3.4866Y-5.0012
X3.4866Y-5.1012
X3.4866Y-5.2012
X3.4866Y-5.3012
X3.4866Y-5.4711
X3.4866Y-5.5711
X3.4866Y-5.6711
X3.4866Y-5.7711
X3.4866Y-5.8711
T6
X2.0717Y-6.1063
X2.1717Y-6.1063
X2.2717Y-6.1063
T7
X1.3248Y-6.0531
X1.3268Y-4.7146
X3.4528Y-4.7156
X3.4528Y-6.0531
T0
M30
