%TF.GenerationSoftware,KiCad,Pcbnew,5.1.9+dfsg1-1~bpo10+1*%
%TF.CreationDate,2021-02-26T10:21:24+00:00*%
%TF.ProjectId,glider,676c6964-6572-42e6-9b69-6361645f7063,rev?*%
%TF.SameCoordinates,Original*%
%TF.FileFunction,Paste,Bot*%
%TF.FilePolarity,Positive*%
%FSLAX46Y46*%
G04 Gerber Fmt 4.6, Leading zero omitted, Abs format (unit mm)*
G04 Created by KiCad (PCBNEW 5.1.9+dfsg1-1~bpo10+1) date 2021-02-26 10:21:24*
%MOMM*%
%LPD*%
G01*
G04 APERTURE LIST*
%ADD10R,0.900000X1.200000*%
%ADD11R,1.200000X4.000000*%
%ADD12R,0.900000X0.800000*%
%ADD13O,2.150000X0.700000*%
%ADD14O,0.700000X2.150000*%
G04 APERTURE END LIST*
%TO.C,R25*%
G36*
G01*
X62975000Y-147831250D02*
X62975000Y-147318750D01*
G75*
G02*
X63193750Y-147100000I218750J0D01*
G01*
X63631250Y-147100000D01*
G75*
G02*
X63850000Y-147318750I0J-218750D01*
G01*
X63850000Y-147831250D01*
G75*
G02*
X63631250Y-148050000I-218750J0D01*
G01*
X63193750Y-148050000D01*
G75*
G02*
X62975000Y-147831250I0J218750D01*
G01*
G37*
G36*
G01*
X61400000Y-147831250D02*
X61400000Y-147318750D01*
G75*
G02*
X61618750Y-147100000I218750J0D01*
G01*
X62056250Y-147100000D01*
G75*
G02*
X62275000Y-147318750I0J-218750D01*
G01*
X62275000Y-147831250D01*
G75*
G02*
X62056250Y-148050000I-218750J0D01*
G01*
X61618750Y-148050000D01*
G75*
G02*
X61400000Y-147831250I0J218750D01*
G01*
G37*
%TD*%
D10*
%TO.C,D7*%
X77450000Y-153690000D03*
X80750000Y-153690000D03*
%TD*%
D11*
%TO.C,LS1*%
X39200000Y-150050000D03*
X50400000Y-150050000D03*
%TD*%
%TO.C,R15*%
G36*
G01*
X44450000Y-142843750D02*
X44450000Y-143356250D01*
G75*
G02*
X44231250Y-143575000I-218750J0D01*
G01*
X43793750Y-143575000D01*
G75*
G02*
X43575000Y-143356250I0J218750D01*
G01*
X43575000Y-142843750D01*
G75*
G02*
X43793750Y-142625000I218750J0D01*
G01*
X44231250Y-142625000D01*
G75*
G02*
X44450000Y-142843750I0J-218750D01*
G01*
G37*
G36*
G01*
X46025000Y-142843750D02*
X46025000Y-143356250D01*
G75*
G02*
X45806250Y-143575000I-218750J0D01*
G01*
X45368750Y-143575000D01*
G75*
G02*
X45150000Y-143356250I0J218750D01*
G01*
X45150000Y-142843750D01*
G75*
G02*
X45368750Y-142625000I218750J0D01*
G01*
X45806250Y-142625000D01*
G75*
G02*
X46025000Y-142843750I0J-218750D01*
G01*
G37*
%TD*%
D12*
%TO.C,Q4*%
X47250000Y-142050000D03*
X49250000Y-143000000D03*
X49250000Y-141100000D03*
%TD*%
%TO.C,C26*%
G36*
G01*
X54297500Y-121260000D02*
X53952500Y-121260000D01*
G75*
G02*
X53805000Y-121112500I0J147500D01*
G01*
X53805000Y-120817500D01*
G75*
G02*
X53952500Y-120670000I147500J0D01*
G01*
X54297500Y-120670000D01*
G75*
G02*
X54445000Y-120817500I0J-147500D01*
G01*
X54445000Y-121112500D01*
G75*
G02*
X54297500Y-121260000I-147500J0D01*
G01*
G37*
G36*
G01*
X54297500Y-122230000D02*
X53952500Y-122230000D01*
G75*
G02*
X53805000Y-122082500I0J147500D01*
G01*
X53805000Y-121787500D01*
G75*
G02*
X53952500Y-121640000I147500J0D01*
G01*
X54297500Y-121640000D01*
G75*
G02*
X54445000Y-121787500I0J-147500D01*
G01*
X54445000Y-122082500D01*
G75*
G02*
X54297500Y-122230000I-147500J0D01*
G01*
G37*
%TD*%
%TO.C,F1*%
G36*
G01*
X60625000Y-152025000D02*
X62775000Y-152025000D01*
G75*
G02*
X63025000Y-152275000I0J-250000D01*
G01*
X63025000Y-153025000D01*
G75*
G02*
X62775000Y-153275000I-250000J0D01*
G01*
X60625000Y-153275000D01*
G75*
G02*
X60375000Y-153025000I0J250000D01*
G01*
X60375000Y-152275000D01*
G75*
G02*
X60625000Y-152025000I250000J0D01*
G01*
G37*
G36*
G01*
X60625000Y-149225000D02*
X62775000Y-149225000D01*
G75*
G02*
X63025000Y-149475000I0J-250000D01*
G01*
X63025000Y-150225000D01*
G75*
G02*
X62775000Y-150475000I-250000J0D01*
G01*
X60625000Y-150475000D01*
G75*
G02*
X60375000Y-150225000I0J250000D01*
G01*
X60375000Y-149475000D01*
G75*
G02*
X60625000Y-149225000I250000J0D01*
G01*
G37*
%TD*%
%TO.C,R12*%
G36*
G01*
X67347500Y-120260000D02*
X67002500Y-120260000D01*
G75*
G02*
X66855000Y-120112500I0J147500D01*
G01*
X66855000Y-119817500D01*
G75*
G02*
X67002500Y-119670000I147500J0D01*
G01*
X67347500Y-119670000D01*
G75*
G02*
X67495000Y-119817500I0J-147500D01*
G01*
X67495000Y-120112500D01*
G75*
G02*
X67347500Y-120260000I-147500J0D01*
G01*
G37*
G36*
G01*
X67347500Y-121230000D02*
X67002500Y-121230000D01*
G75*
G02*
X66855000Y-121082500I0J147500D01*
G01*
X66855000Y-120787500D01*
G75*
G02*
X67002500Y-120640000I147500J0D01*
G01*
X67347500Y-120640000D01*
G75*
G02*
X67495000Y-120787500I0J-147500D01*
G01*
X67495000Y-121082500D01*
G75*
G02*
X67347500Y-121230000I-147500J0D01*
G01*
G37*
%TD*%
D13*
%TO.C,U8*%
X55900000Y-129950000D03*
X65500000Y-129950000D03*
X55900000Y-117800000D03*
X55900000Y-118950000D03*
X55900000Y-119950000D03*
X55900000Y-120950000D03*
X55900000Y-121950000D03*
X55900000Y-122950000D03*
X55900000Y-123950000D03*
X55900000Y-124950000D03*
X55900000Y-125950000D03*
X55900000Y-126950000D03*
X55900000Y-127950000D03*
X55900000Y-128950000D03*
D14*
X58700000Y-130700000D03*
X59700000Y-130700000D03*
X60700000Y-130700000D03*
X61700000Y-130700000D03*
X62700000Y-130700000D03*
D13*
X65500000Y-128950000D03*
X65500000Y-127950000D03*
X65500000Y-126950000D03*
X65500000Y-125950000D03*
X65500000Y-124950000D03*
X65500000Y-123950000D03*
X65500000Y-122950000D03*
X65500000Y-121950000D03*
X65500000Y-120950000D03*
X65500000Y-119950000D03*
X65500000Y-118950000D03*
X65500000Y-117800000D03*
%TD*%
%TO.C,R2*%
G36*
G01*
X53975000Y-150450000D02*
X51825000Y-150450000D01*
G75*
G02*
X51575000Y-150200000I0J250000D01*
G01*
X51575000Y-149450000D01*
G75*
G02*
X51825000Y-149200000I250000J0D01*
G01*
X53975000Y-149200000D01*
G75*
G02*
X54225000Y-149450000I0J-250000D01*
G01*
X54225000Y-150200000D01*
G75*
G02*
X53975000Y-150450000I-250000J0D01*
G01*
G37*
G36*
G01*
X53975000Y-153250000D02*
X51825000Y-153250000D01*
G75*
G02*
X51575000Y-153000000I0J250000D01*
G01*
X51575000Y-152250000D01*
G75*
G02*
X51825000Y-152000000I250000J0D01*
G01*
X53975000Y-152000000D01*
G75*
G02*
X54225000Y-152250000I0J-250000D01*
G01*
X54225000Y-153000000D01*
G75*
G02*
X53975000Y-153250000I-250000J0D01*
G01*
G37*
%TD*%
%TO.C,R7*%
G36*
G01*
X58856250Y-151825000D02*
X58343750Y-151825000D01*
G75*
G02*
X58125000Y-151606250I0J218750D01*
G01*
X58125000Y-151168750D01*
G75*
G02*
X58343750Y-150950000I218750J0D01*
G01*
X58856250Y-150950000D01*
G75*
G02*
X59075000Y-151168750I0J-218750D01*
G01*
X59075000Y-151606250D01*
G75*
G02*
X58856250Y-151825000I-218750J0D01*
G01*
G37*
G36*
G01*
X58856250Y-150250000D02*
X58343750Y-150250000D01*
G75*
G02*
X58125000Y-150031250I0J218750D01*
G01*
X58125000Y-149593750D01*
G75*
G02*
X58343750Y-149375000I218750J0D01*
G01*
X58856250Y-149375000D01*
G75*
G02*
X59075000Y-149593750I0J-218750D01*
G01*
X59075000Y-150031250D01*
G75*
G02*
X58856250Y-150250000I-218750J0D01*
G01*
G37*
%TD*%
M02*
